<svg width="87" height="74" viewBox="0 0 87 74" fill="none" xmlns="http://www.w3.org/2000/svg">
<path d="M87 52.0819V32.0425H72.2052C72.5565 30.9482 72.7897 29.7948 72.886 28.5793C73.6477 19.0259 68.3099 12.6093 67.6974 11.9098L66.4104 10.4363L60.37 12.6155C58.3026 5.34404 51.6 0 43.6726 0C35.7451 0 29.0114 5.3658 26.9627 12.6653V12.6187L20.9192 10.4332L19.6321 11.9098C19.0197 12.6093 13.685 19.0259 14.4466 28.5793C14.543 29.7731 14.7637 30.9295 15.1057 32.0425H0L0.307772 51.9917L7.09119 49.8498L10.6694 52.7441L4.14404 61.5327L23.4746 57.3979V54.858C28.1441 54.2332 33.1368 53.9316 37.5047 53.7948C37.8062 54.7368 38.1078 55.7099 38.4031 56.7171C38.4715 56.9503 38.4871 57.0746 38.4902 57.1182C38.4373 57.2922 38.1202 57.6746 37.8839 57.9575C37.2964 58.6632 36.2674 59.9036 36.1897 61.6073C34.5886 62.9565 32.8259 64.9865 32.4311 67.2498C32.3285 67.8498 32.3285 68.3969 32.3316 69.1492V71.2912L34.001 72.056C35.829 72.8954 38.484 73.2498 40.6446 73.3928V73.5296H43.5047C45.1213 73.5296 50.599 73.4176 53.2446 71.9627L54.7275 71.1482V69.1524C54.7275 68.3969 54.7275 67.8498 54.6249 67.2498C54.2332 64.9897 52.4705 62.9596 50.8694 61.6104C50.7886 59.9068 49.7596 58.6694 49.1751 57.9637C48.9389 57.6808 48.6218 57.2985 48.5689 57.1244C48.572 57.0808 48.5876 56.9596 48.656 56.7233C48.9544 55.7068 49.256 54.7306 49.5606 53.7855C49.7068 53.7917 49.7876 53.7948 49.8 53.7948C55.3399 53.7948 61.9834 54.6218 63.8207 54.8674V57.1119L83.2446 61.57L76.6321 52.7565L79.7627 50.3068L86.9969 52.085L87 52.0819ZM22.8342 27.9109C22.685 26.0425 22.9181 24.3358 23.3223 22.856C24.2301 23.5523 25.1161 24.0933 25.8124 24.4788C26.0736 25.1969 26.3596 25.9617 26.5865 26.5617C26.7855 27.0902 26.9689 27.5658 27.1026 27.9078C27.1772 28.1005 27.2394 28.2529 27.286 28.3586C27.3109 28.4207 27.3389 28.4829 27.37 28.542C27.8456 29.7451 28.3213 30.9078 28.7938 32.0425H24.4384C23.5461 30.8891 22.9617 29.5119 22.8342 27.9109ZM64.4985 27.9109C64.3741 29.4746 63.7337 30.8643 62.7482 32.0425H58.2777C58.7503 30.9109 59.2228 29.7482 59.7016 28.542C59.7327 28.4767 59.7637 28.4114 59.7948 28.3399C59.857 28.1969 59.941 27.9948 60.0404 27.7492C60.2332 27.2829 60.485 26.6611 60.7368 26.0394C60.9451 25.5264 61.1503 25.0104 61.3213 24.5845C62.0394 24.2021 63.0093 23.6238 64.0104 22.856C64.4145 24.3358 64.6477 26.0425 64.4985 27.9109Z" fill="#232C64"/>
<path d="M43.6724 31.7814C51.6391 31.7814 58.0973 25.3231 58.0973 17.3565C58.0973 9.38985 51.6391 2.93161 43.6724 2.93161C35.7058 2.93161 29.2476 9.38985 29.2476 17.3565C29.2476 25.3231 35.7058 31.7814 43.6724 31.7814Z" fill="black"/>
<mask id="mask0_5_1001" style="mask-type:luminance" maskUnits="userSpaceOnUse" x="30" y="4" width="27" height="27">
<path d="M56.8385 17.4402C56.8842 10.1674 51.0254 4.23452 43.7526 4.18882C36.4798 4.14312 30.5469 10.0019 30.5012 17.2747C30.4555 24.5476 36.3143 30.4804 43.5871 30.5261C50.86 30.5718 56.7928 24.7131 56.8385 17.4402Z" fill="white"/>
</mask>
<g mask="url(#mask0_5_1001)">
<path d="M39.1674 15.743L34.6597 13.4238L34.5664 9.12434L38.9965 5.8259L43.6659 8.36269V12.4601L39.1674 15.743Z" fill="white"/>
<path d="M39.1832 15.9637L34.4733 13.542L34.377 9.03418L38.9811 5.60516L43.8526 8.25387V12.5565L39.1832 15.9637ZM34.8433 13.3088L39.149 15.5223L43.4764 12.3668V8.4777L39.0122 6.04972L34.7562 9.22071L34.8433 13.3088Z" fill="black"/>
<path d="M40.8156 21.056L37.5949 24.6591L33.255 23.6953L29.9565 19.0414L34.6602 13.4238L39.1679 15.743L40.8156 21.056Z" fill="white"/>
<path d="M37.6603 24.8642L33.1432 23.8601L29.7173 19.029L34.6106 13.1844L39.3204 15.6093L41.024 21.0995L37.6572 24.8611L37.6603 24.8642ZM33.367 23.5243L37.5266 24.4477L40.6043 21.0062L39.0095 15.8673L34.7069 13.6539L30.1929 19.0446L33.367 23.5212V23.5243Z" fill="black"/>
<path d="M33.2547 23.6953L30.1863 29.8415L24.0775 28.1223L22.5884 22.4207L25.4827 17.3565L29.9563 19.0415L33.2547 23.6953Z" fill="white"/>
<path d="M30.2857 30.0622L23.922 28.2715L22.3862 22.3928L25.3956 17.1233L30.0743 18.8829L33.4722 23.6736L30.2857 30.0591V30.0622ZM24.2298 27.97L30.0868 29.6176L33.037 23.7109L29.8349 19.1969L25.5634 17.5896L22.7873 22.4487L24.2298 27.9731V27.97Z" fill="#242125"/>
<path d="M54.0215 23.6953L57.0899 29.8415L63.2018 28.1223L64.6878 22.4207L61.7935 17.3565L57.3199 19.0415L54.0215 23.6953Z" fill="white"/>
<path d="M56.9904 30.0622L53.8008 23.6767L57.1987 18.886L61.8744 17.1264L64.8837 22.3958L63.351 28.2746L56.9873 30.0653L56.9904 30.0622ZM54.2391 23.7109L57.1894 29.6176L63.0464 27.9699L64.4889 22.4456L61.7127 17.5865L57.4412 19.1938L54.2391 23.7078V23.7109Z" fill="#242125"/>
<path d="M46.9741 21.056L49.685 24.6591L54.0218 23.6953L57.314 19.0414L52.6322 13.4238L48.1803 15.743L46.9741 21.056Z" fill="white"/>
<path d="M49.6072 24.8673L46.772 21.0995L48.0186 15.6155L52.6818 13.1875L57.5533 19.0321L54.1367 23.8632L49.6103 24.8704L49.6072 24.8673ZM47.1761 21.0124L49.7627 24.4476L53.9129 23.5243L57.0808 19.0476L52.5854 13.657L48.345 15.8642L47.1761 21.0093V21.0124Z" fill="black"/>
<path d="M34.5665 9.12436L30.8701 6.81452V2.64561L36.2204 -0.73056L39.8763 3.18032L38.9965 5.82592L34.5665 9.12436Z" fill="white"/>
<path d="M34.576 9.35441L30.6807 6.92021V2.54301L36.2517 -0.973053L40.0879 3.13368L39.1553 5.94094L39.1086 5.97514L34.576 9.3513V9.35441ZM31.0568 6.71192L34.5573 8.90053L38.8382 5.71089L39.662 3.22695L36.1895 -0.491188L31.0568 2.74508V6.70881V6.71192Z" fill="black"/>
<path d="M52.679 9.21141L56.3691 6.81452L56.3442 2.64561L50.994 -0.73056L46.9121 3.18032L48.2302 5.82592L52.679 9.21141Z" fill="white"/>
<path d="M52.6692 9.43836L48.0806 5.94716L46.6816 3.13991L50.9718 -0.96994L56.5335 2.53991L56.5583 6.91711L52.6723 9.43836H52.6692ZM48.3759 5.70156L52.6848 8.97825L56.1759 6.71193L56.1542 2.74509L51.0153 -0.497401L47.1386 3.21763L48.3759 5.70156Z" fill="#242125"/>
<path d="M48.1805 15.743L52.6323 13.4238L52.6789 9.21139L48.2302 5.8259L43.6665 8.36269V12.4601L48.1805 15.743Z" fill="white"/>
<path d="M48.165 15.9637L43.48 12.5565V8.25387L48.2489 5.60205L52.8717 9.11811L52.822 13.5388L48.1681 15.9637H48.165ZM43.853 12.3668L48.196 15.5223L52.4458 13.3088L52.4924 9.30153L48.2147 6.04661L43.853 8.47148V12.3637V12.3668Z" fill="black"/>
<path d="M41.1916 30.1461H46.1377L49.6849 24.6591L46.974 21.056H40.8155L37.5947 24.6591L41.1916 30.1461Z" fill="white"/>
<path d="M46.2403 30.3358H41.0921L37.3584 24.6435L40.7315 20.8726H47.0672L49.9118 24.6529L46.2403 30.3358ZM41.2942 29.9596H46.0351L49.4548 24.6684L46.8776 21.2456H40.8993L37.8309 24.6777L41.2942 29.9596Z" fill="#242125"/>
<path d="M41.1919 40.2715H46.138L51.9328 34.4518L46.138 30.1461H41.1919L35.3442 34.4518L41.1919 40.2715Z" fill="white"/>
<path d="M46.2153 40.4612H41.1138L35.0547 34.4301L41.1293 29.9596H46.1998L52.2215 34.4301L46.2153 40.4612ZM41.2692 40.085H46.0599L51.6495 34.4736L46.0754 30.3358H41.2537L35.6298 34.4736L41.2692 40.085Z" fill="#242125"/>
<path d="M40.8151 21.0559L39.1675 15.743L43.6659 12.4601L48.1799 15.743L46.9737 21.0559H40.8151Z" fill="black" stroke="black" stroke-width="2" stroke-miterlimit="10"/>
<path d="M29.956 19.0414L25.4824 17.3565L30.87 6.81448L34.5664 9.12433L34.6596 13.4238L29.956 19.0414Z" fill="black"/>
<path d="M57.3142 19.0414L61.5484 11.4248L56.3691 6.81448L52.679 9.21138L52.6323 13.4238L57.3142 19.0414Z" fill="black"/>
<path d="M33.2238 23.7233L30.1865 29.8415L35.344 34.4518L41.1917 30.1461L37.5948 24.6591L33.2238 23.7233Z" fill="#242125"/>
<path d="M54.0559 23.7233L57.0901 29.8415L51.9326 34.4518L46.085 30.1461L49.685 24.6591L54.0559 23.7233Z" fill="#242125"/>
<path d="M46.9121 3.15231L48.2302 5.82589L43.6665 8.36268L38.9971 5.82589L39.8769 3.18029L46.9121 3.15231Z" fill="black"/>
</g>
<path fill-rule="evenodd" clip-rule="evenodd" d="M31.8771 32.0643H55.1341C56.4709 28.9026 57.8264 25.5295 59.1849 21.6435C60.6181 17.5399 26.4305 17.6891 27.73 21.4104C29.1165 25.3834 30.5062 28.828 31.874 32.0643H31.8771Z" fill="#FFDF66"/>
<path fill-rule="evenodd" clip-rule="evenodd" d="M47.7109 62.8539C48.8207 60.5565 46.0912 59.8135 45.7119 57.5782C45.6342 57.1274 45.6746 56.6176 45.8829 55.915C46.0819 55.2404 46.2808 54.5844 46.4798 53.9409H40.5233C40.7254 54.5844 40.9244 55.2435 41.1202 55.915C41.3254 56.6176 41.3658 57.1274 41.2912 57.5782C40.9119 59.8135 38.1824 60.5565 39.2922 62.8539C37.8093 63.7741 35.5523 65.857 35.2259 67.7378C35.1544 68.1513 35.1668 68.63 35.1668 69.4601C38.5803 71.0269 48.4228 71.0238 51.8363 69.4601C51.8363 68.63 51.8487 68.1513 51.7772 67.7378C51.4508 65.857 49.1938 63.7741 47.7109 62.8539Z" fill="#FFDF66"/>
<path fill-rule="evenodd" clip-rule="evenodd" d="M59.1852 21.6435C58.5013 23.599 57.3448 26.4031 56.6671 28.3243C50.8319 26.5958 35.9873 26.6798 30.3417 28.3243C29.636 26.3347 28.4391 23.4342 27.7334 21.4103C26.4339 17.6922 60.6184 17.543 59.1883 21.6435H59.1852Z" fill="#FFDF66"/>
<path d="M18.0962 32.0643H21.0433C20.4526 30.8954 20.0672 29.5865 19.949 28.1378C19.5853 23.5959 21.1117 19.8964 22.3459 17.714C24.1583 20.7078 28.0195 22.4145 28.2309 22.5047L29.3034 20.0332C27.8827 19.4145 24.1801 17.2384 24.1179 14.6456L21.7583 13.7938C21.5469 14.0363 16.5884 19.8218 17.2692 28.3523C17.3749 29.686 17.664 30.9233 18.0993 32.0643H18.0962Z" fill="#FFDF66"/>
<path d="M64.924 17.714C66.1582 19.8995 67.6815 23.599 67.3209 28.1378C67.2059 29.5679 66.7893 30.8767 66.1458 32.0643H69.1209C69.5934 30.9109 69.9012 29.6736 70.0069 28.3523C70.6877 19.8218 65.7292 14.0363 65.5178 13.7938L63.1582 14.6456C63.096 17.2352 58.952 19.4052 57.5312 20.0238L58.6753 22.884C58.8867 22.7938 63.1178 20.7078 64.9302 17.7109L64.924 17.714Z" fill="#FFC63B"/>
<path fill-rule="evenodd" clip-rule="evenodd" d="M55.1345 32.0643C56.4713 28.9026 57.8267 25.5295 59.1853 21.6435C53.378 25.7782 47.3718 25.1285 43.4609 26.2259V32.0643H55.1345Z" fill="#FFC63B"/>
<path fill-rule="evenodd" clip-rule="evenodd" d="M47.7111 62.8539C48.821 60.5565 46.0914 59.8135 45.7122 57.5782C45.6344 57.1274 45.6748 56.6176 45.8831 55.915C46.0821 55.2404 46.2811 54.5844 46.48 53.9409H43.4707L43.4769 70.6756C43.4769 70.6756 49.6293 70.6756 51.8365 69.4632C51.8365 68.6332 51.8489 68.1544 51.7774 67.7409C51.451 65.8601 49.194 63.7772 47.7111 62.857V62.8539Z" fill="#FFC63B"/>
<path fill-rule="evenodd" clip-rule="evenodd" d="M59.1853 21.6435C58.5014 23.599 57.3449 26.4031 56.6672 28.3244C53.7573 27.4601 48.8361 26.1762 43.4609 26.1762V18.5938C51.6806 18.6 59.9034 19.5886 59.1853 21.6435Z" fill="#FFC63B"/>
<path d="M38.0674 20.4497H42.7803L41.2166 28.8964L49.2684 17.9316H44.0052L45.7928 11.7264L38.0674 20.4497Z" fill="#DA1D2D"/>
<path d="M40.11 31.4518L42.0312 21.0715H36.6841L47.1514 9.25183L44.8292 17.3068H50.4934L40.1069 31.4487L40.11 31.4518ZM39.4478 19.828H43.5266L42.3204 26.3378L48.0375 18.5503H43.1784L44.4343 14.1979L39.4478 19.828Z" fill="#DA1D2D"/>
<path d="M48.6558 26.3223H50.462L49.0848 30.3264L52.949 25.3585H50.9314L51.7273 21.6622L48.6558 26.3223Z" fill="#FCF09A"/>
<path d="M33.4883 26.3223H35.2945L33.9204 30.3264L37.7815 25.3585H35.7639L36.5598 21.6622L33.4883 26.3223Z" fill="#FCF09A"/>
<path d="M10.5513 44.1078C10.542 44.9658 10.5358 45.3948 10.5264 46.2528C9.40104 46.5451 8.83835 46.7005 7.71607 47.0176C7.24664 45.4508 7.01037 44.6456 6.53472 42.9917C6.3513 42.4197 6.20208 42.2953 5.51503 42.4197C5.41555 42.4383 5.36581 42.4477 5.26633 42.4663C5.26011 43.5824 5.26011 44.142 5.25389 45.2611C5.58343 45.2114 5.74819 45.1834 6.07462 45.1337C6.0684 46.0819 6.06529 46.5544 6.06218 47.5026C4.51089 47.9658 3.73679 48.2114 2.19482 48.7243V46.1378C2.52125 46.0166 2.68602 45.9575 3.01244 45.8363C3.01555 42.9171 3.01866 39.9979 3.02488 37.0787C2.69223 37.0663 2.52747 37.0632 2.19482 37.0508V34.4642C3.77099 34.458 4.56063 34.4549 6.13679 34.4456C6.78032 34.4456 7.29016 34.4642 7.66322 34.4922C8.41244 34.5513 9.12747 34.7658 9.42591 35.0394C9.57514 35.1762 9.69949 35.3969 9.79897 35.686C10.0073 36.2829 10.0259 36.8767 10.0135 38.0425C10.0042 39.0684 9.87047 39.8021 9.62488 40.2466C9.38239 40.6912 8.85078 41.03 8.04871 41.2601C8.38757 41.3689 8.6456 41.6984 8.85389 42.2394C9.13679 43.0508 9.27669 43.4518 9.55959 44.2352C9.95441 44.1824 10.1534 44.1575 10.5482 44.1078H10.5513ZM5.27876 40.0352C5.39068 40.0197 5.44353 40.0135 5.55545 39.9979C6.46011 39.8829 6.88602 39.7554 7.23731 39.6404C7.75338 39.342 7.7254 39.0435 7.75027 38.2321C7.79068 36.914 7.70985 36.7399 5.92229 36.8425C5.67047 36.8798 5.54301 36.8984 5.2912 36.9357C5.28498 38.1762 5.28187 38.7948 5.27565 40.0352H5.27876Z" fill="white"/>
<path d="M18.609 41.3627C18.5872 42.5876 18.5779 43.2031 18.5561 44.428C15.6774 44.9876 14.2442 45.3078 11.3872 46.0321C11.3965 45.1896 11.4028 44.7699 11.4121 43.9275C11.7447 43.8311 11.9095 43.7845 12.2421 43.6912C12.2794 40.8373 12.2981 39.4104 12.3354 36.5565C12.0028 36.5472 11.838 36.5409 11.5053 36.5316C11.5147 35.6891 11.5209 35.2694 11.5302 34.4269C14.3592 34.4176 15.7737 34.4114 18.6059 34.4052C18.5841 35.6394 18.5748 36.258 18.553 37.4922C17.8566 37.5358 17.5085 37.5575 16.809 37.6041C16.7717 37.085 16.753 36.8238 16.7157 36.3016C16.2059 36.3233 15.9509 36.3326 15.4411 36.3544C15.1085 36.3917 14.9406 36.4135 14.6079 36.4539C14.5924 37.4487 14.5862 37.9461 14.5706 38.9409C15.3976 38.8601 15.811 38.8228 16.638 38.7482C16.6256 39.5036 16.6193 39.8829 16.6069 40.6415C15.78 40.7472 15.3665 40.8 14.5395 40.915C14.5271 41.8539 14.5178 42.3233 14.5053 43.2622C14.838 43.2249 15.0028 43.2062 15.3354 43.172C15.895 43.0694 16.1748 43.0228 16.7344 42.9264C16.7872 42.401 16.8152 42.1399 16.868 41.6176C17.5644 41.515 17.9126 41.4684 18.609 41.372V41.3627Z" fill="white"/>
<path d="M26.9378 39.8798C26.9161 41.1637 26.9036 41.8042 26.8819 43.0881C23.9907 43.458 22.5451 43.6819 19.6694 44.2166C19.6819 43.5047 19.6881 43.1472 19.7005 42.4352C20.0332 42.3606 20.201 42.3264 20.5368 42.2549C20.5803 39.8363 20.6021 38.6238 20.6456 36.2052C20.313 36.1959 20.1451 36.1896 19.8124 36.1803C19.8249 35.4684 19.8311 35.1109 19.8435 34.399C21.4197 34.3959 22.2093 34.3928 23.7855 34.3896C23.7731 35.0549 23.7668 35.3876 23.7544 36.0529C23.4187 36.0839 23.2539 36.0995 22.9181 36.1306C22.8746 38.456 22.856 39.6187 22.8124 41.9441C23.1451 41.9223 23.313 41.9099 23.6487 41.8881C24.2176 41.8166 24.5005 41.7824 25.0694 41.714C25.1378 41.0363 25.172 40.7005 25.2373 40.0259C25.9181 39.9637 26.257 39.9358 26.9347 39.8798H26.9378Z" fill="white"/>
<path d="M36.7804 40.7876C36.7742 41.3565 36.7742 41.6425 36.7679 42.2114C35.2477 42.2891 34.4861 42.3357 32.9659 42.457C32.9721 41.8694 32.9783 41.5772 32.9845 40.9896C33.2457 40.9585 33.3731 40.943 33.6343 40.915C33.5348 40.6539 33.485 40.5233 33.3887 40.2622C32.2322 40.3274 31.6571 40.3648 30.5037 40.4487C30.4042 40.7254 30.3514 40.8653 30.2519 41.1451C30.5254 41.142 30.6622 41.1388 30.9389 41.1357C30.9296 41.7357 30.9265 42.0342 30.9172 42.6342C29.4809 42.771 28.7628 42.8518 27.3296 43.029C27.3389 42.401 27.3451 42.087 27.3576 41.4591C27.6684 41.4062 27.8239 41.3813 28.1348 41.3316C28.9617 39.1243 29.3752 38.0518 30.199 35.9565C29.8011 35.9347 29.599 35.9254 29.2011 35.9067C29.2104 35.2943 29.2166 34.9865 29.226 34.3741C30.9203 34.3741 31.7659 34.371 33.4602 34.3679C34.4581 36.9855 34.9617 38.2601 35.9752 40.7751C36.3016 40.7751 36.4633 40.7813 36.7897 40.7844L36.7804 40.7876ZM32.9099 38.9378C32.7731 38.5741 32.7047 38.3907 32.5679 38.0269C32.3348 37.3523 32.1545 36.7274 31.999 36.1461C31.8249 36.8736 31.626 37.5109 31.4021 38.0736C31.2591 38.4559 31.1876 38.6456 31.0446 39.0311C31.7907 38.9907 32.1638 38.972 32.9099 38.9378Z" fill="white"/>
<path d="M49.4513 40.7783C49.4576 41.3472 49.4576 41.6301 49.4638 42.199C47.9622 42.1275 47.2099 42.0995 45.7083 42.0715C45.7083 41.5119 45.7083 41.2321 45.7021 40.6726C45.9788 40.6601 46.1156 40.6539 46.3892 40.6415C46.3798 38.8694 46.3767 37.9803 46.3705 36.2083C45.6368 38.5555 45.2669 39.7213 44.5177 42.0529C43.6503 42.0435 43.2151 42.0435 42.3446 42.0498C41.5705 39.7181 41.1881 38.5555 40.4265 36.2176C40.4202 37.9834 40.4171 38.8694 40.4078 40.6352C40.6969 40.6477 40.8431 40.6539 41.1353 40.6694C41.1353 41.229 41.1353 41.5088 41.1322 42.0653C39.6337 42.0902 38.8876 42.1119 37.3892 42.1803C37.3923 41.6145 37.3954 41.3285 37.4016 40.7627C37.7684 40.7254 37.9519 40.7099 38.3187 40.6757C38.3311 38.7389 38.3373 37.7689 38.3529 35.8321C38.0078 35.8135 37.8368 35.8042 37.4918 35.7824C37.4949 35.2166 37.498 34.9337 37.5042 34.3648C39.3601 34.3648 40.2866 34.3648 42.1425 34.3648C42.5902 36.0498 42.814 36.8922 43.2679 38.5803C43.3301 38.8104 43.4327 39.1617 43.5477 39.6342C43.669 39.2114 43.7311 39.0031 43.8524 38.5803C44.2938 36.8953 44.5114 36.0529 44.9467 34.3648C46.7218 34.3648 47.6078 34.3648 49.383 34.3648C49.3892 34.9337 49.3892 35.2166 49.3954 35.7855C49.0565 35.8042 48.8855 35.8135 48.5467 35.8352C48.5622 37.7751 48.5684 38.7482 48.5809 40.6881C48.9291 40.7223 49.1 40.7409 49.4482 40.7751L49.4513 40.7783Z" fill="white"/>
<path d="M53.5681 39.4974C53.5744 40.0788 53.5806 40.371 53.5868 40.9555C53.9225 40.9959 54.0904 41.0176 54.4262 41.0612C54.4355 41.6549 54.4386 41.9503 54.4479 42.541C52.8562 42.4011 52.0604 42.3451 50.4687 42.2549C50.4624 41.6829 50.4593 41.3969 50.4562 40.8249C50.792 40.8249 50.9598 40.8218 51.2956 40.8218C51.2738 38.8353 51.2645 37.8435 51.2427 35.8601C50.907 35.8384 50.7422 35.8259 50.4065 35.8042C50.4003 35.2321 50.3972 34.9461 50.394 34.3741C51.9702 34.3741 52.7598 34.3741 54.336 34.3772C54.9298 34.3772 55.3992 34.3928 55.7505 34.4145C56.4655 34.4581 57.1308 34.6228 57.4013 34.828C57.5412 34.9244 57.6718 35.086 57.7744 35.3161C57.9826 35.77 58.0044 36.2083 58.02 37.085C58.0324 37.7565 58.0137 38.1451 57.9049 38.5399C57.7961 38.9347 57.6842 39.1337 57.3484 39.3171C57.0345 39.4881 56.7298 39.5503 56.0832 39.572C55.4645 39.5907 54.8769 39.5658 53.8479 39.513C53.736 39.5068 53.6801 39.5036 53.5681 39.4974ZM55.4987 36.0902C55.2811 35.913 54.964 35.8788 54.1402 35.8663C53.8914 35.8757 53.7671 35.8819 53.5215 35.8912C53.5339 36.743 53.537 37.1689 53.5495 38.0176C53.6614 38.0207 53.7174 38.0239 53.8293 38.027C54.1402 38.0394 54.2925 38.0456 54.6034 38.0581C54.9578 38.0581 55.3619 38.0083 55.4769 37.9524C55.7039 37.7845 55.763 37.5389 55.7412 37.0042C55.7194 36.4477 55.7257 36.2705 55.4987 36.0871V36.0902Z" fill="white"/>
<path d="M67.3273 42.5223L67.3583 44.3223C65.8537 44.0363 65.0982 43.9057 63.5874 43.6632C63.5749 42.9917 63.5687 42.6529 63.5563 41.9813C63.8143 42 63.9449 42.0093 64.1998 42.028C64.0941 41.7047 64.0381 41.543 63.9324 41.2197C62.7822 41.0829 62.207 41.0176 61.0568 40.8995C60.9666 41.1793 60.92 41.3192 60.8298 41.599C61.1034 41.6487 61.2402 41.6767 61.5169 41.7295C61.5293 42.3793 61.5355 42.7057 61.5449 43.3554C60.1117 43.1503 59.3967 43.057 57.9604 42.8922C57.9511 42.2736 57.9449 41.9658 57.9355 41.3472C58.2464 41.3565 58.3988 41.3627 58.7096 41.372C59.4651 39.3078 59.8412 38.2477 60.5936 36.0653C60.1925 36.0249 59.9936 36.0031 59.5925 35.9627C59.5801 35.3285 59.577 35.0145 59.5646 34.3803C61.2589 34.3803 62.1045 34.3865 63.7988 34.3896C64.7469 37.0259 65.6516 39.6777 66.519 42.342C66.8423 42.4135 67.0039 42.4477 67.3273 42.5223ZM63.4133 39.6124C63.264 39.1772 63.1894 38.9596 63.0402 38.5275C62.7853 37.7347 62.5832 37.0197 62.406 36.3637C62.2568 37.1658 62.0796 37.856 61.8744 38.4466C61.7438 38.8508 61.6817 39.0497 61.5511 39.4508C62.2972 39.513 62.6672 39.544 63.4133 39.6124Z" fill="white"/>
<path d="M75.1431 39.5161C75.1493 39.9295 75.1493 40.1347 75.1555 40.5482C75.1648 41.2632 75.1555 41.8477 75.1524 42.2922C75.1431 43.1969 75.0622 44.1326 74.9286 44.5803C74.8695 44.8135 74.77 45.0218 74.6363 45.2052C74.3534 45.5813 74.1047 45.6497 73.5545 45.6591C73.2809 45.6715 72.9918 45.6342 72.7027 45.5813C72.4135 45.5285 72.0498 45.4601 71.5959 45.3544C71.142 45.2487 70.7659 45.1523 70.4767 45.0746C70.1876 44.9969 69.9078 44.9067 69.6311 44.7762C69.0747 44.4964 68.8198 44.3316 68.5213 43.8715C68.3783 43.6414 68.2571 43.4021 68.1949 43.1782C68.0674 42.7088 67.9368 41.8135 67.8933 40.9958C67.8716 40.5824 67.8653 40.0632 67.8529 39.4166C67.8311 38.142 67.8312 37.4238 67.9182 36.6404C67.9617 36.2549 68.0084 35.9409 68.0674 35.7264C68.198 35.2694 68.5058 34.8249 68.8073 34.6508C68.969 34.5637 69.1835 34.4922 69.4602 34.4176C70.0135 34.2559 70.5203 34.256 71.428 34.256C72.0343 34.256 72.5068 34.2684 72.8425 34.287C73.5327 34.3275 74.198 34.5482 74.4529 34.8124C74.5804 34.9461 74.6985 35.1762 74.7887 35.4933C74.997 36.1119 74.9938 36.6933 75.0063 37.9368C74.1203 37.9337 73.6757 37.9306 72.7897 37.9275C72.7804 37.2155 72.7027 36.799 72.5814 36.6497C72.4664 36.5098 72.0871 36.4228 71.456 36.3948C71.2042 36.3824 71.0115 36.3793 70.8871 36.3855C70.6415 36.3979 70.3462 36.5876 70.2622 36.8083C70.2249 36.9109 70.1783 37.1067 70.1441 37.4021C70.113 37.685 70.1037 37.9834 70.0944 38.2974C70.1037 38.8383 70.1068 39.1057 70.1161 39.6466C70.1317 40.5451 70.1161 40.9554 70.1721 41.5088C70.2249 42.0497 70.2467 42.2238 70.3648 42.5285C70.5451 42.9917 70.8778 43.0819 71.5555 43.2062C72.2115 43.3275 72.4104 43.3679 72.6467 43.0974C72.883 42.8269 72.8985 42.3544 72.8954 41.2632C72.3514 41.1824 72.0809 41.1451 71.5369 41.0674C71.5244 40.2901 71.5182 39.9015 71.5089 39.1243C72.9607 39.2705 73.6881 39.3451 75.1369 39.5098L75.1431 39.5161Z" fill="white"/>
<path d="M81.9139 34.315C82.66 34.3928 83.3564 34.8311 83.6455 35.4031C83.7979 35.6674 83.916 36.1244 84.0248 36.7306C84.1305 37.3182 84.202 38.0021 84.2269 38.7171C84.2518 39.4321 84.2642 40.3928 84.2642 41.5928C84.2642 42.7959 84.2518 43.772 84.2269 44.4777C84.1771 45.8705 83.9533 47.1296 83.658 47.599C83.5212 47.8197 83.288 47.9845 82.9771 48.084C82.6694 48.1834 82.3212 48.1897 81.9606 48.115C81.5999 48.0404 81.1056 47.9037 80.4839 47.714C79.8497 47.5213 79.3523 47.3565 78.9916 47.2166C78.258 46.9306 77.5554 46.3524 77.2507 45.8052C77.1108 45.5254 76.974 45.1088 76.8652 44.571C76.7564 44.0363 76.6911 43.4674 76.66 42.8612C76.629 42.2549 76.6072 41.4467 76.5979 40.4332C76.5885 39.4197 76.5916 38.6145 76.6103 38.0145C76.6476 36.8332 76.8652 35.7078 77.1481 35.2446C77.2974 35.0052 77.5367 34.7938 77.8507 34.6228C78.174 34.4487 78.5315 34.343 78.8953 34.3057C79.2621 34.2715 79.7657 34.2529 80.4124 34.2529C81.059 34.2529 81.5502 34.2715 81.917 34.3119L81.9139 34.315ZM79.9088 36.8425C79.6787 36.8363 79.3554 36.9575 79.2435 37.0415C79.1315 37.1254 78.9637 37.5358 78.9233 37.8156C78.8828 38.0954 78.8424 38.8539 78.8486 39.485C78.8518 39.9886 78.8549 40.2435 78.858 40.7472C78.8611 41.2601 78.8642 41.5151 78.8673 42.028C78.8704 42.6218 78.9233 43.4145 78.9668 43.7068C79.0134 44.0021 79.1844 44.4591 79.2963 44.5772C79.4082 44.6954 79.7222 44.913 79.9585 44.9907C80.3626 45.0871 80.5647 45.1368 80.9689 45.2363C81.2176 45.2798 81.516 45.2021 81.6279 45.1337C81.7398 45.0653 81.8828 44.6518 81.9233 44.3565C81.9637 44.0643 82.0196 43.2187 82.0165 42.5969C82.0165 42.0467 82.0165 41.7731 82.0103 41.2228V39.8674C82.0041 39.227 81.945 38.3658 81.8984 38.0581C81.8549 37.7534 81.7056 37.2902 81.5937 37.1876C81.4818 37.085 81.1678 36.9233 80.9253 36.8985C80.6953 36.8767 80.1481 36.8425 79.9056 36.8394L79.9088 36.8425Z" fill="white"/>
<path d="M10.5977 49.2125C10.5977 49.2125 14.6049 47.7824 21.4723 47.2104L17.179 53.1638L20.6142 55.2218L10.5977 57.2456L14.3189 52.3617L10.5977 49.2125Z" fill="#A80522"/>
<path d="M76.4112 49.2125C76.4112 49.2125 72.404 47.7824 65.5366 47.2104L69.8299 53.1638L66.3947 55.2218L76.4112 57.2456L72.69 52.3617L76.4112 49.2125Z" fill="#A80522"/>
<path d="M17.1792 46.9244C17.1792 46.9244 27.4818 44.0643 46.6538 44.3503C65.8259 44.6363 69.9543 46.9244 69.9543 46.9244V53.1638C69.9543 53.1638 60.3885 50.9316 45.7958 50.9316C31.203 50.9316 17.1792 53.1638 17.1792 53.1638V46.9244Z" fill="#DA1D2D"/>
<path d="M27.2051 47.1606C27.2424 47.428 27.258 47.5586 27.2953 47.8259C26.9222 47.8757 26.7388 47.9005 26.3657 47.9565C26.5243 49.0539 26.602 49.6011 26.7575 50.6985C26.4248 50.7451 26.2569 50.77 25.9243 50.8197C25.7595 49.7254 25.6756 49.1752 25.5108 48.0808C25.1409 48.1368 24.9543 48.1648 24.5813 48.2239C24.5378 47.9596 24.5191 47.8259 24.4756 47.5617C25.5637 47.3876 26.1108 47.3099 27.202 47.1606H27.2051Z" fill="white"/>
<path d="M32.2319 49.8528C31.949 49.7285 31.7127 49.542 31.5262 49.2901C31.3397 49.0383 31.2278 48.7461 31.1936 48.4104C31.1594 48.0746 31.2091 47.7668 31.3428 47.4839C31.4765 47.201 31.6754 46.971 31.9397 46.7938C32.2039 46.6166 32.5024 46.514 32.835 46.486C33.1677 46.458 33.4816 46.5078 33.7708 46.6321C34.0599 46.7596 34.293 46.9523 34.4733 47.2072C34.6537 47.4622 34.7531 47.7575 34.778 48.0933C34.8029 48.429 34.7438 48.7368 34.607 49.0166C34.4702 49.2964 34.2713 49.5233 34.0164 49.6943C33.7583 49.8653 33.4692 49.9648 33.1459 49.9927C32.8226 50.0207 32.5179 49.9741 32.235 49.8497L32.2319 49.8528ZM33.7179 48.9046C33.8702 48.7088 33.9324 48.4601 33.9107 48.1616C33.8858 47.8601 33.7832 47.6238 33.5998 47.4559C33.4164 47.2881 33.1832 47.2166 32.9034 47.2414C32.6205 47.2663 32.3998 47.3782 32.2474 47.571C32.0951 47.7668 32.036 48.0155 32.064 48.3233C32.092 48.6249 32.2008 48.858 32.3842 49.0228C32.5676 49.1876 32.7977 49.2591 33.0775 49.2342C33.3542 49.2093 33.5687 49.1005 33.7179 48.9046Z" fill="white"/>
<path d="M40.5668 49.5419C40.2652 49.029 40.116 48.7741 39.8082 48.2642C39.7274 48.2642 39.687 48.2673 39.6031 48.2704C39.6186 48.7896 39.6279 49.0508 39.6466 49.5699C39.3108 49.5824 39.1429 49.5886 38.8072 49.601C38.7512 48.2269 38.7233 47.5368 38.6704 46.1627C39.2518 46.1409 39.5409 46.1285 40.1222 46.1129C40.402 46.1036 40.6414 46.1471 40.8404 46.2373C41.0393 46.3274 41.1885 46.4549 41.2911 46.6166C41.3906 46.7782 41.4435 46.9616 41.4466 47.1668C41.4497 47.3969 41.3875 47.6021 41.26 47.7824C41.1326 47.9658 40.9398 48.0964 40.688 48.1772C41.0238 48.715 41.1885 48.9824 41.5181 49.5233C41.1388 49.5295 40.9492 49.5326 40.5699 49.5419H40.5668ZM39.5844 47.6767C39.7958 47.6704 39.9015 47.6673 40.1129 47.6611C40.2683 47.658 40.3865 47.6176 40.4611 47.5399C40.5388 47.4622 40.573 47.3565 40.5699 47.2197C40.5668 47.0891 40.5264 46.9865 40.4455 46.915C40.3647 46.8404 40.2466 46.8062 40.088 46.8124C39.8735 46.8186 39.7678 46.8217 39.5533 46.828C39.5657 47.1699 39.5689 47.3378 39.5813 47.6798L39.5844 47.6767Z" fill="white"/>
<path d="M48.5441 49.6104C48.2083 49.5948 48.0405 49.5886 47.7047 49.5762C47.1731 48.7088 46.8995 48.2736 46.3493 47.4124C46.3306 48.2611 46.3182 48.6871 46.2995 49.5358C45.9638 49.5264 45.7959 49.5233 45.457 49.5202C45.4788 48.143 45.4912 47.456 45.513 46.0788C45.8581 46.085 46.0322 46.0881 46.3772 46.0943C46.9368 46.9617 47.2104 47.3938 47.7482 48.2674C47.7793 47.4156 47.7949 46.9896 47.8228 46.1347C48.1679 46.1472 48.342 46.1534 48.6871 46.1689C48.628 47.543 48.6 48.2332 48.541 49.6073L48.5441 49.6104Z" fill="white"/>
<path d="M53.6642 47.1575C53.6424 47.4342 53.63 47.5741 53.6051 47.8508C54.0621 47.8881 54.2921 47.9098 54.7491 47.9534C54.7243 48.2114 54.7118 48.3389 54.6901 48.5969C54.2362 48.5534 54.0092 48.5347 53.5522 48.4974C53.5274 48.799 53.5149 48.9482 53.4901 49.2497C53.9999 49.2933 54.2579 49.315 54.7678 49.3648C54.7429 49.6321 54.7305 49.7658 54.7056 50.0332C53.8631 49.9523 53.4403 49.9181 52.5947 49.8528C52.7004 48.4819 52.7533 47.7948 52.859 46.4207C53.7263 46.486 54.1616 46.5233 55.0289 46.6072C55.0041 46.8746 54.9916 47.0083 54.9667 47.2756C54.4476 47.2259 54.1864 47.2041 53.6673 47.1606L53.6642 47.1575Z" fill="white"/>
<path d="M59.4339 50.3845C59.1852 50.198 58.9987 49.9617 58.8743 49.6757C58.75 49.3866 58.7096 49.0757 58.75 48.743C58.7935 48.4104 58.9116 48.1182 59.1075 47.8757C59.3033 47.6301 59.5489 47.4529 59.8474 47.341C60.1427 47.2291 60.4598 47.198 60.7893 47.2446C61.122 47.2912 61.4142 47.4125 61.666 47.6021C61.9178 47.7917 62.1044 48.0342 62.2194 48.3234C62.3344 48.6125 62.3655 48.9234 62.3158 49.256C62.2629 49.5886 62.1355 49.8746 61.9365 50.1171C61.7375 50.3596 61.495 50.5337 61.2028 50.6425C60.9137 50.7513 60.609 50.7824 60.2857 50.7358C59.9624 50.6892 59.6795 50.5741 59.4308 50.3876L59.4339 50.3845ZM61.1002 49.8C61.293 49.6446 61.4111 49.4177 61.4577 49.1192C61.5044 48.8177 61.4577 48.5658 61.3147 48.3607C61.1748 48.1555 60.9634 48.0342 60.6836 47.9938C60.4007 47.9534 60.1614 48.0094 59.9686 48.1648C59.7759 48.3202 59.6609 48.5503 59.6204 48.855C59.58 49.1565 59.6298 49.4083 59.7728 49.6104C59.9127 49.8125 60.1241 49.9337 60.4007 49.9741C60.6743 50.0145 60.9075 49.9555 61.1002 49.8Z" fill="white"/>
</svg>
