<svg width="87" height="74" viewBox="0 0 87 74" fill="none" xmlns="http://www.w3.org/2000/svg">
<path d="M53.3098 33.7244L53.2756 32.1295C53.2756 32.1295 54.6062 32.0985 55.9678 31.8871C58.1844 31.5451 58.5264 31.0508 58.5543 31.0042V30.8953L59.4372 27.914L60.9668 28.3679L60.1429 31.1441C60.0093 32.8228 57.345 33.2736 56.4528 33.4228C54.8984 33.684 53.372 33.7213 53.3067 33.7213L53.3098 33.7244Z" fill="#232C64"/>
<path d="M87.0001 52.0819V32.0425H72.2052C72.5565 30.9482 72.7897 29.7948 72.8861 28.5793C73.6477 19.0259 68.3099 12.6093 67.6975 11.9099L66.4104 10.4363L60.37 12.6156C58.3026 5.34405 51.6 0 43.6726 0C35.7451 0 29.0114 5.36581 26.9627 12.6653V12.6187L20.9192 10.4332L19.6321 11.9099C19.0197 12.6093 13.685 19.0259 14.4466 28.5793C14.543 29.7731 14.7637 30.9296 15.1057 32.0425H0L0.307772 51.9917L7.0912 49.8498L10.6694 52.7441L4.14404 61.5327L23.4746 57.398V54.8581C28.1441 54.2332 33.1368 53.9316 37.5047 53.7949C37.8062 54.7368 38.1078 55.7099 38.4031 56.7171C38.4715 56.9503 38.4871 57.0747 38.4902 57.1182C38.4373 57.2923 38.1202 57.6747 37.884 57.9576C37.2964 58.6633 36.2674 59.9037 36.1897 61.6073C34.5886 62.9565 32.8259 64.9866 32.4311 67.2498C32.3285 67.8498 32.3285 68.3969 32.3316 69.1493V71.2912L34.0011 72.056C35.829 72.8954 38.484 73.2498 40.6446 73.3928V73.5296H43.5047C45.1213 73.5296 50.599 73.4177 53.2446 71.9627L54.7275 71.1482V69.1524C54.7275 68.3969 54.7275 67.8498 54.6249 67.2498C54.2332 64.9897 52.4705 62.9596 50.8695 61.6104C50.7886 59.9068 49.7596 58.6695 49.1752 57.9638C48.9389 57.6809 48.6218 57.2985 48.5689 57.1244C48.5721 57.0809 48.5876 56.9596 48.656 56.7234C48.9544 55.7068 49.256 54.7306 49.5607 53.7855C49.7068 53.7917 49.7876 53.7949 49.8 53.7949C55.3399 53.7949 61.9835 54.6218 63.8208 54.8674V57.112L83.2446 61.57L76.6322 52.7565L79.7628 50.3068L86.997 52.085L87.0001 52.0819ZM22.8342 27.9109C22.685 26.0425 22.9182 24.3358 23.3223 22.856C24.2301 23.5524 25.1161 24.0933 25.8125 24.4788C26.0736 25.1969 26.3596 25.9617 26.5865 26.5617C26.7855 27.0902 26.9689 27.5658 27.1026 27.9078C27.1772 28.1005 27.2394 28.2529 27.286 28.3586C27.3109 28.4207 27.3389 28.4829 27.37 28.542C27.8456 29.7451 28.3213 30.9078 28.7938 32.0425H24.4384C23.5461 30.8891 22.9617 29.5119 22.8342 27.9109ZM64.4985 27.9109C64.3741 29.4746 63.7337 30.8643 62.7482 32.0425H58.2778C58.7503 30.9109 59.2228 29.7482 59.7016 28.542C59.7327 28.4767 59.7638 28.4114 59.7949 28.3399C59.857 28.1969 59.941 27.9948 60.0405 27.7492C60.2332 27.2829 60.485 26.6612 60.7368 26.0394C60.9451 25.5264 61.1503 25.0104 61.3213 24.5845C62.0394 24.2021 63.0094 23.6239 64.0104 22.856C64.4146 24.3358 64.6477 26.0425 64.4985 27.9109Z" fill="#232C64"/>
<path d="M43.6728 31.7814C51.6394 31.7814 58.0976 25.3231 58.0976 17.3565C58.0976 9.38983 51.6394 2.93159 43.6728 2.93159C35.7061 2.93159 29.2479 9.38983 29.2479 17.3565C29.2479 25.3231 35.7061 31.7814 43.6728 31.7814Z" fill="black"/>
<mask id="mask0_5_1347" style="mask-type:luminance" maskUnits="userSpaceOnUse" x="30" y="4" width="27" height="27">
<path d="M56.8388 17.4402C56.8845 10.1674 51.0258 4.23452 43.7529 4.18882C36.4801 4.14312 30.5472 10.0019 30.5015 17.2747C30.4558 24.5476 36.3146 30.4804 43.5874 30.5261C50.8603 30.5718 56.7931 24.7131 56.8388 17.4402Z" fill="white"/>
</mask>
<g mask="url(#mask0_5_1347)">
<path d="M39.1677 15.743L34.66 13.4238L34.5667 9.12434L38.9968 5.8259L43.6662 8.36268V12.4601L39.1677 15.743Z" fill="white"/>
<path d="M39.1835 15.9638L34.4736 13.542L34.3772 9.03421L38.9814 5.60519L43.8529 8.2539V12.5565L39.1835 15.9638ZM34.8436 13.3088L39.1493 15.5223L43.4767 12.3669V8.47773L39.0125 6.04975L34.7565 9.22074L34.8436 13.3088Z" fill="black"/>
<path d="M40.8154 21.056L37.5947 24.6591L33.2548 23.6954L29.9564 19.0415L34.66 13.4238L39.1678 15.743L40.8154 21.056Z" fill="white"/>
<path d="M37.6601 24.8643L33.143 23.8601L29.7171 19.029L34.6104 13.1845L39.3202 15.6093L41.0239 21.0995L37.657 24.8612L37.6601 24.8643ZM33.3669 23.5244L37.5265 24.4477L40.6042 21.0062L39.0094 15.8674L34.7068 13.6539L30.1928 19.0446L33.3669 23.5213V23.5244Z" fill="black"/>
<path d="M33.2551 23.6954L30.1867 29.8415L24.0779 28.1223L22.5887 22.4208L25.483 17.3565L29.9566 19.0415L33.2551 23.6954Z" fill="white"/>
<path d="M30.2861 30.0622L23.9223 28.2715L22.3866 22.3928L25.3959 17.1233L30.0747 18.8829L33.4726 23.6736L30.2861 30.0591V30.0622ZM24.2301 27.97L30.0871 29.6176L33.0374 23.7109L29.8353 19.1969L25.5638 17.5896L22.7876 22.4487L24.2301 27.9731V27.97Z" fill="#242125"/>
<path d="M54.0217 23.6954L57.0901 29.8415L63.202 28.1223L64.688 22.4208L61.7937 17.3565L57.3201 19.0415L54.0217 23.6954Z" fill="white"/>
<path d="M56.9906 30.0622L53.801 23.6767L57.1989 18.886L61.8745 17.1264L64.8839 22.3959L63.3512 28.2746L56.9875 30.0653L56.9906 30.0622ZM54.2393 23.7109L57.1896 29.6176L63.0466 27.97L64.4891 22.4456L61.7129 17.5865L57.4414 19.1938L54.2393 23.7078V23.7109Z" fill="#242125"/>
<path d="M46.9743 21.056L49.6852 24.6591L54.022 23.6954L57.3142 19.0415L52.6324 13.4238L48.1806 15.743L46.9743 21.056Z" fill="white"/>
<path d="M49.6074 24.8674L46.7722 21.0995L48.0188 15.6156L52.6821 13.1876L57.5536 19.0321L54.137 23.8632L49.6105 24.8705L49.6074 24.8674ZM47.1763 21.0125L49.7629 24.4477L53.9131 23.5244L57.081 19.0477L52.5857 13.657L48.3453 15.8643L47.1763 21.0093V21.0125Z" fill="black"/>
<path d="M34.5668 9.12434L30.8704 6.8145V2.64558L36.2207 -0.730587L39.8767 3.1803L38.9969 5.8259L34.5668 9.12434Z" fill="white"/>
<path d="M34.5763 9.35442L30.681 6.92022V2.54302L36.252 -0.973048L40.0882 3.13369L39.1556 5.94095L39.109 5.97515L34.5763 9.35131V9.35442ZM31.0571 6.71193L34.5577 8.90054L38.8385 5.7109L39.6623 3.22696L36.1898 -0.491182L31.0571 2.74509V6.70882V6.71193Z" fill="black"/>
<path d="M52.6787 9.21139L56.3689 6.8145L56.344 2.64558L50.9937 -0.730587L46.9118 3.1803L48.23 5.8259L52.6787 9.21139Z" fill="white"/>
<path d="M52.6694 9.43836L48.0808 5.94717L46.6819 3.13991L50.972 -0.969935L56.5337 2.53991L56.5586 6.91712L52.6725 9.43836H52.6694ZM48.3762 5.70157L52.685 8.97826L56.1762 6.71194L56.1544 2.74509L51.0155 -0.497396L47.1389 3.21763L48.3762 5.70157Z" fill="black"/>
<path d="M48.1802 15.743L52.6321 13.4238L52.6787 9.21139L48.23 5.8259L43.6663 8.36268V12.4601L48.1802 15.743Z" fill="white"/>
<path d="M48.1647 15.9637L43.4797 12.5565V8.2539L48.2487 5.60208L52.8715 9.11815L52.8217 13.5389L48.1678 15.9637H48.1647ZM43.8528 12.3669L48.1958 15.5223L52.4455 13.3088L52.4922 9.30156L48.2145 6.04664L43.8528 8.47151V12.3637V12.3669Z" fill="black"/>
<path d="M41.1919 30.1461H46.138L49.6852 24.6591L46.9743 21.056H40.8157L37.595 24.6591L41.1919 30.1461Z" fill="white"/>
<path d="M46.2406 30.3358H41.0924L37.3587 24.6436L40.7317 20.8726H47.0675L49.9121 24.6529L46.2406 30.3358ZM41.2944 29.9596H46.0354L49.4551 24.6684L46.8779 21.2456H40.8996L37.8312 24.6777L41.2944 29.9596Z" fill="#242125"/>
<path d="M41.1917 40.2715H46.1378L51.9327 34.4518L46.1378 30.1461H41.1917L35.344 34.4518L41.1917 40.2715Z" fill="white"/>
<path d="M46.2156 40.4612H41.1141L35.055 34.4301L41.1296 29.9596H46.2001L52.2218 34.4301L46.2156 40.4612ZM41.2695 40.085H46.0602L51.6498 34.4736L46.0757 30.3358H41.2539L35.6301 34.4736L41.2695 40.085Z" fill="#242125"/>
<path d="M40.8154 21.056L39.1677 15.743L43.6662 12.4601L48.1802 15.743L46.974 21.056H40.8154Z" fill="white" stroke="white" stroke-width="9" stroke-miterlimit="10"/>
<path d="M29.9563 19.0415L25.4828 17.3565L30.8703 6.81451L34.5667 9.12435L34.66 13.4238L29.9563 19.0415Z" fill="black"/>
<path d="M57.3139 19.0415L61.5481 11.4249L56.3688 6.81451L52.6787 9.2114L52.632 13.4238L57.3139 19.0415Z" fill="black"/>
<path d="M33.2237 23.7233L30.1864 29.8415L35.3439 34.4519L41.1915 30.1461L37.5947 24.6591L33.2237 23.7233Z" fill="black"/>
<path d="M54.0562 23.7233L57.0904 29.8415L51.9329 34.4519L46.0852 30.1461L49.6852 24.6591L54.0562 23.7233Z" fill="black"/>
<path d="M46.9119 3.15233L48.23 5.8259L43.6663 8.36269L38.9969 5.8259L39.8766 3.18031L46.9119 3.15233Z" fill="black"/>
</g>
<path fill-rule="evenodd" clip-rule="evenodd" d="M31.878 32.0643H55.135C56.4718 28.9026 57.8272 25.5296 59.1858 21.6435C60.6189 17.5399 26.4313 17.6891 27.7308 21.4104C29.1173 25.3834 30.507 28.828 31.8749 32.0643H31.878Z" fill="#FFDF66"/>
<path fill-rule="evenodd" clip-rule="evenodd" d="M47.7107 62.8539C48.8205 60.5565 46.091 59.8135 45.7117 57.5783C45.634 57.1275 45.6744 56.6177 45.8827 55.9151C46.0817 55.2405 46.2806 54.5845 46.4796 53.941H40.5231C40.7252 54.5845 40.9242 55.2436 41.12 55.9151C41.3252 56.6177 41.3656 57.1275 41.291 57.5783C40.9117 59.8135 38.1822 60.5565 39.292 62.8539C37.8091 63.7741 35.5521 65.8571 35.2257 67.7379C35.1542 68.1514 35.1666 68.6301 35.1666 69.4602C38.5801 71.027 48.4226 71.0239 51.8361 69.4602C51.8361 68.6301 51.8485 68.1514 51.777 67.7379C51.4506 65.8571 49.1936 63.7741 47.7107 62.8539Z" fill="#FFDF66"/>
<path fill-rule="evenodd" clip-rule="evenodd" d="M59.1856 21.6435C58.5016 23.599 57.3452 26.4031 56.6674 28.3244C50.8322 26.5959 35.9876 26.6798 30.342 28.3244C29.6363 26.3347 28.4394 23.4342 27.7337 21.4104C26.4343 17.6922 60.6187 17.543 59.1887 21.6435H59.1856Z" fill="#FFDF66"/>
<path d="M18.0966 32.0643H21.0437C20.453 30.8953 20.0675 29.5865 19.9494 28.1378C19.5857 23.5959 21.1121 19.8964 22.3463 17.714C24.1587 20.7078 28.0199 22.4145 28.2313 22.5047L29.3038 20.0332C27.8831 19.4145 24.1805 17.2383 24.1183 14.6456L21.7587 13.7938C21.5473 14.0363 16.5888 19.8218 17.2696 28.3523C17.3753 29.686 17.6644 30.9233 18.0997 32.0643H18.0966Z" fill="#FFDF66"/>
<path d="M64.9247 17.714C66.1589 19.8995 67.6822 23.599 67.3216 28.1378C67.2065 29.5679 66.7899 30.8767 66.1464 32.0643H69.1215C69.5941 30.9109 69.9019 29.6736 70.0076 28.3523C70.6884 19.8218 65.7298 14.0363 65.5184 13.7938L63.1589 14.6456C63.0967 17.2352 58.9526 19.4052 57.5319 20.0238L58.6759 22.8839C58.8873 22.7938 63.1184 20.7078 64.9309 17.7109L64.9247 17.714Z" fill="#FFC63B"/>
<path fill-rule="evenodd" clip-rule="evenodd" d="M55.1348 32.0643C56.4716 28.9026 57.827 25.5296 59.1855 21.6436C53.3783 25.7783 47.3721 25.1285 43.4612 26.2259V32.0643H55.1348Z" fill="#FFC63B"/>
<path fill-rule="evenodd" clip-rule="evenodd" d="M47.7109 62.8539C48.8207 60.5565 46.0912 59.8135 45.7119 57.5783C45.6342 57.1275 45.6746 56.6177 45.8829 55.9151C46.0819 55.2405 46.2808 54.5845 46.4798 53.941H43.4705L43.4767 70.6757C43.4767 70.6757 49.629 70.6757 51.8363 69.4633C51.8363 68.6332 51.8487 68.1545 51.7772 67.741C51.4508 65.8602 49.1938 63.7773 47.7109 62.8571V62.8539Z" fill="#FFC63B"/>
<path fill-rule="evenodd" clip-rule="evenodd" d="M59.1855 21.6435C58.5016 23.599 57.3451 26.4031 56.6674 28.3244C53.7576 27.4601 48.8363 26.1762 43.4612 26.1762V18.5938C51.6809 18.6 59.9037 19.5886 59.1855 21.6435Z" fill="#FFC63B"/>
<path d="M43.7784 11.5306L41.9256 15.2829L37.7815 15.886L40.7815 18.8083L40.0727 22.9368L43.7784 20.9876L47.4841 22.9368L46.7784 18.8083L49.7753 15.886L45.6313 15.2829L43.7784 11.5306Z" fill="#DA1D2D"/>
<path d="M48.7242 24.6435L43.7781 22.0446L38.8351 24.6435L39.7801 19.1378L35.7791 15.2394L41.3097 14.4342L43.7812 9.4228L46.2527 14.4342L51.7833 15.2394L47.7822 19.1378L48.7273 24.6435H48.7242ZM43.7781 19.9368L46.2465 21.2332L45.7739 18.485L47.7698 16.5389L45.0092 16.1378L43.775 13.6383L42.5439 16.1378L39.7832 16.5389L41.7791 18.485L41.3066 21.2332L43.775 19.9368H43.7781Z" fill="#DA1D2D"/>
<path d="M51.6031 24.1803L50.8352 25.7316L49.1223 25.9803L50.3627 27.1896L50.0705 28.8964L51.6031 28.0912L53.1358 28.8964L52.8435 27.1896L54.0808 25.9803L52.3679 25.7316L51.6031 24.1803Z" fill="#FCF09A"/>
<path d="M36.0158 24.1803L36.7837 25.7316L38.4966 25.9803L37.2562 27.1896L37.5484 28.8964L36.0158 28.0912L34.4832 28.8964L34.7754 27.1896L33.535 25.9803L35.251 25.7316L36.0158 24.1803Z" fill="#FCF09A"/>
<path d="M12.6216 43.7378C12.6122 44.5648 12.606 44.9783 12.5936 45.8021C11.3252 46.113 10.6941 46.2777 9.43193 46.6228C9.44126 45.7368 9.44437 45.2954 9.4537 44.4125C9.68686 44.3316 9.80188 44.2943 10.035 44.2135C10.063 41.4498 10.0786 40.0663 10.1065 37.3026C9.53452 40.4985 8.97805 43.6974 8.43401 46.8995C7.70654 47.1047 7.3397 47.2104 6.61535 47.4249C6.07753 44.1793 5.55214 40.9337 5.02986 37.685C5.01742 40.7689 5.01121 42.314 5.00188 45.3979C5.24437 45.3669 5.36872 45.3513 5.61121 45.3202C5.6081 46.284 5.60499 46.7658 5.59877 47.7296C4.34903 48.1119 3.72416 48.3109 2.47753 48.7244V46.1378C2.7853 46.0135 2.93763 45.9513 3.2454 45.8301C3.24851 42.9202 3.25162 40.0104 3.25473 37.1005C2.95939 37.0788 2.81328 37.0694 2.51794 37.0477C2.51794 36.0124 2.51794 35.4964 2.51794 34.4612C4.11276 34.4549 4.90861 34.4518 6.50343 34.4425C6.87338 37.2995 7.0568 38.6985 7.42053 41.4373C7.47027 41.8104 7.55421 42.3793 7.64437 43.1409C7.75318 42.4259 7.80603 42.0684 7.91483 41.3596C8.31276 38.5306 8.51173 37.1472 8.91276 34.4332C10.4361 34.427 11.2008 34.4238 12.7242 34.4207C12.7148 35.2477 12.7086 35.6612 12.6962 36.485C12.404 36.5316 12.261 36.5534 11.9687 36.6031C11.9345 39.485 11.9159 40.9244 11.8817 43.8031C12.1739 43.7751 12.32 43.7627 12.6154 43.7347L12.6216 43.7378Z" fill="white"/>
<path d="M21.348 36.1368C21.062 36.1679 20.9159 36.1834 20.6299 36.2176C20.6019 37.8 20.5864 38.5928 20.5584 40.1751C20.5366 40.7472 20.5024 41.2384 20.4682 41.6145C20.3936 42.3793 20.204 43.0974 19.9024 43.5264C19.4455 44.2073 18.6372 44.6021 17.2631 44.8912C15.8859 45.1803 15.1024 45.1088 14.6486 44.5368C14.5118 44.3627 14.3999 44.086 14.3159 43.7472C14.1449 43.0601 14.1107 42.2798 14.117 40.971C14.1418 39.1741 14.1543 38.2757 14.1822 36.4757C13.8962 36.4632 13.7532 36.457 13.4672 36.4446C13.4796 35.6301 13.4828 35.2259 13.4952 34.4114C14.8537 34.4083 15.5346 34.4052 16.8962 34.4021C16.8838 35.1606 16.8776 35.5399 16.8651 36.2985C16.5729 36.3326 16.4268 36.3513 16.1377 36.3886C16.1097 38.1109 16.0973 38.9689 16.0693 40.6912C16.0537 41.7358 16.1066 42.3917 16.2434 42.6249C16.3802 42.858 16.7346 42.9295 17.3004 42.8332C17.8662 42.7368 18.2144 42.5503 18.3574 42.2829C18.5035 42.0156 18.5905 41.3689 18.6061 40.3772C18.6341 38.7389 18.6496 37.9213 18.6776 36.286C18.3885 36.2736 18.2423 36.2674 17.9501 36.258C17.9626 35.515 17.9688 35.1451 17.9812 34.4021C19.3398 34.399 20.0206 34.3959 21.3822 34.3928C21.3698 35.0891 21.3636 35.4373 21.3512 36.1337L21.348 36.1368Z" fill="white"/>
<path d="M30.0871 35.8974C29.7949 35.9285 29.6488 35.9441 29.3565 35.9721C29.313 38.7171 29.2913 40.0912 29.2446 42.8394C28.4146 42.9327 27.998 42.9824 27.1679 43.0881C26.1016 40.9275 25.5731 39.8083 24.513 37.4612C24.4819 39.1804 24.4664 40.0384 24.4353 41.7576C24.7275 41.7482 24.8736 41.742 25.1659 41.7358C25.1534 42.3886 25.1472 42.712 25.1379 43.3648C23.8633 43.5482 23.226 43.6477 21.9545 43.8622C21.9669 43.1752 21.9731 42.8301 21.9856 42.143C22.2778 42.0747 22.4239 42.0436 22.7161 41.9752C22.7596 39.6405 22.7783 38.4715 22.8218 36.1368C22.5358 36.1244 22.3928 36.1182 22.1068 36.1057C22.1192 35.4187 22.1255 35.0736 22.1379 34.3866C23.3845 34.3866 24.0094 34.3835 25.256 34.3803C26.1824 36.457 26.6488 37.455 27.5814 39.3886C27.6032 38.0363 27.6156 37.3617 27.6405 36.0094C27.3483 35.9907 27.2052 35.9845 26.913 35.9658C26.9255 35.3316 26.9286 35.0114 26.941 34.3772C28.2094 34.3772 28.8436 34.3741 30.112 34.371C30.1027 34.9803 30.0964 35.285 30.0871 35.8912V35.8974Z" fill="white"/>
<path d="M37.5013 40.371C37.4049 40.9492 37.3085 41.2508 37.0412 41.5648C36.7738 41.8788 36.5034 42.0062 35.9935 42.1461C35.4899 42.286 34.9831 42.3296 34.15 42.3917C32.7821 42.4912 32.0982 42.5503 30.7303 42.6871C30.7396 42.084 30.7427 41.7824 30.7521 41.1793C31.0412 41.1358 31.1842 41.1171 31.4733 41.0736C31.5044 39.0125 31.5168 37.9803 31.5479 35.9192C31.2619 35.9067 31.1189 35.9005 30.8298 35.885C30.8391 35.2819 30.8422 34.9803 30.8515 34.3772C32.207 34.3772 32.8847 34.3772 34.2401 34.3741C34.7935 34.3741 35.2443 34.3896 35.5769 34.4176C36.2267 34.4705 36.8453 34.7099 37.1034 35.0083C37.2339 35.1544 37.3396 35.4 37.4329 35.7233C37.5293 36.0466 37.579 36.3917 37.5977 36.771C37.6163 37.1378 37.6225 37.6415 37.6194 38.2788C37.6132 39.2176 37.5914 39.7897 37.492 40.371H37.5013ZM33.9945 40.9368C33.9945 40.9368 34.0132 40.9368 34.0287 40.9368C34.3241 40.9182 34.5448 40.9026 34.6971 40.8871C34.9987 40.8529 35.3344 40.6601 35.4246 40.5078C35.4806 40.427 35.5272 40.2746 35.5707 40.0477C35.6173 39.8083 35.636 39.5751 35.6422 39.3669C35.6484 39.1555 35.6578 38.8011 35.664 38.3378C35.6702 37.884 35.664 37.5389 35.664 37.3181C35.6578 36.8643 35.5769 36.3358 35.4588 36.1897C35.4059 36.1119 35.3096 36.0342 35.1666 35.9658C34.8961 35.8228 34.6661 35.8352 34.0909 35.8446C34.0785 35.8446 34.0723 35.8446 34.0598 35.8446C33.8422 35.8601 33.7334 35.8694 33.5158 35.8881C33.4909 37.9088 33.4785 38.9192 33.4505 40.9399C33.6681 40.9399 33.78 40.9399 33.9977 40.9399L33.9945 40.9368Z" fill="white"/>
<path d="M41.2848 35.8104C41.2785 37.7379 41.2754 38.7016 41.2692 40.6291C41.5583 40.6415 41.7044 40.6508 41.9936 40.6632C41.9936 41.2228 41.9936 41.4995 41.9936 42.0591C40.6226 42.0747 39.9386 42.0933 38.5677 42.1462C38.5708 41.5835 38.5739 41.3006 38.577 40.7348C38.8661 40.7068 39.0122 40.6943 39.3013 40.6695C39.3138 38.7296 39.3169 37.7596 39.3293 35.8197C39.0433 35.8042 38.8972 35.7949 38.6112 35.7793C38.6143 35.2135 38.6174 34.9337 38.6205 34.3679C39.9759 34.3679 40.6537 34.3679 42.0091 34.3679C42.0091 34.9275 42.0091 35.2042 42.0091 35.7638C41.7231 35.7824 41.577 35.7917 41.291 35.8104H41.2848Z" fill="white"/>
<path d="M50.6613 40.8187C50.6676 41.3907 50.6707 41.6767 50.6738 42.2487C49.365 42.1772 48.7121 42.1493 47.4033 42.1088C47.4033 41.5462 47.4002 41.2664 47.3971 40.7037C47.6209 40.6943 47.7328 40.6912 47.9567 40.685C47.8665 40.4239 47.823 40.2964 47.7328 40.0353C46.738 40.0104 46.2406 40.0042 45.2458 39.9917C45.1619 40.2405 45.1214 40.3648 45.0375 40.6166C45.2738 40.6353 45.3919 40.6477 45.6282 40.6664V42.0622C44.394 42.0404 43.7753 42.0405 42.5349 42.0498C42.5349 41.4933 42.5349 41.2135 42.5349 40.657C42.8023 40.6384 42.936 40.629 43.2033 40.6104C43.8872 38.6954 44.2292 37.741 44.9038 35.8259C44.5588 35.798 44.3878 35.7855 44.0427 35.7575C44.0427 35.2011 44.0427 34.9213 44.0427 34.3648C45.4976 34.3648 46.2251 34.3648 47.6831 34.3648C48.5847 36.886 49.0385 38.1544 49.9556 40.741C50.2354 40.7689 50.3753 40.7845 50.6582 40.8156L50.6613 40.8187ZM47.2976 38.7327C47.1733 38.3783 47.1111 38.198 46.9867 37.8436C46.7753 37.1907 46.6106 36.5938 46.4676 36.0404C46.3277 36.7244 46.1691 37.3182 45.9826 37.8311C45.8645 38.1824 45.8085 38.3565 45.6904 38.7078C46.3339 38.714 46.6541 38.7171 47.2976 38.7296V38.7327Z" fill="white"/>
<path d="M57.3947 39.6995C57.4133 40.943 57.4258 41.5617 57.4444 42.8052C54.9543 42.5348 53.7076 42.4291 51.2082 42.2798C51.2019 41.7047 51.1988 41.4187 51.1926 40.8467C51.4817 40.8436 51.6247 40.8405 51.9139 40.8374C51.8921 38.8477 51.8797 37.8529 51.8579 35.8601C51.5719 35.8384 51.4258 35.8259 51.1398 35.8073C51.1336 35.2322 51.1304 34.9462 51.1242 34.371C52.4797 34.371 53.1574 34.371 54.5128 34.3741C54.5222 34.9648 54.5253 35.2633 54.5346 35.8539C54.2486 35.8664 54.1056 35.8757 53.8165 35.8881C53.8444 37.9151 53.8569 38.9285 53.8817 40.9524C54.1709 40.9897 54.3139 41.0083 54.603 41.0487C55.0942 41.0829 55.3367 41.1016 55.8279 41.142C55.8683 40.5265 55.8869 40.2187 55.9242 39.6032C56.5087 39.6405 56.8009 39.6591 57.3885 39.6995H57.3947Z" fill="white"/>
<path d="M60.7305 36.0373C60.7709 38.2477 60.7896 39.3544 60.8269 41.5648C61.116 41.6176 61.259 41.6425 61.5481 41.6985C61.5606 42.3482 61.5668 42.6715 61.5761 43.3182C60.2145 43.1254 59.5336 43.0384 58.1658 42.8829C58.1564 42.2674 58.1502 41.9565 58.1409 41.341C58.43 41.3472 58.573 41.3534 58.8621 41.3596C58.8248 39.2114 58.8093 38.1358 58.772 35.9876C58.486 35.9627 58.3399 35.9472 58.0538 35.9223C58.0445 35.3036 58.0383 34.9959 58.029 34.3803C59.3844 34.3803 60.0621 34.3834 61.4176 34.3865C61.43 35.0363 61.4362 35.3596 61.4456 36.0062C61.1595 36.0187 61.0165 36.0249 60.7305 36.0373Z" fill="white"/>
<path d="M66.7054 34.2871C67.2743 34.3088 67.8401 34.5016 68.0484 34.7161C68.1572 34.8187 68.2598 35.0052 68.3406 35.2819C68.5116 35.8042 68.5085 36.2674 68.5271 37.3088C67.7717 37.3275 67.3955 37.3368 66.6401 37.3554C66.6308 36.7834 66.5686 36.4321 66.4691 36.3171C66.3696 36.2021 66.065 36.1368 65.552 36.1181C65.008 36.0995 64.6815 36.1399 64.5758 36.2083C64.4764 36.2736 64.4018 36.5285 64.4266 36.8985C64.4702 37.6352 64.4857 37.6694 66.3945 38.3378C66.7862 38.4653 67.0815 38.571 67.2805 38.6456C67.6847 38.7917 68.1759 39.0777 68.3437 39.3109C68.4214 39.4197 68.4992 39.572 68.58 39.7803C68.751 40.2031 68.7572 40.6104 68.7696 41.3782C68.7852 42.2052 68.7852 42.6591 68.7137 43.1596C68.6422 43.6601 68.5862 43.8591 68.3406 44.0829C68.095 44.3099 67.8774 44.3254 67.4142 44.3192C66.951 44.313 66.494 44.2415 65.6981 44.1016C64.9054 43.9617 64.4484 43.8715 63.9665 43.7161C63.5002 43.5637 63.2577 43.4612 63.0121 43.2C62.779 42.9544 62.6888 42.7213 62.6049 42.286C62.5147 41.8321 62.5147 41.4466 62.4992 40.7192C63.2577 40.7409 63.6339 40.7534 64.3924 40.7814C64.3955 40.9959 64.3986 41.1016 64.4018 41.3161C64.4173 41.5306 64.4981 41.8352 64.5758 41.913C64.6194 41.9596 64.6971 41.9969 64.8059 42.0498C65.036 42.1492 65.1976 42.171 65.667 42.2363C66.8297 42.4042 66.9075 42.2612 66.8795 41.4373C66.8484 40.5948 66.8328 40.5358 65.3872 39.9668C64.9178 39.8114 64.5354 39.6808 64.2401 39.572C63.6712 39.3482 63.1769 39.0187 62.9655 38.7948C62.866 38.6829 62.7665 38.5026 62.695 38.2819C62.5458 37.8218 62.552 37.4953 62.5365 36.6777C62.5303 36.2891 62.5334 35.9876 62.5427 35.7824C62.5613 35.3596 62.723 34.8622 62.9468 34.6943C63.065 34.6042 63.2359 34.514 63.4753 34.4332C63.9603 34.2777 64.5261 34.2497 65.524 34.2497C66.0339 34.2497 66.4287 34.2684 66.7085 34.2777L66.7054 34.2871Z" fill="white"/>
<path d="M76.601 34.4301C76.6197 36.1057 76.629 36.942 76.6446 38.6145C76.0415 38.5586 75.743 38.5306 75.1399 38.4746C75.0871 37.6912 75.0622 37.2995 75.0062 36.5192C74.8819 36.513 74.8166 36.5099 74.6922 36.5036C74.4062 36.5161 74.2632 36.5223 73.9772 36.5347C74.0145 39.3638 74.0332 40.7783 74.0705 43.6073C74.3565 43.6881 74.4995 43.7316 74.7824 43.8156C74.7917 44.6487 74.7979 45.0653 74.8073 45.8985C73.4612 45.5627 72.7896 45.4042 71.4373 45.1057C71.4249 44.3285 71.4187 43.943 71.4062 43.1658C71.6922 43.1938 71.8352 43.2062 72.1181 43.2342C72.0777 40.5171 72.056 39.1586 72.0156 36.4446C71.7295 36.4073 71.5865 36.3886 71.2974 36.3513C71.1793 36.3451 71.1202 36.3451 71.0052 36.3389C70.9741 37.0539 70.9586 37.4114 70.9244 38.1233C70.3213 38.0767 70.0197 38.0549 69.4166 38.0083C69.3917 36.5658 69.3793 35.8477 69.3575 34.4052C72.2518 34.4145 73.6974 34.4176 76.5917 34.4301H76.601Z" fill="white"/>
<path d="M84.5503 46.1379V48.7244C83.285 48.3016 82.6508 48.0995 81.3762 47.714C81.3731 46.7503 81.37 46.2715 81.3638 45.3078C81.5814 45.3389 81.6902 45.3544 81.9109 45.3886C81.8239 44.9223 81.7804 44.6892 81.6933 44.2259C80.7203 44.0052 80.2322 43.8995 79.256 43.6943C79.1783 44.0892 79.1379 44.285 79.0602 44.6767C79.2933 44.7607 79.4083 44.8011 79.6415 44.885C79.6477 45.8114 79.6508 46.2746 79.657 47.2011C78.4508 46.8498 77.8446 46.6819 76.6322 46.3617C76.6228 45.4943 76.6197 45.0622 76.6104 44.198C76.8715 44.2291 77.0052 44.2415 77.2664 44.2726C77.9068 41.4031 78.2301 39.9171 78.8798 36.8239C78.5379 36.7617 78.3669 36.7306 78.0218 36.6715C78.0125 35.7762 78.0094 35.3285 78.0032 34.4332C79.4581 34.4394 80.1855 34.4425 81.6405 34.4487C82.4301 38.2477 83.1576 42.056 83.8695 45.8705C84.1431 45.9762 84.2799 46.029 84.5534 46.1347L84.5503 46.1379ZM81.2643 41.9192C81.1399 41.2943 81.0778 40.9835 80.9565 40.3648C80.7451 39.227 80.5773 38.2073 80.4311 37.2684C80.2975 38.4094 80.142 39.3917 79.9648 40.2311C79.8529 40.8031 79.7969 41.0892 79.685 41.6518C80.3192 41.7575 80.6363 41.8104 81.2674 41.9192H81.2643Z" fill="white"/>
<path d="M10.312 49.2125C10.312 49.2125 14.3192 47.7824 21.1866 47.2104L16.8933 53.1638L20.3285 55.2218L10.312 57.2456L14.0332 52.3617L10.312 49.2125Z" fill="#A80522"/>
<path d="M76.1252 49.2125C76.1252 49.2125 72.118 47.7824 65.2506 47.2104L69.5439 53.1638L66.1086 55.2218L76.1252 57.2456L72.404 52.3617L76.1252 49.2125Z" fill="#A80522"/>
<path d="M16.8935 46.9244C16.8935 46.9244 27.1961 44.0643 46.3681 44.3503C65.5401 44.6363 69.6686 46.9244 69.6686 46.9244V53.1638C69.6686 53.1638 60.1028 50.9317 45.5101 50.9317C30.9173 50.9317 16.8935 53.1638 16.8935 53.1638V46.9244Z" fill="#DA1D2D"/>
<path d="M26.9189 47.1607C26.9562 47.428 26.9717 47.5586 27.009 47.8259C26.636 47.8757 26.4525 47.9006 26.0795 47.9565C26.238 49.0539 26.3157 49.6011 26.4712 50.6985C26.1385 50.7451 25.9707 50.77 25.638 50.8197C25.4733 49.7254 25.3893 49.1752 25.2246 48.0809C24.8546 48.1368 24.6681 48.1648 24.295 48.2239C24.2515 47.9596 24.2328 47.8259 24.1893 47.5617C25.2774 47.3876 25.8246 47.3099 26.9157 47.1607H26.9189Z" fill="white"/>
<path d="M31.9461 49.8529C31.6632 49.7285 31.4269 49.542 31.2404 49.2902C31.0539 49.0384 30.9419 48.7461 30.9077 48.4104C30.8735 48.0746 30.9233 47.7669 31.057 47.484C31.1906 47.2011 31.3896 46.971 31.6539 46.7938C31.9181 46.6166 32.2165 46.514 32.5492 46.486C32.8818 46.4581 33.1958 46.5078 33.4849 46.6322C33.7741 46.7596 34.0072 46.9524 34.1875 47.2073C34.3678 47.4622 34.4673 47.7575 34.4922 48.0933C34.5171 48.429 34.458 48.7368 34.3212 49.0166C34.1844 49.2964 33.9855 49.5233 33.7305 49.6943C33.4725 49.8653 33.1834 49.9648 32.8601 49.9928C32.5368 50.0208 32.2321 49.9741 31.9492 49.8498L31.9461 49.8529ZM33.4321 48.9047C33.5844 48.7088 33.6466 48.4601 33.6248 48.1617C33.6 47.8601 33.4974 47.6239 33.314 47.456C33.1305 47.2881 32.8974 47.2166 32.6176 47.2415C32.3347 47.2664 32.114 47.3783 31.9616 47.571C31.8093 47.7669 31.7502 48.0156 31.7782 48.3233C31.8062 48.6249 31.915 48.8581 32.0984 49.0228C32.2818 49.1876 32.5119 49.2591 32.7917 49.2342C33.0684 49.2094 33.2829 49.1006 33.4321 48.9047Z" fill="white"/>
<path d="M40.2809 49.542C39.9794 49.029 39.8301 48.7741 39.5224 48.2643C39.4415 48.2643 39.4011 48.2674 39.3172 48.2705C39.3327 48.7897 39.3421 49.0508 39.3607 49.57C39.025 49.5824 38.8571 49.5886 38.5213 49.6011C38.4654 48.227 38.4374 47.5368 38.3846 46.1627C38.9659 46.141 39.255 46.1285 39.8364 46.113C40.1162 46.1037 40.3555 46.1472 40.5545 46.2373C40.7535 46.3275 40.9027 46.4549 41.0053 46.6166C41.1048 46.7783 41.1576 46.9617 41.1607 47.1669C41.1638 47.3969 41.1017 47.6021 40.9742 47.7824C40.8467 47.9658 40.654 48.0964 40.4022 48.1772C40.7379 48.7151 40.9027 48.9824 41.2322 49.5233C40.8529 49.5296 40.6633 49.5327 40.284 49.542H40.2809ZM39.2985 47.6767C39.5099 47.6705 39.6156 47.6674 39.827 47.6612C39.9825 47.6581 40.1006 47.6176 40.1752 47.5399C40.2498 47.4622 40.2871 47.3565 40.284 47.2197C40.2809 47.0891 40.2374 46.9866 40.1597 46.915C40.0788 46.8404 39.9607 46.8062 39.8022 46.8125C39.5877 46.8187 39.482 46.8218 39.2706 46.828C39.283 47.17 39.2861 47.3378 39.2985 47.6798V47.6767Z" fill="white"/>
<path d="M48.2582 49.6104C47.9224 49.5948 47.7546 49.5886 47.4188 49.5762C46.8872 48.7088 46.6136 48.2736 46.0634 47.4125C46.0447 48.2612 46.0323 48.6871 46.0136 49.5358C45.6779 49.5265 45.51 49.5233 45.1711 49.5202C45.1929 48.143 45.2053 47.456 45.2271 46.0788C45.5722 46.085 45.7463 46.0881 46.0913 46.0943C46.6509 46.9617 46.9245 47.3938 47.4623 48.2674C47.4934 47.4156 47.509 46.9897 47.5369 46.1347C47.882 46.1472 48.0561 46.1534 48.4012 46.1689C48.3421 47.543 48.3141 48.2332 48.2551 49.6073L48.2582 49.6104Z" fill="white"/>
<path d="M53.3782 47.1575C53.3533 47.4342 53.344 47.5741 53.3192 47.8508C53.7761 47.8881 54.0062 47.9099 54.4632 47.9534C54.4383 48.2114 54.4259 48.3389 54.4041 48.5969C53.9502 48.5534 53.7233 48.5347 53.2663 48.4974C53.2414 48.799 53.229 48.9482 53.2041 49.2497C53.714 49.2933 53.972 49.315 54.4818 49.3648C54.457 49.6321 54.4445 49.7658 54.4197 50.0332C53.5772 49.9523 53.1544 49.9181 52.3088 49.8529C52.4145 48.4819 52.4673 47.7948 52.573 46.4207C53.4404 46.486 53.8756 46.5233 54.743 46.6073C54.7181 46.8746 54.7057 47.0083 54.6808 47.2757C54.1616 47.2259 53.9005 47.2042 53.3813 47.1606L53.3782 47.1575Z" fill="white"/>
<path d="M59.1479 50.3845C58.8992 50.1979 58.7127 49.9617 58.5884 49.6757C58.464 49.3865 58.4236 49.0757 58.464 48.743C58.5075 48.4104 58.6257 48.1181 58.8215 47.8757C59.0174 47.6332 59.263 47.4529 59.5614 47.3409C59.8567 47.229 60.1738 47.1979 60.5034 47.2446C60.836 47.2912 61.1282 47.4124 61.3801 47.6021C61.6319 47.7917 61.8184 48.0342 61.9334 48.3233C62.0485 48.6125 62.0795 48.9233 62.0267 49.256C61.9738 49.5886 61.8464 49.8746 61.6474 50.1171C61.4485 50.3596 61.206 50.5337 60.9137 50.6425C60.6246 50.7513 60.32 50.7824 59.9966 50.7358C59.6733 50.6891 59.3904 50.5741 59.1417 50.3876L59.1479 50.3845ZM60.8143 49.8C61.007 49.6446 61.1251 49.4176 61.1718 49.1192C61.2184 48.8176 61.1718 48.5658 61.0288 48.3606C60.8889 48.1555 60.6775 48.0342 60.3977 47.9938C60.1148 47.9534 59.8754 48.0093 59.6827 48.1648C59.4899 48.3202 59.3749 48.5503 59.3345 48.8549C59.2941 49.1565 59.3438 49.4083 59.4868 49.6104C59.6298 49.8125 59.8381 49.9337 60.1148 49.9741C60.3915 50.0145 60.6215 49.9555 60.8143 49.8Z" fill="white"/>
</svg>
