<svg width="95" height="74" viewBox="0 0 95 74" fill="none" xmlns="http://www.w3.org/2000/svg">
<path d="M94.9999 53.3743V32.1375H76.1421C76.4945 31.0399 76.7283 29.8831 76.825 28.664C77.5889 19.0823 72.2352 12.6467 71.621 11.9451L70.3301 10.4672L64.2718 12.6529C62.1983 5.35988 55.4759 0 47.5249 0C39.574 0 32.8203 5.38171 30.7655 12.7028V12.6561L24.7041 10.4641L23.4132 11.9451C22.799 12.6467 17.4485 19.0823 18.2124 28.664C18.309 29.8613 18.5304 31.0212 18.8734 32.1375H0L0.286858 53.6643L10.832 50.0006L14.4209 52.9035L7.87613 61.7182L27.264 57.5712V55.0238C31.9473 54.397 36.9548 54.0946 41.3356 53.9574C41.6381 54.9022 41.9405 55.8781 42.2367 56.8883C42.3053 57.1222 42.3209 57.2469 42.3241 57.2906C42.271 57.4652 41.953 57.8487 41.716 58.1324C41.1267 58.8402 40.0947 60.0843 40.0167 61.793C38.4109 63.1462 36.643 65.1823 36.247 67.4522C36.1441 68.054 36.1441 68.6028 36.1472 69.3573V71.5056L37.8216 72.2727C39.655 73.1145 42.3178 73.47 44.4848 73.6134V73.7506H47.3534C48.9748 73.7506 54.4688 73.6384 57.1222 72.1791L58.6095 71.3622V69.3604C58.6095 68.6028 58.6095 68.054 58.5066 67.4522C58.1137 65.1854 56.3458 63.1493 54.74 61.7961C54.659 60.0874 53.6269 58.8465 53.0407 58.1387C52.8037 57.8549 52.4857 57.4714 52.4327 57.2968C52.4358 57.2532 52.4514 57.1315 52.52 56.8946C52.8193 55.875 53.1218 54.8959 53.4273 53.948C53.5739 53.9543 53.6549 53.9574 53.6674 53.9574C59.2237 53.9574 65.887 54.7868 67.7297 55.0331V57.2843L87.2111 61.7556L80.5791 52.916L83.7189 50.459L94.9937 53.3837L94.9999 53.3743ZM26.6248 27.9905C26.4751 26.1166 26.709 24.4048 27.1143 22.9206C28.0248 23.619 28.9134 24.1616 29.6119 24.5482C29.8738 25.2685 30.1606 26.0355 30.3883 26.6373C30.5878 27.1673 30.7718 27.6444 30.9058 27.9874C30.9807 28.1807 31.043 28.3335 31.0898 28.4395C31.1148 28.5019 31.1428 28.5642 31.174 28.6235C31.6511 29.8301 32.1281 30.9963 32.6021 32.1343H28.2337C27.3388 30.9776 26.7526 29.5963 26.6248 27.9905ZM68.4126 27.9905C68.2878 29.5589 67.6455 30.9526 66.6571 32.1343H62.1734C62.6473 30.9994 63.1213 29.8332 63.6014 28.6235C63.6326 28.558 63.6638 28.4925 63.695 28.4208C63.7573 28.2774 63.8415 28.0747 63.9413 27.8284C64.1346 27.3607 64.3872 26.7371 64.6397 26.1134C64.8486 25.599 65.0544 25.0814 65.2259 24.6542C65.9462 24.2707 66.919 23.6907 67.923 22.9206C68.3284 24.4048 68.5622 26.1166 68.4126 27.9905Z" fill="#232C64"/>
<path d="M47.5343 31.8256C55.5246 31.8256 62.0019 25.3483 62.0019 17.358C62.0019 9.36777 55.5246 2.89039 47.5343 2.89039C39.5441 2.89039 33.0667 9.36777 33.0667 17.358C33.0667 25.3483 39.5441 31.8256 47.5343 31.8256Z" fill="black"/>
<mask id="mask0_5_1179" style="mask-type:luminance" maskUnits="userSpaceOnUse" x="34" y="4" width="27" height="27">
<path d="M60.7409 17.4421C60.7868 10.1477 54.9106 4.19724 47.6162 4.15141C40.3218 4.10558 34.3714 9.98171 34.3256 17.2761C34.2797 24.5705 40.1559 30.521 47.4503 30.5668C54.7447 30.6126 60.6951 24.7365 60.7409 17.4421Z" fill="white"/>
</mask>
<g mask="url(#mask0_5_1179)">
<path d="M43.0162 15.7398L38.495 13.4137L38.4015 9.10149L42.8447 5.79327L47.5248 8.33758V12.4471L43.0162 15.7398Z" fill="white"/>
<path d="M43.0319 15.9612L38.3081 13.5322L38.2115 9.01108L42.8293 5.5719L47.7152 8.22846V12.5438L43.0319 15.9612ZM38.6792 13.2984L42.9976 15.5184L47.3379 12.3536V8.45296L42.8604 6.01778L38.5919 9.19817L38.6792 13.2984Z" fill="black"/>
<path d="M44.6691 21.0685L41.4388 24.6823L37.086 23.7157L33.7778 19.048L38.4954 13.4137L43.0165 15.7398L44.6691 21.0685Z" fill="white"/>
<path d="M41.5039 24.8881L36.9734 23.8809L33.5373 19.0355L38.4451 13.1737L43.1689 15.6057L44.8776 21.1121L41.5008 24.8849L41.5039 24.8881ZM37.1979 23.5442L41.3698 24.4703L44.4567 21.0186L42.8571 15.8645L38.5418 13.6445L34.0144 19.0511L37.1979 23.5411V23.5442Z" fill="black"/>
<path d="M37.086 23.7157L34.0085 29.88L27.8816 28.1557L26.388 22.4373L29.2878 17.358L33.7777 19.048L37.086 23.7157Z" fill="white"/>
<path d="M34.1082 30.1014L27.7256 28.3054L26.1853 22.4092L29.2035 17.1242L33.8961 18.889L37.3041 23.6938L34.1082 30.0983V30.1014ZM28.0343 28.0029L33.9086 29.6555L36.8676 23.7313L33.656 19.2039L29.3719 17.5919L26.5875 22.4653L28.0343 28.0061V28.0029Z" fill="#242125"/>
<path d="M57.914 23.7157L60.9915 29.88L67.1215 28.1557L68.6119 22.4373L65.709 17.358L61.2222 19.048L57.914 23.7157Z" fill="white"/>
<path d="M60.8917 30.1014L57.6926 23.697L61.1006 18.8921L65.7901 17.1273L68.8084 22.4123L67.2712 28.3085L60.8886 30.1045L60.8917 30.1014ZM58.1322 23.7313L61.0912 29.6555L66.9656 28.0029L68.4124 22.4622L65.628 17.5888L61.3438 19.2008L58.1322 23.7281V23.7313Z" fill="#242125"/>
<path d="M50.8425 21.0685L53.5614 24.6823L57.9142 23.7157L61.2162 19.048L56.5204 13.4137L52.0554 15.7398L50.8425 21.0685Z" fill="white"/>
<path d="M53.4863 24.8912L50.6427 21.1121L51.893 15.6119L56.5701 13.1767L61.456 19.0386L58.0293 23.884L53.4895 24.8943L53.4863 24.8912ZM51.048 21.0248L53.6422 24.4702L57.8048 23.5442L60.9821 19.0542L56.4734 13.6476L52.2204 15.8614L51.048 21.0217V21.0248Z" fill="black"/>
<path d="M38.4014 9.10149L34.6941 6.7848V2.60353L40.0602 -0.782645L43.727 3.13983L42.8446 5.79327L38.4014 9.10149Z" fill="white"/>
<path d="M38.411 9.33224L34.5041 6.89083V2.50065L40.0916 -1.02583L43.9392 3.09307L43.0038 5.90865L42.9571 5.94295L38.411 9.32912V9.33224ZM34.8814 6.68192L38.3923 8.87701L42.6858 5.67792L43.5121 3.18661L40.0292 -0.542541L34.8814 2.70332V6.6788V6.68192Z" fill="black"/>
<path d="M56.5672 9.18879L60.2683 6.7848L60.2433 2.60353L54.8772 -0.782645L50.7833 3.13983L52.1053 5.79327L56.5672 9.18879Z" fill="white"/>
<path d="M56.5579 9.41643L51.9557 5.91489L50.5526 3.09931L54.8523 -1.02271L60.4305 2.49754L60.4554 6.88771L56.5579 9.41643ZM52.2519 5.66857L56.5735 8.95496L60.075 6.68192L60.0532 2.70333L54.8991 -0.548773L51.0109 3.17726L52.2519 5.66857Z" fill="#242125"/>
<path d="M52.0555 15.7398L56.5205 13.4137L56.5672 9.1888L52.1054 5.79327L47.525 8.33758V12.4471L52.0555 15.7398Z" fill="white"/>
<path d="M52.0368 15.9612L47.3379 12.5438V8.22846L52.1209 5.56878L56.7574 9.09527L56.7076 13.5291L52.0399 15.9612H52.0368ZM47.7121 12.3536L52.0679 15.5184L56.3303 13.2984L56.377 9.27923L52.0866 6.01466L47.7121 8.44672V12.3505V12.3536Z" fill="black"/>
<path d="M45.046 30.1856H50.0067L53.5613 24.6822L50.8424 21.0685H44.6687L41.4384 24.6822L45.046 30.1856Z" fill="white"/>
<path d="M50.1096 30.3758H44.9461L41.2014 24.6667L44.5844 20.8845H50.939L53.792 24.676L50.1096 30.3758ZM45.1488 29.9985H49.9038L53.3336 24.6916L50.7488 21.2587H44.7528L41.6753 24.701L45.1488 29.9985Z" fill="#242125"/>
<path d="M45.0462 40.341H50.0069L55.8189 34.504L50.0069 30.1856H45.0462L39.1812 34.504L45.0462 40.341Z" fill="white"/>
<path d="M50.0849 40.5312H44.9683L38.8912 34.4822L44.9839 29.9985H50.0694L56.109 34.4822L50.0849 40.5312ZM45.1242 40.1539H49.929L55.5352 34.5259L49.9446 30.3758H45.1086L39.4681 34.5259L45.1242 40.1539Z" fill="#242125"/>
<path d="M44.6689 21.0685L43.0164 15.7398L47.525 12.4471L52.0555 15.7398L50.8426 21.0685H44.6689Z" fill="black" stroke="black" stroke-width="2" stroke-miterlimit="10"/>
<path d="M33.7778 19.048L29.2878 17.358L34.6945 6.78479L38.4018 9.10148L38.4953 13.4137L33.7778 19.048Z" fill="black"/>
<path d="M61.2164 19.048L65.4631 11.4088L60.2685 6.78479L56.5674 9.18879L56.5206 13.4137L61.2164 19.048Z" fill="black"/>
<path d="M37.0517 23.7437L34.0085 29.88L39.1813 34.504L45.0463 30.1856L41.4387 24.6822L37.0517 23.7437Z" fill="#242125"/>
<path d="M57.9482 23.7437L60.9914 29.88L55.8186 34.504L49.9536 30.1856L53.5612 24.6822L57.9482 23.7437Z" fill="#242125"/>
<path d="M50.7834 3.11179L52.1055 5.79329L47.5251 8.33759L42.845 5.79329L43.7274 3.13985L50.7834 3.11179Z" fill="black"/>
</g>
<path fill-rule="evenodd" clip-rule="evenodd" d="M35.6952 32.1562H59.0211C60.3619 28.9851 61.7213 25.6021 63.0839 21.7046C64.5213 17.5888 30.2324 17.7384 31.5357 21.4707C32.9264 25.4555 34.3201 28.9103 35.6921 32.1562H35.6952Z" fill="#FFDF66"/>
<path fill-rule="evenodd" clip-rule="evenodd" d="M51.5722 63.0371C52.6854 60.7329 49.9477 59.9877 49.5673 57.7458C49.4894 57.2937 49.5299 56.7823 49.7388 56.0777C49.9384 55.401 50.1379 54.7431 50.3375 54.0977H44.3634C44.566 54.7431 44.7656 55.4042 44.962 56.0777C45.1678 56.7823 45.2083 57.2937 45.1335 57.7458C44.7531 59.9877 42.0155 60.7329 43.1286 63.0371C41.6413 63.96 39.3776 66.0491 39.0502 67.9355C38.9785 68.3502 38.991 68.8304 38.991 69.6629C42.4146 71.2344 52.2863 71.2313 55.7098 69.6629C55.7098 68.8304 55.7223 68.3502 55.6506 67.9355C55.3232 66.0491 53.0595 63.96 51.5722 63.0371Z" fill="#FFDF66"/>
<path fill-rule="evenodd" clip-rule="evenodd" d="M63.0837 21.7046C62.3978 23.6658 61.2379 26.4783 60.5581 28.4052C54.7056 26.6716 39.817 26.7558 34.1547 28.4052C33.4469 26.4097 32.2465 23.5006 31.5387 21.4707C30.2354 17.7416 64.5211 17.5919 63.0869 21.7046H63.0837Z" fill="#FFDF66"/>
<path d="M21.873 32.1562H24.8289C24.2365 30.9838 23.8498 29.6711 23.7313 28.2181C23.3665 23.6627 24.8975 19.9522 26.1353 17.7634C27.9531 20.766 31.8257 22.4778 32.0377 22.5682L33.1135 20.0894C31.6885 19.4689 27.975 17.2863 27.9126 14.6859L25.546 13.8315C25.334 14.0747 20.3607 19.8774 21.0436 28.4332C21.1496 29.7709 21.4396 31.0118 21.8761 32.1562H21.873Z" fill="#FFDF66"/>
<path d="M68.8396 17.7634C70.0775 19.9553 71.6053 23.6658 71.2436 28.2181C71.1282 29.6524 70.7104 30.9651 70.065 32.1562H73.0489C73.5229 30.9994 73.8316 29.7584 73.9376 28.4332C74.6204 19.8774 69.6472 14.0747 69.4352 13.8315L67.0686 14.6859C67.0062 17.2832 62.8499 19.4596 61.425 20.0801L62.5724 22.9486C62.7844 22.8582 67.028 20.766 68.8459 17.7602L68.8396 17.7634Z" fill="#FFC63B"/>
<path fill-rule="evenodd" clip-rule="evenodd" d="M59.0211 32.1562C60.3618 28.9851 61.7213 25.6021 63.0839 21.7045C57.2594 25.8515 51.2354 25.1998 47.3129 26.3005V32.1562H59.0211Z" fill="#FFC63B"/>
<path fill-rule="evenodd" clip-rule="evenodd" d="M51.5723 63.0371C52.6854 60.7329 49.9478 59.9877 49.5674 57.7458C49.4894 57.2937 49.53 56.7823 49.7389 56.0777C49.9384 55.401 50.138 54.7431 50.3375 54.0977H47.3193L47.3255 70.882C47.3255 70.882 53.4961 70.882 55.7099 69.666C55.7099 68.8335 55.7224 68.3533 55.6506 67.9386C55.3233 66.0522 53.0596 63.9631 51.5723 63.0402V63.0371Z" fill="#FFC63B"/>
<path fill-rule="evenodd" clip-rule="evenodd" d="M63.0839 21.7046C62.3979 23.6658 61.238 26.4782 60.5583 28.4052C57.6398 27.5384 52.704 26.2506 47.3129 26.2506V18.6458C55.557 18.652 63.8041 19.6435 63.0839 21.7046Z" fill="#FFC63B"/>
<path fill-rule="evenodd" clip-rule="evenodd" d="M44.5938 23.856C43.9733 25.6364 37.466 29.0444 36.8268 29.6773C36.1845 27.8658 35.0963 25.2217 34.4509 23.3821C33.2661 19.9959 45.8972 20.1206 44.5938 23.856Z" fill="#FCF09A"/>
<path d="M10.5985 45.1677C10.5891 46.1343 10.586 46.6145 10.5766 47.5811C9.62564 47.8399 9.1517 47.9739 8.20071 48.2483C8.20694 47.235 8.21006 46.7298 8.21941 45.7165C8.39402 45.6416 8.48133 45.6073 8.65594 45.5325C8.68088 42.3521 8.69024 40.7651 8.71518 37.5847C8.27866 41.2109 7.85772 44.8372 7.45238 48.4666C6.90361 48.6287 6.63234 48.7129 6.08357 48.8813C5.68134 45.2176 5.28535 41.5539 4.89248 37.8902C4.88625 40.7463 4.87689 43.6056 4.87066 46.4617C5.05462 46.4492 5.14504 46.443 5.32901 46.4274C5.32589 47.5031 5.32277 48.0394 5.31965 49.1151C4.37801 49.4113 3.90719 49.561 2.97178 49.8759V47.051C3.20251 46.945 3.31788 46.8889 3.55173 46.7828C3.55173 43.59 3.55797 40.3971 3.56109 37.2012C3.33971 37.17 3.22746 37.1575 3.00608 37.1263C3.00608 35.9976 3.00608 35.4332 3.00608 34.3045C4.20652 34.2983 4.8083 34.2952 6.00874 34.292C6.28624 37.5005 6.42343 39.0813 6.69782 42.1962C6.73523 42.6203 6.7976 43.2688 6.86619 44.1356C6.94726 43.3312 6.98779 42.9321 7.07198 42.1339C7.37131 38.9504 7.52409 37.3789 7.82654 34.2858C8.97709 34.2796 9.55081 34.2796 10.6982 34.2733C10.6889 35.2399 10.6858 35.7201 10.6764 36.6867C10.4582 36.7366 10.349 36.7615 10.1276 36.8114L10.0528 45.1895C10.2742 45.1771 10.3833 45.1739 10.6016 45.1615L10.5985 45.1677Z" fill="white"/>
<path d="M13.6383 36.615C13.5978 39.7548 13.579 41.3263 13.5385 44.4661C13.7537 44.4505 13.8597 44.4443 14.0748 44.4287C14.0623 45.3298 14.0561 45.7788 14.0467 46.6799C13.0334 46.9294 12.5283 47.0572 11.5149 47.3254C11.5243 46.3775 11.5305 45.9035 11.5399 44.9588C11.755 44.8808 11.861 44.8434 12.0762 44.7686C12.1073 42.0746 12.1354 39.3806 12.1666 36.6867C11.9514 36.668 11.8423 36.6586 11.6272 36.6399C11.6365 35.692 11.6428 35.2181 11.6521 34.2733C12.6748 34.2702 13.1831 34.2671 14.2058 34.264C14.1933 35.1651 14.1871 35.6141 14.1777 36.5152C13.9626 36.5526 13.8534 36.5744 13.6383 36.6118V36.615Z" fill="white"/>
<path d="M21.1464 36.2252C20.925 36.2657 20.8159 36.2844 20.5976 36.325C20.5478 39.3058 20.4948 42.2866 20.4449 45.2675C19.8244 45.3891 19.5126 45.4546 18.8921 45.5824C18.1157 42.7575 17.7259 41.292 16.9464 38.2426C16.9121 40.4688 16.8966 41.582 16.8623 43.8082C17.0805 43.802 17.1897 43.7989 17.4079 43.7927C17.3954 44.6376 17.3892 45.0617 17.3736 45.9067C16.4226 46.1156 15.9456 46.2247 14.9946 46.4523C15.007 45.5668 15.0133 45.1272 15.0257 44.2416C15.244 44.1637 15.3531 44.1263 15.5714 44.0483C15.615 41.0363 15.6369 39.5303 15.6774 36.5183C15.4623 36.4996 15.3531 36.4934 15.138 36.4746C15.1505 35.5891 15.1567 35.1495 15.1692 34.264C16.1077 34.264 16.5785 34.2609 17.517 34.2577C18.203 36.9548 18.5429 38.255 19.2257 40.7775C19.2538 39.019 19.2694 38.1397 19.2974 36.378C19.0792 36.3562 18.97 36.3437 18.7518 36.3187C18.7643 35.4925 18.7705 35.0778 18.7861 34.2515C19.7433 34.2515 20.2204 34.2484 21.1776 34.2453C21.1651 35.0372 21.1558 35.4332 21.1433 36.2252H21.1464Z" fill="white"/>
<path d="M24.0275 36.1815C23.9807 38.7851 23.9558 40.0853 23.909 42.6889C24.1242 42.6826 24.2333 42.6795 24.4485 42.6733C24.436 43.4216 24.4266 43.7958 24.4142 44.5441C23.3914 44.7156 22.8801 44.806 21.8574 44.9962C21.8698 44.2167 21.8792 43.8269 21.8917 43.0443C22.1068 42.9851 22.2159 42.957 22.4342 42.9009C22.481 40.235 22.5059 38.9005 22.5527 36.2346C22.3376 36.219 22.2284 36.2096 22.0133 36.194C22.0257 35.4145 22.0351 35.0248 22.0476 34.2421C23.0703 34.2421 23.5785 34.239 24.6012 34.2359C24.5888 34.9842 24.5794 35.3584 24.5669 36.1067C24.3518 36.1379 24.2427 36.1535 24.0244 36.1847L24.0275 36.1815Z" fill="white"/>
<path d="M35.3084 41.529C35.2991 42.1775 35.296 42.5018 35.2866 43.1503C34.3169 43.2376 33.8305 43.2844 32.8608 43.3873C32.8701 42.7232 32.8764 42.3895 32.8857 41.7254C33.0635 41.688 33.1539 41.6693 33.3316 41.635C33.3628 39.5397 33.3815 38.492 33.4127 36.3967C32.8888 39.1873 32.6238 40.5998 32.0937 43.4715C31.5325 43.5339 31.2519 43.5682 30.6938 43.6368C30.2416 40.8368 30.0171 39.4149 29.5682 36.5245C29.5307 38.7165 29.512 39.8141 29.4715 42.006C29.6586 42.006 29.7521 42.006 29.9392 42.0123C29.9267 42.7013 29.9205 43.0474 29.908 43.7365C28.9414 43.8612 28.4613 43.9267 27.4978 44.067C27.5103 43.353 27.5165 42.9976 27.529 42.2835C27.7659 42.2274 27.8844 42.1993 28.1214 42.1432C28.165 39.7143 28.1869 38.5014 28.2305 36.0724C28.0091 36.0506 27.8969 36.0412 27.6755 36.0194C27.688 35.3054 27.6942 34.9499 27.7067 34.2359C28.9071 34.2359 29.5089 34.2328 30.7125 34.2297C30.9681 36.2969 31.096 37.3228 31.3548 39.3526C31.3922 39.6301 31.4483 40.051 31.5138 40.6185C31.6011 40.1009 31.6448 39.8421 31.7321 39.3276C32.0501 37.2697 32.2122 36.2502 32.5272 34.2266C33.6777 34.2266 34.2514 34.2266 35.402 34.2234C35.3926 34.872 35.3895 35.1963 35.3801 35.8448C35.1588 35.8729 35.0496 35.8885 34.8283 35.9196C34.7971 38.1584 34.7784 39.2778 34.7472 41.5134C34.9717 41.5227 35.0839 41.5258 35.3053 41.5352L35.3084 41.529Z" fill="white"/>
<path d="M42.2118 35.7513C41.9967 35.7731 41.8876 35.7824 41.6693 35.8043C41.6599 37.1918 41.6537 37.884 41.6412 39.2715C41.6288 39.7704 41.6101 40.1976 41.582 40.5281C41.5352 41.1984 41.3856 41.8033 41.1642 42.1401C40.8181 42.6702 40.2069 42.9165 39.1562 42.982C38.1054 43.0474 37.5067 42.8822 37.1575 42.3677C37.0515 42.2118 36.9736 41.9779 36.9018 41.6942C36.7771 41.1111 36.7428 40.4969 36.7491 39.4524C36.7678 38.0181 36.7771 37.2978 36.7958 35.8635C36.5807 35.8479 36.4715 35.8386 36.2564 35.823C36.2658 35.1807 36.2689 34.8595 36.2782 34.2172C37.3041 34.2172 37.8154 34.2172 38.8412 34.2172C38.835 34.847 38.8319 35.162 38.8257 35.7918C38.6043 35.8136 38.4951 35.8261 38.2769 35.8479C38.2613 37.2604 38.2519 37.9682 38.2363 39.3806C38.227 40.2381 38.2706 40.7837 38.3735 40.9895C38.4796 41.1953 38.7508 41.292 39.178 41.2702C39.6083 41.2483 39.8733 41.1267 39.9824 40.9116C40.0916 40.6964 40.1539 40.157 40.1633 39.3089C40.1758 37.9152 40.182 37.2167 40.1976 35.823C39.9793 35.8043 39.8671 35.798 39.6488 35.7793C39.6551 35.1526 39.6582 34.8408 39.6644 34.2141C40.6902 34.2141 41.2016 34.2141 42.2274 34.2141C42.2243 34.8314 42.2212 35.1401 42.2181 35.7544L42.2118 35.7513Z" fill="white"/>
<path d="M49.1121 35.7294C48.8908 35.7544 48.7816 35.7637 48.5634 35.7887C48.5634 38.5107 48.5665 39.8733 48.5696 42.5953C47.9398 42.5922 47.6248 42.5922 46.9981 42.5953C46.1625 40.3815 45.7478 39.2777 44.9246 37.0577C44.9184 38.651 44.9153 39.4461 44.909 41.0363C45.1304 41.0581 45.2396 41.0675 45.4609 41.0893C45.4609 41.7004 45.4609 42.0029 45.4578 42.614C44.4912 42.6296 44.0079 42.6421 43.0414 42.6733C43.0445 42.059 43.0476 41.7535 43.0507 41.1392C43.2721 41.108 43.3843 41.0924 43.6057 41.0644C43.6182 38.9535 43.6213 37.8996 43.6338 35.7918C43.4186 35.7731 43.3095 35.7637 43.0912 35.7481C43.0944 35.1339 43.0975 34.8283 43.1006 34.2141C44.0391 34.2141 44.5099 34.2141 45.4516 34.2141C46.1718 36.1597 46.5367 37.1263 47.2663 39.0657C47.2663 37.7561 47.2663 37.1045 47.2663 35.7949C47.048 35.77 46.9358 35.7575 46.7175 35.7357C46.7175 35.1277 46.7175 34.8221 46.7175 34.2141C47.6747 34.2141 48.1518 34.2141 49.109 34.2141C49.109 34.8221 49.109 35.1277 49.109 35.7357L49.1121 35.7294Z" fill="white"/>
<path d="M55.08 40.79C55.0176 41.4198 54.949 41.7379 54.7526 42.059C54.5562 42.3802 54.3504 42.4955 53.9731 42.5984C53.5989 42.6982 53.2123 42.6982 52.5856 42.6795C51.5535 42.6452 51.0359 42.6296 50.0039 42.614C50.0039 42.0029 50.0039 41.7004 50.0007 41.0893C50.219 41.0737 50.3281 41.0644 50.5464 41.0488C50.5402 38.9441 50.5339 37.8902 50.5277 35.7855C50.3125 35.7668 50.2034 35.7544 49.9852 35.7357C49.9852 35.1245 49.9852 34.8221 49.982 34.2109C51.0047 34.2109 51.5161 34.2109 52.5357 34.2109C52.9535 34.2109 53.2934 34.2297 53.5428 34.2608C54.0292 34.3201 54.5032 34.5789 54.7027 34.9094C54.8025 35.0684 54.8867 35.3397 54.9646 35.6951C55.0426 36.0506 55.0862 36.431 55.1049 36.8488C55.1237 37.2541 55.1392 37.806 55.1455 38.5045C55.1548 39.5334 55.1455 40.1633 55.0831 40.7931L55.08 40.79ZM52.4422 41.1267C52.4422 41.1267 52.4577 41.1267 52.4671 41.1267C52.6916 41.133 52.8569 41.133 52.9722 41.1267C53.1967 41.1174 53.4493 40.9365 53.5148 40.7806C53.5553 40.6964 53.5896 40.5405 53.6177 40.2973C53.6488 40.0448 53.6582 39.7953 53.6613 39.5708C53.6613 39.3432 53.6644 38.9628 53.6613 38.4639C53.6582 37.9775 53.6519 37.6096 53.6457 37.3695C53.6332 36.88 53.5646 36.3094 53.4711 36.1535C53.4306 36.0693 53.3495 35.982 53.2466 35.9103C53.0408 35.7606 52.8693 35.7606 52.4328 35.7575C52.4234 35.7575 52.4172 35.7575 52.4079 35.7575C52.2426 35.77 52.1615 35.7762 51.9994 35.7918C52.0119 37.9058 52.0181 38.9659 52.0275 41.08C52.1927 41.0987 52.2769 41.108 52.4422 41.1267Z" fill="white"/>
<path d="M58.1608 35.8542C58.1889 38.0492 58.2013 39.1468 58.2294 41.3419C58.4477 41.3762 58.5568 41.3918 58.7751 41.4261C58.7844 42.0653 58.7875 42.3864 58.7969 43.0256C57.7648 42.9445 57.2504 42.9102 56.2183 42.8479C56.212 42.2212 56.2089 41.9094 56.2027 41.2826C56.421 41.2733 56.5301 41.2702 56.7452 41.2608C56.7203 39.0907 56.7109 38.0056 56.686 35.8354C56.4708 35.8136 56.3617 35.8011 56.1435 35.7793C56.1372 35.1526 56.1341 34.8408 56.1279 34.2141C57.1506 34.2141 57.6619 34.2141 58.6815 34.2141C58.6909 34.8533 58.694 35.1744 58.7034 35.8136C58.4882 35.8292 58.3791 35.8386 58.1639 35.8573L58.1608 35.8542Z" fill="white"/>
<path d="M65.5938 42.006C65.6062 42.6951 65.6125 43.0412 65.6249 43.7303C64.6428 43.6056 64.1532 43.5463 63.1679 43.4372C63.1586 42.7668 63.1524 42.4332 63.1399 41.7659C63.3083 41.7659 63.3924 41.7659 63.5577 41.7659C63.486 41.4541 63.4517 41.2951 63.38 40.9833C62.6316 40.9209 62.2606 40.8929 61.5123 40.8399C61.453 41.1298 61.425 41.2764 61.3657 41.5632C61.5435 41.5975 61.6339 41.6163 61.8116 41.6506C61.821 42.3085 61.8272 42.639 61.8366 43.2969C60.9074 43.2033 60.4397 43.1597 59.5074 43.0817C59.498 42.4394 59.4949 42.1151 59.4856 41.4728C59.6851 41.4666 59.788 41.4635 59.9876 41.4572C60.4709 39.2746 60.7109 38.1677 61.1911 35.929C60.9323 35.8916 60.8014 35.876 60.5426 35.8386C60.5332 35.1869 60.5301 34.8626 60.5176 34.2109C61.6152 34.2109 62.1639 34.2109 63.2615 34.2141C63.9786 37.2198 64.3372 38.7539 65.0637 41.8906C65.2757 41.9343 65.3786 41.9561 65.5907 41.9998L65.5938 42.006ZM63.037 39.4181C62.9372 38.9909 62.8873 38.7789 62.7907 38.3548C62.6223 37.5722 62.4882 36.8613 62.3728 36.2065C62.2793 37.0141 62.1671 37.7156 62.0361 38.3174C61.955 38.729 61.9114 38.9348 61.8303 39.3463C62.3136 39.3744 62.5568 39.39 63.0401 39.4181H63.037Z" fill="white"/>
<path d="M70.9381 40.7308C70.9662 42.2461 70.9786 43.0069 71.0067 44.5223C69.139 44.2105 68.2036 44.0702 66.3297 43.8207C66.3172 43.1254 66.311 42.7762 66.2985 42.0809C66.5136 42.0809 66.6228 42.0809 66.841 42.0871C66.7974 39.6675 66.7755 38.4577 66.735 36.035C66.5199 36.007 66.4107 35.9945 66.1925 35.9664C66.18 35.2711 66.1738 34.9219 66.1613 34.2266C67.184 34.2266 67.6922 34.2266 68.715 34.2328C68.7274 34.9562 68.7337 35.3179 68.7461 36.0381C68.531 36.0537 68.4219 36.0631 68.2067 36.0787C68.2504 38.5513 68.2722 39.786 68.319 42.2586C68.5372 42.3085 68.6464 42.3334 68.8615 42.3833C69.2294 42.4301 69.4134 42.4519 69.7813 42.5018C69.8031 41.7504 69.8156 41.3762 69.8374 40.6216C70.2771 40.6653 70.4953 40.6902 70.935 40.737L70.9381 40.7308Z" fill="white"/>
<path d="M73.7133 36.2595C73.7601 38.9597 73.785 40.3098 73.8318 43.01C74.0469 43.0693 74.156 43.0973 74.3743 43.1566C74.3868 43.9454 74.3961 44.3414 74.4086 45.1334C73.389 44.937 72.8777 44.8434 71.8518 44.6657C71.8394 43.908 71.83 43.5307 71.8175 42.773C72.0327 42.7793 72.1418 42.7824 72.3569 42.7918C72.3102 40.157 72.2852 38.8412 72.2385 36.2065C72.0233 36.1753 71.9142 36.1597 71.6959 36.1285C71.6835 35.3709 71.6741 34.9936 71.6616 34.2359C72.6843 34.2359 73.1926 34.239 74.2153 34.2421C74.2278 35.0341 74.2371 35.427 74.2496 36.219C74.0344 36.2345 73.9253 36.2439 73.7102 36.2595H73.7133Z" fill="white"/>
<path d="M78.5057 34.1206C78.9298 34.1455 79.3569 34.3887 79.5191 34.635C79.597 34.7535 79.6781 34.9811 79.7405 35.3085C79.8714 35.9321 79.8714 36.484 79.8901 37.725C79.3226 37.7624 79.0389 37.778 78.4714 37.8123C78.4621 37.1232 78.4122 36.7023 78.3373 36.5651C78.2625 36.4279 78.0318 36.3499 77.6483 36.3344C77.2398 36.3188 76.9935 36.3655 76.9155 36.4528C76.8438 36.5308 76.8002 36.8208 76.8064 37.2947C76.8719 38.227 76.8688 38.28 78.2937 39.0065C78.5806 39.153 78.8113 39.2746 78.961 39.3557C79.2634 39.521 79.6376 39.8515 79.7623 40.1228C79.8215 40.2506 79.8808 40.4283 79.94 40.6778C80.0679 41.1766 80.0772 41.6599 80.0897 42.5766C80.1021 43.5619 80.1053 44.1013 80.0554 44.7062C80.0024 45.3111 79.9618 45.5481 79.7779 45.8319C79.5939 46.1156 79.4255 46.1499 79.0857 46.1686C78.7458 46.1873 78.3966 46.1281 77.801 45.9971C77.2055 45.8661 76.8656 45.7757 76.5008 45.6042C76.1579 45.4421 75.9677 45.3174 75.7837 45.0118C75.606 44.7156 75.5405 44.4381 75.4719 43.908C75.4002 43.3499 75.397 42.8853 75.3815 41.9967C75.9489 42.006 76.2327 42.0123 76.8002 42.0216C76.8033 42.2804 76.8064 42.4114 76.8095 42.6733C76.822 42.9352 76.8875 43.3031 76.9436 43.3936C76.9779 43.4466 77.0371 43.4965 77.1182 43.5526C77.2803 43.6648 77.4144 43.6835 77.7636 43.749C78.6367 43.9049 78.6959 43.7365 78.6679 42.7388C78.6398 41.7192 78.6086 41.6007 77.5423 41.0145C77.2086 40.8305 76.8937 40.6902 76.6786 40.5655C76.2545 40.3192 75.871 39.9107 75.7151 39.6426C75.6371 39.5085 75.5717 39.2934 75.5093 39.019C75.4002 38.439 75.3939 38.0586 75.3783 37.0577C75.369 36.5838 75.3721 36.2159 75.3783 35.9633C75.3939 35.4395 75.5093 34.8377 75.6746 34.635C75.7619 34.5259 75.8928 34.4105 76.0705 34.317C76.4322 34.1237 76.8594 34.0925 77.614 34.0925C77.9975 34.0925 78.2968 34.1143 78.5057 34.1268V34.1206Z" fill="white"/>
<path d="M86.2696 34.2827C86.2852 36.2002 86.2914 37.1575 86.307 39.0751C85.8549 39.0283 85.6273 39.0065 85.1752 38.9628C85.1346 38.0586 85.1128 37.6034 85.0723 36.7022C84.9787 36.696 84.9288 36.696 84.8353 36.6898C84.6201 36.7085 84.511 36.7178 84.2959 36.7365C84.3239 39.4804 84.352 42.2243 84.38 44.9681C84.5952 45.0461 84.7012 45.0835 84.9164 45.1614C84.9257 46.128 84.9288 46.6082 84.9382 47.5748C83.9279 47.3004 83.4228 47.1663 82.4095 46.9107C82.397 45.994 82.3939 45.5356 82.3814 44.6158C82.5965 44.6314 82.7026 44.6376 82.9177 44.6532C82.8803 41.4541 82.8616 39.8546 82.8242 36.6555C82.609 36.6149 82.4999 36.5962 82.2847 36.5557C82.1974 36.5526 82.1538 36.5495 82.0634 36.5463C82.0415 37.3945 82.0291 37.8185 82.0072 38.6604C81.552 38.6198 81.3275 38.6011 80.8723 38.5606C80.8504 36.8394 80.838 35.9789 80.813 34.2577C82.9925 34.264 84.0838 34.2702 86.2633 34.2764L86.2696 34.2827Z" fill="white"/>
<path d="M92.5618 47.0541V49.879C91.6076 49.561 91.1306 49.4082 90.1734 49.1058C90.1702 48.03 90.1671 47.4937 90.164 46.418C90.3293 46.4336 90.4103 46.443 90.5756 46.4617C90.5101 45.9503 90.4758 45.6946 90.4103 45.1864C89.6776 45.018 89.3097 44.9338 88.5769 44.7717C88.5177 45.2238 88.4896 45.4514 88.4304 45.9004C88.605 45.9753 88.6923 46.0127 88.8669 46.0906C88.8731 47.1383 88.8763 47.659 88.8794 48.7067C87.972 48.4323 87.5168 48.2982 86.6063 48.0394C86.6001 47.0416 86.5939 46.5427 86.5876 45.545C86.7841 45.5606 86.8838 45.5668 87.0803 45.5824C87.4919 42.7232 87.8941 39.8608 88.2901 37.0016C88.0313 36.9361 87.9034 36.9049 87.6446 36.8426C87.6384 35.8199 87.6353 35.3116 87.629 34.2889C88.7266 34.292 89.2754 34.2951 90.3698 34.3014C90.9497 38.4764 91.5079 42.6514 92.0473 46.8296C92.2531 46.92 92.356 46.9668 92.5618 47.0572V47.0541ZM90.0861 42.6421C89.9925 41.9499 89.9457 41.6038 89.8522 40.9178C89.6932 39.655 89.5653 38.5138 89.4562 37.4631C89.3564 38.7508 89.2379 39.8608 89.1039 40.8118C89.0197 41.4635 88.976 41.7878 88.8918 42.4301C89.3689 42.5111 89.6059 42.5548 90.0829 42.639L90.0861 42.6421Z" fill="white"/>
<path d="M14.3491 49.3552C14.3491 49.3552 18.3682 47.9209 25.2559 47.3472L20.9499 53.3182L24.3953 55.3823L14.3491 57.4122L18.0814 52.5138L14.3491 49.3552Z" fill="#A80522"/>
<path d="M80.3607 49.3552C80.3607 49.3552 76.3416 47.9209 69.4539 47.3472L73.7598 53.3182L70.3144 55.3823L80.3607 57.4122L76.6284 52.5138L80.3607 49.3552Z" fill="#A80522"/>
<path d="M20.9504 47.0603C20.9504 47.0603 31.2835 44.1918 50.5123 44.4786C69.7412 44.7655 73.8819 47.0603 73.8819 47.0603V53.3182C73.8819 53.3182 64.2878 51.0795 49.6518 51.0795C35.0158 51.0795 20.9504 53.3182 20.9504 53.3182V47.0603Z" fill="#DA1D2D"/>
<path d="M31.0087 47.2973C31.0461 47.5655 31.0617 47.6964 31.0991 47.9646C30.725 48.0145 30.541 48.0394 30.1669 48.0955C30.3259 49.1962 30.4038 49.745 30.5597 50.8456C30.2261 50.8924 30.0577 50.9173 29.7241 50.9672C29.5588 49.8697 29.4747 49.3178 29.3094 48.2202C28.9384 48.2764 28.7513 48.3044 28.3771 48.3637C28.3335 48.0986 28.3147 47.9646 28.2711 47.6995C29.3624 47.5249 29.9112 47.447 31.0056 47.2973H31.0087Z" fill="white"/>
<path d="M36.0506 49.9975C35.7669 49.8728 35.5299 49.6857 35.3428 49.4332C35.1558 49.1806 35.0435 48.8875 35.0092 48.5508C34.9749 48.214 35.0248 47.9053 35.1589 47.6216C35.293 47.3378 35.4925 47.1071 35.7575 46.9294C36.0226 46.7517 36.3219 46.6488 36.6555 46.6207C36.9892 46.5926 37.3041 46.6425 37.5941 46.7672C37.884 46.8951 38.1179 47.0884 38.2987 47.3441C38.4796 47.5998 38.5794 47.896 38.6043 48.2327C38.6292 48.5695 38.57 48.8781 38.4328 49.1588C38.2956 49.4394 38.0961 49.667 37.8404 49.8385C37.5816 50.01 37.2916 50.1098 36.9673 50.1378C36.6431 50.1659 36.3375 50.1191 36.0538 49.9944L36.0506 49.9975ZM37.5411 49.0465C37.6938 48.8501 37.7562 48.6006 37.7344 48.3013C37.7094 47.9989 37.6065 47.7619 37.4226 47.5935C37.2386 47.4251 37.0048 47.3534 36.7241 47.3784C36.4404 47.4033 36.219 47.5156 36.0662 47.7089C35.9134 47.9053 35.8542 48.1548 35.8823 48.4634C35.9103 48.7659 36.0195 48.9997 36.2034 49.165C36.3874 49.3303 36.6181 49.402 36.8987 49.377C37.1762 49.3521 37.3914 49.243 37.5411 49.0465Z" fill="white"/>
<path d="M44.41 49.6857C44.1076 49.1712 43.9579 48.9156 43.6492 48.4042C43.5681 48.4042 43.5276 48.4073 43.4434 48.4105C43.459 48.9312 43.4684 49.1931 43.4871 49.7138C43.1503 49.7263 42.982 49.7325 42.6452 49.745C42.5891 48.3668 42.561 47.6746 42.508 46.2964C43.0911 46.2746 43.3811 46.2621 43.9641 46.2465C44.2448 46.2372 44.4848 46.2808 44.6844 46.3713C44.8839 46.4617 45.0336 46.5895 45.1365 46.7517C45.2363 46.9138 45.2893 47.0978 45.2924 47.3036C45.2955 47.5343 45.2332 47.7401 45.1053 47.9209C44.9775 48.1049 44.7842 48.2358 44.5316 48.3169C44.8684 48.8563 45.0336 49.1245 45.3641 49.667C44.9837 49.6733 44.7935 49.6764 44.4131 49.6857H44.41ZM43.4247 47.8149C43.6367 47.8087 43.7428 47.8056 43.9548 47.7993C44.1107 47.7962 44.2292 47.7557 44.304 47.6777C44.3819 47.5998 44.4162 47.4938 44.4131 47.3566C44.41 47.2256 44.3664 47.1227 44.2884 47.051C44.2073 46.9762 44.0889 46.9419 43.9298 46.9481C43.7147 46.9543 43.6087 46.9575 43.3967 46.9637C43.4091 47.3067 43.4122 47.475 43.4247 47.818V47.8149Z" fill="white"/>
<path d="M52.4107 49.7543C52.074 49.7387 51.9056 49.7325 51.5688 49.72C51.0357 48.8501 50.7613 48.4136 50.2094 47.5499C50.1907 48.4011 50.1782 48.8283 50.1595 49.6795C49.8227 49.6701 49.6544 49.667 49.3145 49.6639C49.3363 48.2826 49.3488 47.5935 49.3706 46.2122C49.7167 46.2185 49.8913 46.2216 50.2374 46.2278C50.7987 47.0978 51.0731 47.5312 51.6125 48.4073C51.6437 47.553 51.6593 47.1258 51.6873 46.2684C52.0334 46.2808 52.208 46.2871 52.5541 46.3027C52.4949 47.6808 52.4668 48.373 52.4076 49.7512L52.4107 49.7543Z" fill="white"/>
<path d="M57.5462 47.2942C57.5244 47.5717 57.5119 47.712 57.487 47.9895C57.9453 48.0269 58.1761 48.0487 58.6344 48.0924C58.6095 48.3512 58.597 48.479 58.5752 48.7378C58.1199 48.6942 57.8923 48.6755 57.434 48.6381C57.409 48.9405 57.3966 49.0902 57.3716 49.3926C57.883 49.4363 58.1418 49.4581 58.6531 49.508C58.6282 49.7761 58.6157 49.9102 58.5908 50.1784C57.7458 50.0973 57.3217 50.063 56.4736 49.9975C56.5796 48.6225 56.6326 47.9334 56.7387 46.5552C57.6086 46.6207 58.0451 46.6581 58.915 46.7423C58.8901 47.0104 58.8776 47.1445 58.8527 47.4127C58.332 47.3628 58.0701 47.341 57.5493 47.2973L57.5462 47.2942Z" fill="white"/>
<path d="M63.3333 50.5307C63.0839 50.3436 62.8968 50.1066 62.7721 49.8198C62.6473 49.5298 62.6068 49.218 62.6473 48.8844C62.691 48.5507 62.8095 48.2576 63.0059 48.0144C63.2023 47.7712 63.4487 47.5904 63.748 47.4781C64.0442 47.3659 64.3622 47.3347 64.6928 47.3815C65.0264 47.4282 65.3195 47.5498 65.572 47.74C65.8246 47.9302 66.0117 48.1735 66.127 48.4634C66.2424 48.7534 66.2736 49.0652 66.2206 49.3988C66.1676 49.7325 66.0397 50.0193 65.8402 50.2625C65.6406 50.5057 65.3974 50.6803 65.1043 50.7895C64.8144 50.8986 64.5088 50.9298 64.1845 50.883C63.8602 50.8362 63.5765 50.7209 63.3271 50.5338L63.3333 50.5307ZM65.0046 49.9445C65.1979 49.7886 65.3164 49.561 65.3631 49.2616C65.4099 48.9592 65.3631 48.7066 65.2197 48.5008C65.0794 48.2951 64.8674 48.1735 64.5867 48.1329C64.303 48.0924 64.0629 48.1485 63.8696 48.3044C63.6763 48.4603 63.5609 48.691 63.5204 48.9966C63.4798 49.2991 63.5297 49.5516 63.6732 49.7543C63.8135 49.957 64.0255 50.0786 64.303 50.1191C64.5805 50.1596 64.8112 50.1004 65.0046 49.9445Z" fill="white"/>
</svg>
