<svg width="276" height="57" viewBox="0 0 276 57" fill="none" xmlns="http://www.w3.org/2000/svg">
<g clip-path="url(#clip0_6_1759)">
<path d="M68.3408 21.0895H59.0086V24.5194H66.5788V29.7418H59.0086V33.3269H68.3408V38.5493H53.7886V15.9024L68.3408 15.8718V21.0942V21.0895Z" fill="#FDFFFC"/>
<path d="M84.5303 38.5471H71.0273V15.8367H76.2498V33.3247H84.5303V38.5471Z" fill="#FDFFFC"/>
<path d="M107.055 15.8391H112.43L113.759 38.5496H108.537L107.982 29.281L104.829 38.5496H99.6069L96.2711 28.9093L95.6524 38.5496H90.3994L91.8509 15.8391H97.2262L102.202 30.0526L107.052 15.8391H107.055Z" fill="#FDFFFC"/>
<path d="M123.955 38.5471C122.8 38.5471 121.708 38.3354 120.68 37.9143C119.65 37.4932 118.735 36.891 117.93 36.1076C117.107 35.2843 116.472 34.3574 116.029 33.3271C115.587 32.2967 115.354 31.1958 115.333 30.0219V15.839H120.555V29.9889C120.555 30.8946 120.894 31.6874 121.574 32.3673C122.254 33.0071 123.056 33.3247 123.983 33.3247C124.435 33.3247 124.867 33.233 125.281 33.0471C125.693 32.8613 126.053 32.6143 126.364 32.3061C126.672 31.9979 126.909 31.638 127.074 31.224C127.239 30.8123 127.321 30.37 127.321 29.8949V15.8367H132.543V29.8643C132.565 31.0381 132.353 32.1508 131.911 33.2024C131.468 34.2539 130.859 35.169 130.088 35.9524C129.316 36.7357 128.408 37.3591 127.368 37.8226C126.328 38.286 125.22 38.5283 124.046 38.5495H123.955V38.5471Z" fill="#FDFFFC"/>
<path d="M148.735 15.8695H153.958V38.5471H148.302L140.887 25.324V38.5471H135.665V15.9307H141.351L148.735 29.1232V15.8672V15.8695Z" fill="#FDFFFC"/>
<path d="M161.34 15.7755C162.843 15.8579 164.259 16.2178 165.589 16.8577C166.918 17.4975 168.07 18.3303 169.049 19.3607C170.028 20.391 170.799 21.5861 171.366 22.9458C171.933 24.3055 172.215 25.7569 172.215 27.3025C172.215 28.8481 171.938 30.2525 171.38 31.5816C170.825 32.9107 170.056 34.0799 169.08 35.0891C168.101 36.0983 166.953 36.9075 165.633 37.5144C164.316 38.1214 162.883 38.4672 161.338 38.5495H156.115V15.7473H161.338V15.7779L161.34 15.7755ZM161.34 33.2942C162.145 33.2118 162.89 33.0001 163.58 32.6614C164.269 32.3226 164.866 31.8898 165.372 31.3628C165.876 30.8382 166.273 30.2242 166.562 29.5256C166.852 28.8245 166.995 28.0835 166.995 27.3001C166.995 26.5168 166.852 25.7287 166.562 24.9995C166.273 24.2678 165.873 23.6186 165.358 23.054C164.843 22.4871 164.245 22.0236 163.565 21.6637C162.886 21.3038 162.145 21.0826 161.34 21.0003V33.2965V33.2942Z" fill="#FDFFFC"/>
<path d="M178.642 38.5471H173.419V15.8367H178.642V38.5471Z" fill="#FDFFFC"/>
<path d="M194.709 38.5471L193.813 35.7971H186.676L185.749 38.5471H180.218L187.944 15.8696H192.886L200.209 38.5471H194.709ZM188.468 30.5747H192.145L190.353 25.0747L188.468 30.5747Z" fill="#FDFFFC"/>
<path d="M215.255 38.5471H201.752V15.8367H206.975V33.3247H215.255V38.5471Z" fill="#FDFFFC"/>
<path d="M222.609 38.5471H217.387V15.8367H222.609V38.5471Z" fill="#FDFFFC"/>
<path d="M232.435 38.98C231.713 38.98 230.998 38.8812 230.287 38.6859C229.577 38.4907 228.902 38.1872 228.264 37.7755C227.152 37.0557 226.286 36.1217 225.67 34.9785C225.051 33.8352 224.743 32.5837 224.743 31.224H229.965C229.965 31.8427 230.099 32.3202 230.367 32.6613C230.636 33.0001 230.871 33.2329 231.078 33.3576C231.449 33.6046 231.849 33.7387 232.282 33.7599C232.715 33.7811 233.136 33.6987 233.548 33.5129C233.837 33.3882 234.068 33.2353 234.244 33.0495C234.418 32.8636 234.552 32.6848 234.646 32.5084C234.738 32.3343 234.795 32.1626 234.816 31.9979C234.837 31.8332 234.846 31.6992 234.846 31.5956C234.846 31.4921 234.837 31.3581 234.816 31.1934C234.795 31.0287 234.738 30.8546 234.646 30.6688C234.555 30.4829 234.421 30.3042 234.244 30.1277C234.068 29.9536 233.837 29.7937 233.548 29.6478C233.322 29.5443 233.08 29.4526 232.821 29.3702C232.562 29.2879 232.289 29.1962 232.002 29.0927C231.487 28.928 230.953 28.7421 230.396 28.5375C229.84 28.3328 229.283 28.0529 228.728 27.7024C228.006 27.2507 227.399 26.6838 226.905 26.0039C226.411 25.324 226.055 24.5924 225.839 23.8091C225.622 23.0257 225.55 22.2188 225.622 21.3837C225.695 20.5486 225.926 19.7511 226.319 18.9889C226.69 18.2879 227.154 17.681 227.709 17.1658C228.264 16.6506 228.883 16.2436 229.563 15.9449C230.243 15.6461 230.974 15.465 231.758 15.4038C232.541 15.3426 233.334 15.4132 234.136 15.6202C234.917 15.8061 235.625 16.1001 236.26 16.5C236.895 16.9023 237.444 17.3869 237.905 17.9515C238.366 18.5184 238.719 19.1512 238.963 19.8523C239.208 20.5533 239.333 21.2849 239.333 22.0471H234.138C234.138 21.5743 233.988 21.2449 233.689 21.0591C233.39 20.8732 233.127 20.7509 232.901 20.6874C232.859 20.6874 232.762 20.6709 232.607 20.6403C232.452 20.6098 232.278 20.6098 232.082 20.6403C231.887 20.6709 231.685 20.7438 231.48 20.8568C231.273 20.9697 231.108 21.1508 230.986 21.3978C230.821 21.7272 230.791 22.073 230.894 22.4329C230.998 22.7928 231.202 23.0775 231.513 23.2821C231.8 23.4468 232.12 23.5974 232.47 23.7291C232.821 23.8632 233.19 23.9926 233.583 24.1149C233.934 24.2184 234.289 24.3313 234.649 24.4536C235.009 24.5783 235.373 24.7218 235.74 24.8865C237.091 25.5052 238.152 26.4109 238.918 27.6059C239.685 28.801 240.071 30.1301 240.071 31.5909C240.071 33.0518 239.688 34.3504 238.918 35.5454C238.152 36.7404 237.091 37.6461 235.74 38.2648C235.209 38.5118 234.663 38.693 234.108 38.8059C233.553 38.9188 232.995 38.9753 232.44 38.9753L232.435 38.98Z" fill="#FDFFFC"/>
<path d="M255.298 15.7754V20.9978H250.942V38.547H245.719V20.9978H241.393V15.7754H255.296H255.298Z" fill="#FDFFFC"/>
<path d="M270.5 38.5471L269.604 35.7971H262.466L261.539 38.5471H256.009L263.734 15.8696H268.677L276 38.5471H270.5ZM264.259 30.5747H267.936L266.143 25.0747L264.259 30.5747Z" fill="#FDFFFC"/>
<path d="M67.7031 48.7425C68.0136 48.1921 68.4394 47.7616 68.9758 47.4487C69.5145 47.1382 70.1096 46.9829 70.766 46.9829C71.5376 46.9829 72.2104 47.1688 72.7844 47.5404C73.3584 47.9121 73.7794 48.4391 74.0429 49.1236H72.9373C72.742 48.6978 72.4597 48.3708 72.0904 48.1403C71.7211 47.9098 71.2811 47.7945 70.766 47.7945C70.2508 47.7945 69.8297 47.9098 69.4368 48.1403C69.044 48.3708 68.7382 48.6955 68.5147 49.1189C68.2912 49.5424 68.1806 50.0364 68.1806 50.6057C68.1806 51.175 68.2912 51.6596 68.5147 52.0806C68.7382 52.5041 69.0463 52.8287 69.4368 53.0593C69.8297 53.2898 70.272 53.4051 70.766 53.4051C71.26 53.4051 71.7211 53.2922 72.0904 53.0663C72.4597 52.8405 72.742 52.5135 72.9373 52.0877H74.0429C73.7794 52.7629 73.3607 53.2851 72.7844 53.6544C72.208 54.0238 71.5376 54.2073 70.766 54.2073C70.1096 54.2073 69.5145 54.0543 68.9758 53.7462C68.4394 53.438 68.0136 53.0122 67.7031 52.4641C67.3926 51.916 67.2373 51.2973 67.2373 50.608C67.2373 49.9188 67.3926 49.2977 67.7031 48.7472V48.7425Z" fill="#FDFFFC"/>
<path d="M84.6596 52.5722H81.5755L81.0086 54.1436H80.0347L82.5894 47.1145H83.6551L86.2004 54.1436H85.2265L84.6596 52.5722ZM84.3961 51.8217L83.1187 48.2531L81.8413 51.8217H84.3961Z" fill="#FDFFFC"/>
<path d="M97.9437 54.1437H97.0215L93.3094 48.5143V54.1437H92.3872V47.0652H93.3094L97.0215 52.6828V47.0652H97.9437V54.1437Z" fill="#FDFFFC"/>
<path d="M104.709 48.7425C105.02 48.1921 105.446 47.7616 105.982 47.4487C106.521 47.1382 107.116 46.9829 107.772 46.9829C108.544 46.9829 109.217 47.1688 109.791 47.5404C110.365 47.9121 110.786 48.4391 111.049 49.1236H109.944C109.748 48.6978 109.466 48.3708 109.097 48.1403C108.727 47.9098 108.287 47.7945 107.772 47.7945C107.257 47.7945 106.836 47.9098 106.443 48.1403C106.05 48.3708 105.745 48.6955 105.521 49.1189C105.298 49.5424 105.187 50.0364 105.187 50.6057C105.187 51.175 105.298 51.6596 105.521 52.0806C105.745 52.5041 106.053 52.8287 106.443 53.0593C106.836 53.2898 107.278 53.4051 107.772 53.4051C108.266 53.4051 108.727 53.2922 109.097 53.0663C109.466 52.8405 109.748 52.5135 109.944 52.0877H111.049C110.786 52.7629 110.367 53.2851 109.791 53.6544C109.214 54.0238 108.544 54.2073 107.772 54.2073C107.116 54.2073 106.521 54.0543 105.982 53.7462C105.446 53.438 105.02 53.0122 104.709 52.4641C104.399 51.916 104.244 51.2973 104.244 50.608C104.244 49.9188 104.399 49.2977 104.709 48.7472V48.7425Z" fill="#FDFFFC"/>
<path d="M122.931 47.0747V54.1438H122.009V50.9398H118.41V54.1438H117.488V47.0747H118.41V50.1776H122.009V47.0747H122.931Z" fill="#FDFFFC"/>
<path d="M133.752 52.5722H130.668L130.101 54.1436H129.127L131.682 47.1145H132.748L135.293 54.1436H134.319L133.752 52.5722ZM133.489 51.8217L132.212 48.2531L130.934 51.8217H133.489Z" fill="#FDFFFC"/>
<path d="M142.471 53.9672C142.101 53.8025 141.814 53.5719 141.602 53.2779C141.393 52.9838 141.285 52.6427 141.278 52.2593H142.261C142.294 52.591 142.431 52.8686 142.673 53.0967C142.913 53.3226 143.263 53.4355 143.722 53.4355C144.181 53.4355 144.508 53.3249 144.762 53.1062C145.016 52.8874 145.143 52.6051 145.143 52.2593C145.143 51.9887 145.068 51.77 144.919 51.6006C144.771 51.4312 144.585 51.3042 144.362 51.2148C144.138 51.1278 143.837 51.0313 143.459 50.9302C142.993 50.8078 142.619 50.6855 142.336 50.5655C142.056 50.4432 141.817 50.2526 141.617 49.9915C141.417 49.7304 141.318 49.3822 141.318 48.9423C141.318 48.5565 141.417 48.2154 141.612 47.919C141.807 47.6226 142.085 47.3921 142.438 47.2298C142.793 47.0674 143.2 46.9851 143.661 46.9851C144.324 46.9851 144.865 47.1521 145.289 47.4815C145.71 47.8132 145.95 48.2531 146.004 48.7988H144.99C144.957 48.5283 144.814 48.2907 144.564 48.0837C144.315 47.8767 143.983 47.7755 143.571 47.7755C143.186 47.7755 142.873 47.8743 142.628 48.0743C142.383 48.2742 142.264 48.5518 142.264 48.9118C142.264 49.1682 142.336 49.3775 142.482 49.5399C142.628 49.7022 142.807 49.8245 143.019 49.9092C143.233 49.9939 143.531 50.0903 143.917 50.1985C144.383 50.3279 144.759 50.455 145.044 50.5796C145.329 50.7043 145.571 50.8972 145.773 51.1583C145.976 51.4195 146.077 51.7723 146.077 52.2169C146.077 52.5627 145.985 52.8874 145.804 53.1908C145.62 53.4943 145.35 53.7413 144.992 53.9319C144.635 54.1224 144.211 54.2165 143.724 54.2165C143.237 54.2165 142.84 54.1342 142.473 53.9672H142.471Z" fill="#FDFFFC"/>
<path d="M161.271 53.9672C160.902 53.8025 160.615 53.5719 160.403 53.2779C160.194 52.9838 160.086 52.6427 160.079 52.2593H161.062C161.095 52.591 161.234 52.8686 161.474 53.0967C161.714 53.3226 162.064 53.4355 162.523 53.4355C162.982 53.4355 163.309 53.3249 163.563 53.1062C163.817 52.8874 163.944 52.6051 163.944 52.2593C163.944 51.9887 163.868 51.77 163.72 51.6006C163.572 51.4312 163.386 51.3042 163.163 51.2148C162.939 51.1278 162.638 51.0313 162.259 50.9302C161.794 50.8078 161.42 50.6855 161.14 50.5655C160.86 50.4432 160.62 50.2526 160.42 49.9915C160.22 49.7304 160.121 49.3822 160.121 48.9423C160.121 48.5565 160.22 48.2154 160.415 47.919C160.61 47.6226 160.886 47.3921 161.241 47.2298C161.596 47.0674 162.003 46.9851 162.462 46.9851C163.125 46.9851 163.666 47.1521 164.09 47.4815C164.513 47.8108 164.751 48.2531 164.805 48.7988H163.791C163.758 48.5283 163.614 48.2907 163.365 48.0837C163.116 47.8767 162.784 47.7755 162.372 47.7755C161.986 47.7755 161.674 47.8743 161.429 48.0743C161.184 48.2742 161.064 48.5518 161.064 48.9118C161.064 49.1682 161.137 49.3775 161.283 49.5399C161.429 49.7022 161.608 49.8245 161.822 49.9092C162.033 49.9939 162.335 50.0903 162.718 50.1985C163.184 50.3279 163.56 50.455 163.845 50.5796C164.13 50.7043 164.372 50.8972 164.576 51.1583C164.779 51.4195 164.88 51.7723 164.88 52.2169C164.88 52.5627 164.788 52.8874 164.607 53.1908C164.424 53.4943 164.153 53.7413 163.795 53.9319C163.438 54.1224 163.014 54.2165 162.528 54.2165C162.041 54.2165 161.643 54.1342 161.276 53.9672H161.271Z" fill="#FDFFFC"/>
<path d="M172.229 47.0747V54.1438H171.307V47.0747H172.229Z" fill="#FDFFFC"/>
<path d="M184.429 54.1437H183.507L179.795 48.5143V54.1437H178.873V47.0652H179.795L183.507 52.6828V47.0652H184.429V54.1437Z" fill="#FDFFFC"/>
<path d="M195.424 47.0747V47.8251H193.497V54.1438H192.575V47.8251H190.639V47.0747H195.426H195.424Z" fill="#FDFFFC"/>
<path d="M202.552 47.825V50.1869H205.128V50.9467H202.552V53.3815H205.431V54.1413H201.627V47.0628H205.431V47.8227H202.552V47.825ZM204.417 45.5431L202.258 46.6982V46.0089L204.417 44.741V45.5431Z" fill="#FDFFFC"/>
<path d="M216.255 47.0747V47.8251H214.328V54.1438H213.406V47.8251H211.47V47.0747H216.257H216.255Z" fill="#FDFFFC"/>
<path d="M223.383 47.0747V54.1438H222.461V47.0747H223.383Z" fill="#FDFFFC"/>
<path d="M230.146 48.7425C230.456 48.1921 230.88 47.7616 231.419 47.4487C231.957 47.1382 232.553 46.9829 233.209 46.9829C233.98 46.9829 234.653 47.1688 235.227 47.5404C235.801 47.9121 236.22 48.4391 236.486 49.1236H235.38C235.185 48.6978 234.9 48.3708 234.533 48.1403C234.164 47.9098 233.724 47.7945 233.209 47.7945C232.694 47.7945 232.273 47.9098 231.88 48.1403C231.487 48.3708 231.181 48.6955 230.958 49.1189C230.734 49.5424 230.624 50.0364 230.624 50.6057C230.624 51.175 230.734 51.6596 230.958 52.0806C231.181 52.5041 231.489 52.8287 231.88 53.0593C232.273 53.2898 232.715 53.4051 233.209 53.4051C233.703 53.4051 234.164 53.2922 234.533 53.0663C234.9 52.8405 235.185 52.5135 235.38 52.0877H236.486C236.222 52.7629 235.804 53.2851 235.227 53.6544C234.653 54.0238 233.98 54.2073 233.209 54.2073C232.553 54.2073 231.957 54.0543 231.419 53.7462C230.88 53.438 230.456 53.0122 230.146 52.4641C229.835 51.916 229.68 51.2973 229.68 50.608C229.68 49.9188 229.835 49.2977 230.146 48.7472V48.7425Z" fill="#FDFFFC"/>
<path d="M247.105 52.5722H244.021L243.454 54.1436H242.48L245.035 47.1145H246.1L248.646 54.1436H247.672L247.105 52.5722ZM246.841 51.8217L245.564 48.2531L244.287 51.8217H246.841Z" fill="#FDFFFC"/>
<path d="M255.821 53.9672C255.451 53.8025 255.164 53.5719 254.953 53.2779C254.743 52.9838 254.635 52.6427 254.628 52.2593H255.611C255.644 52.591 255.783 52.8686 256.023 53.0967C256.263 53.3226 256.613 53.4355 257.072 53.4355C257.531 53.4355 257.858 53.3249 258.112 53.1062C258.366 52.8874 258.493 52.6051 258.493 52.2593C258.493 51.9887 258.418 51.77 258.27 51.6006C258.121 51.4312 257.935 51.3042 257.712 51.2148C257.488 51.1278 257.187 51.0313 256.809 50.9302C256.343 50.8078 255.969 50.6855 255.689 50.5655C255.409 50.4432 255.169 50.2526 254.969 49.9915C254.769 49.7304 254.67 49.3822 254.67 48.9423C254.67 48.5565 254.769 48.2154 254.964 47.919C255.16 47.6226 255.435 47.3921 255.79 47.2298C256.145 47.0674 256.552 46.9851 257.011 46.9851C257.674 46.9851 258.215 47.1521 258.639 47.4815C259.062 47.8108 259.3 48.2531 259.354 48.7988H258.34C258.307 48.5283 258.164 48.2907 257.914 48.0837C257.665 47.8767 257.333 47.7755 256.922 47.7755C256.536 47.7755 256.223 47.8743 255.978 48.0743C255.734 48.2742 255.614 48.5518 255.614 48.9118C255.614 49.1682 255.687 49.3775 255.832 49.5399C255.978 49.7022 256.157 49.8245 256.371 49.9092C256.583 49.9939 256.884 50.0903 257.267 50.1985C257.733 50.3279 258.11 50.455 258.394 50.5796C258.679 50.7043 258.921 50.8972 259.126 51.1583C259.328 51.4195 259.429 51.7723 259.429 52.2169C259.429 52.5627 259.338 52.8874 259.156 53.1908C258.973 53.4943 258.702 53.7413 258.345 53.9319C257.987 54.1224 257.564 54.2165 257.077 54.2165C256.59 54.2165 256.192 54.1342 255.825 53.9672H255.821Z" fill="#FDFFFC"/>
<path d="M56.6724 45.689L57.938 48.2484L60.7633 48.6601L58.7191 50.655L59.2013 53.4685L56.6724 52.1394L54.1436 53.4685L54.6282 50.655L52.5815 48.6601L55.4092 48.2484L56.6724 45.689Z" fill="#DA1D2D"/>
<path d="M271.907 45.689L273.173 48.2484L275.998 48.6601L273.954 50.655L274.436 53.4685L271.907 52.1394L269.38 53.4685L269.863 50.655L267.818 48.6601L270.644 48.2484L271.907 45.689Z" fill="#DA1D2D"/>
<path d="M15.1331 41.3888L14.9943 41.2688L8.6333 45.1103C9.06144 45.7925 9.52252 46.4418 10.0095 47.0558L15.9729 42.0804C15.6859 41.8593 15.406 41.6287 15.1331 41.3911V41.3888Z" fill="#F9C41E"/>
<path d="M35.1805 43.6143C35.0017 43.7225 26.213 49.4295 21.5928 52.4312L21.5481 52.4595C21.2046 52.6688 20.8165 52.7794 20.4189 52.7794C19.5085 52.7794 18.6922 52.1983 18.3887 51.3326C18.0923 50.4905 18.3393 49.5707 19.0168 48.9873L23.0583 45.3551C22.8372 45.308 22.6161 45.2563 22.3973 45.1998L21.748 45.0352L20.4777 45.8373L13.1616 50.3328C18.05 54.5884 23.5288 56.3222 23.5288 56.3222C37.8317 49.8624 42.4613 36.4158 42.4613 36.4158C42.433 36.4041 42.4072 36.3899 42.3789 36.3782C40.7699 39.3893 38.2974 41.9276 35.1805 43.6143Z" fill="#F9C41E"/>
<path d="M25.091 36.5146L25.6391 36.4487C25.6603 36.4369 26.7354 35.7877 27.9586 34.5644L28.0222 34.5009L27.9563 34.4444C27.0224 33.6375 26.0508 32.7718 25.0675 31.8709L24.7429 31.5744C24.6017 31.4592 24.4512 31.3321 24.3029 31.1981C22.995 30.7723 21.8 30.2924 20.7531 29.7678L20.6755 29.7278L20.6402 29.8078C19.9909 31.3039 19.7886 32.4848 19.7863 32.4966L19.7769 32.5484L19.8216 32.6919C20.165 33.7952 20.6943 34.8537 21.3977 35.8347L21.4118 35.8559L21.4353 35.8653C23.0326 36.4393 24.2136 36.5263 24.7734 36.5263C24.9522 36.5263 25.0581 36.5169 25.0863 36.5146H25.091Z" fill="#FDFFFC"/>
<path d="M30.5584 23.4138L30.5372 23.3644H30.4831C28.874 23.3056 27.3708 23.5385 25.9946 24.0536L25.2066 24.3477C24.0727 25.044 23.0823 25.9521 22.2448 27.0506L22.2119 27.093L22.2378 27.14C23.4022 29.2666 24.8302 30.5534 24.8443 30.5652L25.6371 31.2709L25.6488 31.2756C26.0699 31.4638 27.6061 32.1013 29.6762 32.4048L29.728 32.4119L29.7562 32.3672C30.6101 31.078 31.1959 29.7018 31.497 28.2739L31.6476 27.5682V27.5541C31.5699 26.933 31.3135 25.2863 30.556 23.4114L30.5584 23.4138Z" fill="#FDFFFC"/>
<path d="M20.2074 20.7227L20.1439 20.4474C20.1368 20.4169 20.0756 20.1487 20.0192 19.7299L19.998 19.5676L19.8804 19.6829C18.349 21.1861 17.2974 23.0822 16.841 25.1641L16.834 25.1923L17.1445 25.8322L17.2245 25.7734C17.6338 25.4746 18.1043 25.197 18.6218 24.95L18.6595 24.9312L18.6689 24.8912C19.1417 22.6093 19.9463 21.1861 19.9792 21.1249L20.2097 20.7203L20.2074 20.7227Z" fill="#FDFFFC"/>
<path d="M18.3348 28.3375V28.2975L18.3018 28.274C17.6502 27.7776 17.2432 27.3565 17.0174 27.0883L16.961 27.0225L16.5869 27.38V27.5235C16.5869 29.9089 17.3373 32.1767 18.7582 34.0798L18.89 34.2562L18.9064 34.0374C18.9629 33.287 19.0405 32.7624 19.0405 32.7577L19.0499 32.6965L19.0052 32.5554C18.5818 31.191 18.3559 29.7725 18.3348 28.3375Z" fill="#FDFFFC"/>
<path d="M21.0166 23.9974L21.0354 24.0797L21.1178 24.0585C23.3102 23.4822 25.2416 23.4093 25.3216 23.4046L25.5709 23.3951L25.5945 23.3716C25.8391 23.1223 27.1518 21.8072 28.902 20.5369L28.9679 20.4875L28.9185 20.4217C28.328 19.6077 27.6552 18.8949 26.9212 18.3021L26.3214 17.8175H26.3002C25.9144 17.754 25.291 17.674 24.5147 17.6317C24.0042 17.6058 23.4961 17.5987 22.9903 17.6105H22.9574L22.9338 17.634C21.9811 18.5962 21.2989 19.563 20.9037 20.5111L20.7343 20.918L20.7273 21.3321C20.7131 22.1107 20.7884 22.9058 20.9507 23.6916C20.9719 23.7927 20.9931 23.8939 21.0166 23.995V23.9974Z" fill="#FDFFFC"/>
<path d="M30.1958 36.3263L30.1605 36.2981L30.1182 36.3122C28.7632 36.7733 27.3399 37.0673 25.8885 37.1873L25.3757 37.2367L25.338 37.2602C24.971 37.4743 24.6111 37.6719 24.2677 37.8484L24.0889 37.9401L24.2794 38.0013C25.3357 38.333 26.4413 38.5 27.5634 38.5C28.8761 38.5 30.1605 38.2718 31.3767 37.8201L31.4073 37.8084L31.5884 37.432L31.5343 37.392C31.2685 37.1873 30.8192 36.8392 30.1911 36.3287L30.1958 36.3263Z" fill="#FDFFFC"/>
<path d="M33.2447 18.2903L33.4329 18.2409L33.2659 18.1398C31.5533 17.0953 29.582 16.5425 27.5636 16.5425C27.2789 16.5425 26.9896 16.5542 26.7049 16.5754L26.5073 16.5895L26.752 16.8012C26.9096 16.9377 27.0672 17.0788 27.2201 17.2247L27.7212 17.6975L27.7424 17.7022C28.3846 17.8693 29.6878 18.2645 31.1981 19.0525L31.2357 19.0714L31.2734 19.0525C31.8991 18.735 32.5037 18.4927 33.0706 18.3327C33.1294 18.3162 33.1883 18.2998 33.2447 18.2856V18.2903Z" fill="#FDFFFC"/>
<path d="M37.098 22.0752C36.4205 20.8919 35.5407 19.8569 34.4821 18.9982L34.3362 18.8806L34.348 19.0688C34.3527 19.1441 34.3574 19.2264 34.3598 19.3205C34.3786 19.8616 34.3527 20.4615 34.2845 21.1013L34.2798 21.1437L34.3127 21.1719C35.3666 22.087 36.277 23.1315 37.0133 24.2748L37.3521 24.7994L37.3591 24.8064C37.4297 24.8699 37.5756 25.0017 37.7708 25.1593C37.9214 25.2793 38.0672 25.3898 38.2084 25.4863L38.3754 25.5992L38.3377 25.4016C38.1096 24.2348 37.6932 23.1174 37.098 22.0776V22.0752Z" fill="#FDFFFC"/>
<path d="M37.6745 28.1893C37.2981 27.2672 36.9523 26.2462 36.6441 25.1547L36.5689 24.8842L36.4912 24.8442C36.4912 24.8442 35.4515 24.3078 33.8612 23.882L33.7812 23.8608L33.76 23.9408C33.4401 25.1994 32.9955 26.5238 32.4403 27.8788L32.2827 28.2646L32.2898 28.2905C32.3415 28.4951 32.7908 30.3489 32.9555 32.4496L32.9626 32.5319L33.0449 32.5249C33.8518 32.4614 34.6516 32.3273 35.4162 32.125C35.5126 32.0991 35.6091 32.0732 35.7055 32.045L35.9102 31.9862L36.0819 31.8027C36.0819 31.8027 37.0699 30.7253 37.8321 28.6104L37.8439 28.5798L37.8321 28.5493C37.7804 28.4293 37.731 28.307 37.6792 28.1823L37.6745 28.1893Z" fill="#FDFFFC"/>
<path d="M36.5356 32.4472L36.2086 32.6001L36.1098 32.706C36.0651 32.753 35.0066 33.894 33.0093 35.0208L32.9717 35.042L32.967 35.0843C32.9058 35.7877 32.7835 36.4134 32.6024 36.9451L32.5718 37.0321L32.9152 37.1074L32.9435 37.0909C34.1032 36.437 35.1265 35.5877 35.9828 34.5644C36.6039 33.8234 37.1214 33.0071 37.5237 32.1414L37.6225 31.9297L37.4131 32.0332C37.1308 32.172 36.8367 32.3108 36.5333 32.4472H36.5356Z" fill="#FDFFFC"/>
<path d="M20.9156 50.1399L34.1434 41.5229C39.2058 38.9376 42.6733 33.6752 42.6733 27.6012C42.6733 24.1031 41.3042 20.7744 39.394 18.2832C39.2058 18.0385 38.1402 16.2319 35.4513 14.4581C33.0401 12.8679 30.1278 11.9951 27.0249 11.9951C23.922 11.9951 20.965 12.922 18.5138 14.5146C18.4785 14.5358 18.4432 14.5569 18.4079 14.5804C18.4032 14.5828 18.4009 14.5852 18.3961 14.5875L18.3256 14.6322C18.3256 14.6322 18.3068 14.6463 18.2973 14.651L18.2879 14.6581C18.2479 14.6863 18.2103 14.7145 18.1703 14.7428C18.0221 14.8463 17.8739 14.9474 17.7304 15.0556C17.6175 15.1403 17.5069 15.2297 17.394 15.3168C17.3258 15.3709 17.2552 15.425 17.187 15.4791C17.1517 15.5073 17.1164 15.5332 17.0835 15.5614C17.0835 15.5614 17.0858 15.5614 17.0882 15.5638C16.7824 15.8178 16.4836 16.0813 16.199 16.3565L5.29306 25.9051C5.09075 26.0698 5.23895 26.3544 5.44832 26.3544C5.49066 26.3544 5.53771 26.3426 5.58241 26.3144L10.5343 23.3362L14.19 20.8991L11.9363 23.6044C11.5999 24.8818 11.4188 26.2203 11.4188 27.6036C11.4188 27.8906 11.4282 28.1776 11.4423 28.4598L1.41153 37.0157C1.21628 37.1827 1.36448 37.4603 1.5715 37.4603C1.61384 37.4603 1.66089 37.4485 1.70558 37.4203L10.1791 32.2143L13.0161 30.2924L12.094 32.1367C12.4656 33.3647 12.9808 34.5315 13.6277 35.6113L0.091811 47.157C-0.103442 47.3217 0.0447622 47.6016 0.251777 47.6016C0.294121 47.6016 0.338817 47.5899 0.385866 47.5616L9.60743 41.9934L9.49686 42.0334L17.2458 37.3379L16.7918 39.3846C17.6316 40.1162 18.5467 40.7631 19.5324 41.3042L10.8636 48.5379C10.666 48.7026 10.8142 48.9849 11.0212 48.9849C11.0636 48.9849 11.1106 48.9731 11.1553 48.9449L19.8594 43.5978L21.8401 42.3463L21.8166 42.3275C21.8166 42.3275 21.8401 42.3345 21.8519 42.3392L23.8232 41.0924L23.2022 42.7462C24.4325 43.0591 25.7216 43.2285 27.0484 43.2285C27.3307 43.2285 27.6107 43.219 27.8882 43.2049L20.6286 49.7306C20.4263 49.8929 20.5745 50.1799 20.7815 50.1799C20.8239 50.1799 20.8709 50.1682 20.9156 50.1399ZM27.5754 40.2926C25.8204 40.2926 24.1196 39.9421 22.52 39.2528C20.8944 38.5518 19.4571 37.5379 18.2432 36.2394C16.0249 33.8681 14.804 30.7723 14.804 27.5236C14.804 27.4036 14.804 27.2836 14.8087 27.166C14.8275 26.432 14.9122 25.691 15.0604 24.9688C15.6391 22.1224 17.1988 19.53 19.4524 17.6716C21.132 16.286 23.1457 15.3497 25.277 14.9615C26.0298 14.8251 26.8014 14.7545 27.5754 14.7545C30.0454 14.7545 32.4402 15.4603 34.5009 16.7941L34.5221 16.8082C34.8021 16.9893 35.0796 17.187 35.3525 17.3963C38.0908 19.5018 39.881 22.6681 40.2644 26.0839L40.2738 26.1874C40.2974 26.4085 40.3138 26.6273 40.3256 26.8367V26.8837C40.3326 26.9802 40.3373 27.079 40.3397 27.1754C40.3421 27.2907 40.3444 27.4083 40.3444 27.5236C40.3444 28.8786 40.1327 30.2124 39.7163 31.4898C38.6977 34.6091 36.5452 37.1897 33.6517 38.7588C33.1906 39.0082 32.7084 39.2317 32.2191 39.4246C30.7394 40.0033 29.1774 40.295 27.5754 40.295V40.2926Z" fill="#FDFFFC"/>
<path d="M39.6106 1.35978C39.1495 1.35978 38.7755 1.73381 38.7755 2.19489C38.7755 2.45601 38.8978 2.68891 39.0884 2.84181C39.0837 2.8724 39.0813 2.90533 39.0743 2.93591C38.7967 4.24152 37.3029 5.15191 35.8161 4.92372C34.3294 4.69318 33.1837 3.37346 33.3131 2.04669C33.3155 2.01846 33.3225 1.99023 33.3272 1.962C33.706 1.88202 33.9906 1.54562 33.9906 1.14335C33.9906 0.682274 33.6166 0.308236 33.1555 0.308236C32.6944 0.308236 32.3204 0.682274 32.3204 1.14335C32.3204 1.43976 32.4757 1.69618 32.7062 1.84673C32.7086 1.93377 32.7062 2.01846 32.6991 2.1055C32.5604 3.38758 31.203 4.36619 29.6763 4.28856C28.1495 4.20623 26.9074 3.08882 26.9027 1.79968C26.9027 1.73381 26.9098 1.6703 26.9168 1.60443C27.2203 1.47975 27.4344 1.18099 27.4344 0.830477C27.4344 0.369399 27.0603 -0.00463867 26.5993 -0.00463867C26.1382 -0.00463867 25.7642 0.369399 25.7642 0.830477C25.7642 1.15276 25.95 1.43035 26.2158 1.56914C26.2158 1.60208 26.2229 1.63736 26.2229 1.6703C26.2135 3.00648 24.9384 4.19682 23.4399 4.26974C21.9603 4.34267 20.5982 3.3076 20.4265 2.00905C20.6594 1.86085 20.8146 1.60208 20.8146 1.30567C20.8146 0.844592 20.4406 0.470554 19.9795 0.470554C19.5184 0.470554 19.1444 0.844592 19.1444 1.30567C19.1444 1.61384 19.3138 1.87967 19.5631 2.02552C19.5137 3.25114 18.5092 4.69083 17.086 4.91196C15.6369 5.13309 14.1713 3.95922 13.8138 2.783C13.9478 2.6348 14.0325 2.43955 14.0325 2.22312C14.0325 1.76204 13.6585 1.38801 13.1974 1.38801C12.7363 1.38801 12.3623 1.76204 12.3623 2.22312C12.3623 2.65127 12.6846 2.99943 13.101 3.04883C14.4183 5.84353 15.6581 8.70174 16.7849 11.56L16.8084 11.6211L16.8719 11.6094C23.2494 10.4849 29.7139 10.4896 36.0914 11.6282L36.1549 11.6399L36.1784 11.5788C37.324 8.68292 38.5873 5.78942 39.9282 2.96649C40.2387 2.84417 40.4575 2.54305 40.4575 2.19019C40.4575 1.72911 40.0835 1.35507 39.6224 1.35507L39.6106 1.35978ZM21.4662 7.81487C21.3369 8.13951 21.2098 8.46414 21.0875 8.79113C20.8287 8.81466 20.5676 8.84054 20.3088 8.86876C20.123 8.57236 19.9325 8.2783 19.7443 7.9913C19.6337 7.78664 19.636 7.73724 19.7584 7.48553C19.9795 7.09267 20.21 6.69276 20.4453 6.2952C20.7535 6.6363 21.0593 6.98211 21.351 7.32086C21.5227 7.54905 21.5345 7.59609 21.4686 7.81487H21.4662ZM27.8625 7.86662C27.5991 8.36534 27.3332 8.88288 27.0745 9.40277C26.858 9.40042 26.6393 9.39806 26.4205 9.39806C26.2017 9.39806 25.9829 9.39806 25.7665 9.40277C25.5077 8.88288 25.2419 8.36534 24.9784 7.86898C24.8232 7.502 24.8349 7.41496 25.0796 7.00563C25.5077 6.38224 25.9594 5.75178 26.4205 5.13309C26.8792 5.74708 27.3285 6.37753 27.759 7.00093C28.006 7.4126 28.0178 7.502 27.8649 7.86662H27.8625ZM33.0967 7.9866C32.9062 8.2783 32.718 8.57236 32.5298 8.86876C32.271 8.84054 32.0099 8.81466 31.7511 8.79113C31.6264 8.46414 31.4994 8.13716 31.3724 7.81722C31.3065 7.59374 31.3159 7.54669 31.4876 7.32321C31.784 6.97975 32.0875 6.63395 32.3957 6.29284C32.6286 6.6857 32.8568 7.08562 33.0802 7.47847C33.2049 7.73489 33.2073 7.78429 33.0991 7.9866H33.0967Z" fill="#F9C41E"/>
<path d="M46.1385 14.3077C44.7905 13.3455 41.2971 12.4492 37.632 11.7271C37.5803 11.8588 37.5238 11.9929 37.4697 12.1246L37.4462 12.1858C37.2368 12.7174 36.731 13.0562 36.1782 13.075C36.2206 13.1032 36.2629 13.1268 36.3053 13.155C38.1284 14.3571 39.6175 15.7874 40.7278 17.4105L40.7725 17.4741C43.1532 20.584 44.4659 24.3385 44.4659 28.0365C44.4659 28.0671 44.4659 28.0977 44.4659 28.1306C45.7291 18.9608 46.1385 14.3077 46.1385 14.3077Z" fill="#FDFFFC"/>
<path d="M9.05002 28.0482V28.0388C9.05002 27.5306 9.07119 27.0178 9.11589 26.5073L6.02949 28.3634C5.69073 28.5704 5.30258 28.6786 4.90972 28.6786C4.00168 28.6786 3.18539 28.0976 2.87957 27.2342C2.57846 26.385 2.83017 25.4605 3.51708 24.8771L13.6067 15.9331C14.0654 15.5544 15.5404 14.3382 15.5733 14.3099C15.5733 14.3099 15.698 14.2111 15.7545 14.1664L15.8697 14.077C15.978 13.99 16.0885 13.9053 16.1991 13.823C16.3708 13.6959 16.5402 13.576 16.7002 13.4654L16.7166 13.4536C16.7566 13.4254 16.7966 13.3948 16.8389 13.3666L16.9707 13.2796C17.0107 13.2513 17.0554 13.2254 17.1001 13.1972C17.2295 13.1149 17.3588 13.0349 17.4882 12.9549C17.3471 12.9784 17.2059 12.9996 17.0648 13.0255L17.0013 13.0373C16.9189 13.0514 16.8366 13.0584 16.7543 13.0584C16.1826 13.0584 15.6557 12.7103 15.4416 12.1621L15.4181 12.1033C15.2322 11.6328 15.0393 11.1577 14.8464 10.6848C4.55686 11.4117 0.46126 14.3358 0.46126 14.3358C-0.0303998 19.8687 1.78098 27.2225 3.52884 32.7578L9.05002 28.0482Z" fill="#DA1D2D"/>
<path d="M10.76 35.6278C10.5954 35.2797 10.4401 34.9245 10.299 34.5669L5.21533 37.6909C5.53291 38.5519 5.80579 39.2553 6.0081 39.7681L10.4613 35.9689C10.5601 35.8584 10.6589 35.7431 10.76 35.6302V35.6278Z" fill="#DA1D2D"/>
</g>
<defs>
<clipPath id="clip0_6_1759">
<rect width="276" height="56.3221" fill="white"/>
</clipPath>
</defs>
</svg>
