<svg width="21" height="21" viewBox="0 0 21 21" fill="none" xmlns="http://www.w3.org/2000/svg">
<path d="M10.5009 0C7.64935 0 7.29141 0.0124949 6.17148 0.0634194C5.05365 0.114659 4.29062 0.291582 3.62302 0.551244C2.93233 0.819412 2.34654 1.17819 1.76295 1.76199C1.17884 2.34568 0.82005 2.93147 0.55104 3.62183C0.29064 4.28963 0.113505 5.05297 0.0632099 6.17026C0.0131249 7.29029 0 7.64833 0 10.5C0 13.3517 0.0126 13.7085 0.06342 14.8284C0.11487 15.9462 0.291795 16.7092 0.55125 17.3768C0.81963 18.0675 1.17842 18.6533 1.76222 19.2369C2.3457 19.821 2.93149 20.1806 3.62166 20.4488C4.28977 20.7084 5.05291 20.8853 6.17053 20.9366C7.29057 20.9875 7.6482 21 10.4997 21C13.3516 21 13.7084 20.9875 14.8283 20.9366C15.9461 20.8853 16.71 20.7084 17.3781 20.4488C18.0685 20.1806 18.6535 19.821 19.2368 19.2369C19.821 18.6533 20.1796 18.0675 20.4487 17.3771C20.7068 16.7092 20.8841 15.946 20.9366 14.8286C20.9869 13.7087 21 13.3517 21 10.5C21 7.64833 20.9869 7.2905 20.9366 6.17047C20.8841 5.05265 20.7068 4.28973 20.4487 3.62215C20.1796 2.93147 19.821 2.34568 19.2368 1.76199C18.6528 1.17798 18.0687 0.819202 17.3775 0.551349C16.7081 0.291582 15.9447 0.114554 14.8268 0.0634194C13.7068 0.0124949 13.3502 0 10.4977 0H10.5009ZM9.55899 1.89219C9.8386 1.89177 10.1506 1.89219 10.5009 1.89219C13.3046 1.89219 13.6368 1.90227 14.7439 1.95256C15.7676 1.99939 16.3233 2.17043 16.6934 2.31418C17.1835 2.50444 17.5328 2.73197 17.9001 3.09957C18.2676 3.46707 18.495 3.81703 18.6858 4.30706C18.8295 4.67665 19.0008 5.23231 19.0474 6.25605C19.0977 7.36295 19.1086 7.69537 19.1086 10.4976C19.1086 13.2998 19.0977 13.6323 19.0474 14.7391C19.0006 15.7629 18.8295 16.3185 18.6858 16.6882C18.4955 17.1782 18.2676 17.5272 17.9001 17.8944C17.5326 18.2619 17.1837 18.4894 16.6934 18.6797C16.3237 18.8241 15.7676 18.9947 14.7439 19.0416C13.637 19.0919 13.3046 19.1028 10.5009 19.1028C7.69724 19.1028 7.36491 19.0919 6.2581 19.0416C5.23435 18.9943 4.67869 18.8233 4.30825 18.6795C3.81832 18.4892 3.46825 18.2617 3.10075 17.8942C2.73325 17.5267 2.50583 17.1776 2.31504 16.6874C2.17129 16.3177 2.00004 15.762 1.95342 14.7383C1.90312 13.6314 1.89304 13.299 1.89304 10.495C1.89304 7.69107 1.90312 7.36032 1.95342 6.25342C2.00025 5.22968 2.17129 4.67403 2.31504 4.30391C2.5054 3.81388 2.73326 3.46392 3.10086 3.09642C3.46836 2.72892 3.81832 2.50139 4.30836 2.31071C4.67848 2.16634 5.23435 1.99571 6.2581 1.94868C7.22673 1.90489 7.60211 1.89177 9.55899 1.88956V1.89219ZM16.1058 3.63559C15.4102 3.63559 14.8458 4.19943 14.8458 4.89516C14.8458 5.59077 15.4102 6.15514 16.1058 6.15514C16.8015 6.15514 17.3658 5.59077 17.3658 4.89516C17.3658 4.19954 16.8015 3.63517 16.1058 3.63517V3.63559ZM10.5009 5.10778C7.52315 5.10778 5.10877 7.52213 5.10877 10.5C5.10877 13.4779 7.52315 15.8911 10.5009 15.8911C13.4788 15.8911 15.8924 13.4779 15.8924 10.5C15.8924 7.52223 13.4786 5.10778 10.5007 5.10778H10.5009ZM10.5009 6.99997C12.4339 6.99997 14.001 8.56687 14.001 10.5C14.001 12.4329 12.4339 14 10.5009 14C8.56789 14 7.00098 12.4329 7.00098 10.5C7.00098 8.56687 8.56789 6.99997 10.5009 6.99997Z" fill="white"/>
</svg>
