<svg width="178" height="36" viewBox="0 0 178 36" fill="none" xmlns="http://www.w3.org/2000/svg">
<g clip-path="url(#clip0_2_779)">
<path d="M44.0751 13.4801H38.0565V15.6724H42.9387V19.0104H38.0565V21.302H44.0751V24.64H34.6899V10.1646L44.0751 10.145V13.4831V13.4801Z" fill="#FDFFFC"/>
<path d="M54.5161 24.6385H45.8076V10.1225H49.1757V21.3005H54.5161V24.6385Z" fill="#FDFFFC"/>
<path d="M69.0427 10.124H72.5094L73.3666 24.64H69.9985L69.6405 18.7157L67.6075 24.64H64.2394L62.0881 18.4782L61.6891 24.64H58.3013L59.2374 10.124H62.704L65.9128 19.2089L69.0412 10.124H69.0427Z" fill="#FDFFFC"/>
<path d="M79.9422 24.6385C79.1973 24.6385 78.4933 24.5032 77.8303 24.2341C77.1658 23.9649 76.5756 23.58 76.0568 23.0793C75.5258 22.553 75.1161 21.9606 74.8309 21.302C74.5457 20.6434 74.3955 19.9397 74.3818 19.1894V10.124H77.7499V19.1683C77.7499 19.7472 77.9684 20.254 78.4068 20.6885C78.8453 21.0975 79.3626 21.3005 79.9604 21.3005C80.2517 21.3005 80.5309 21.2418 80.7979 21.1231C81.0634 21.0043 81.2955 20.8464 81.4958 20.6494C81.6945 20.4524 81.8477 20.2224 81.9539 19.9577C82.0601 19.6946 82.1132 19.4119 82.1132 19.1082V10.1225H85.4813V19.0886C85.495 19.8389 85.3584 20.5502 85.0732 21.2223C84.788 21.8944 84.395 22.4793 83.8974 22.98C83.3998 23.4808 82.8142 23.8792 82.1436 24.1754C81.473 24.4716 80.7584 24.6265 80.0014 24.6401H79.9422V24.6385Z" fill="#FDFFFC"/>
<path d="M95.9239 10.1435H99.292V24.6385H95.6448L90.8627 16.1866V24.6385H87.4946V10.1826H91.1616L95.9239 18.615V10.142V10.1435Z" fill="#FDFFFC"/>
<path d="M104.053 10.0834C105.022 10.136 105.935 10.366 106.793 10.775C107.65 11.184 108.393 11.7163 109.024 12.3749C109.656 13.0335 110.153 13.7973 110.519 14.6664C110.884 15.5355 111.067 16.4633 111.067 17.4512C111.067 18.439 110.887 19.3367 110.528 20.1863C110.17 21.0358 109.674 21.7831 109.044 22.4282C108.413 23.0732 107.673 23.5905 106.822 23.9784C105.972 24.3664 105.048 24.5874 104.051 24.64H100.683V10.0653H104.051V10.0849L104.053 10.0834ZM104.053 21.2809C104.572 21.2283 105.053 21.093 105.497 20.8764C105.942 20.6599 106.327 20.3832 106.653 20.0464C106.978 19.7111 107.234 19.3187 107.421 18.8721C107.607 18.424 107.7 17.9504 107.7 17.4497C107.7 16.9489 107.607 16.4452 107.421 15.9791C107.234 15.5115 106.976 15.0965 106.644 14.7356C106.312 14.3732 105.926 14.077 105.488 13.8469C105.049 13.6169 104.572 13.4755 104.053 13.4229V21.2824V21.2809Z" fill="#FDFFFC"/>
<path d="M115.211 24.6385H111.843V10.1225H115.211V24.6385Z" fill="#FDFFFC"/>
<path d="M125.574 24.6385L124.996 22.8808H120.393L119.795 24.6385H116.228L121.21 10.1435H124.398L129.121 24.6385H125.574ZM121.549 19.5427H123.92L122.764 16.0272L121.549 19.5427Z" fill="#FDFFFC"/>
<path d="M138.824 24.6385H130.116V10.1225H133.484V21.3005H138.824V24.6385Z" fill="#FDFFFC"/>
<path d="M143.567 24.6385H140.199V10.1225H143.567V24.6385Z" fill="#FDFFFC"/>
<path d="M149.904 24.9152C149.438 24.9152 148.977 24.8521 148.519 24.7273C148.061 24.6025 147.625 24.4085 147.214 24.1453C146.496 23.6852 145.938 23.0883 145.541 22.3575C145.142 21.6268 144.943 20.8268 144.943 19.9577H148.311C148.311 20.3532 148.397 20.6584 148.57 20.8764C148.743 21.093 148.895 21.2418 149.029 21.3215C149.268 21.4794 149.526 21.5651 149.805 21.5786C150.085 21.5922 150.356 21.5396 150.622 21.4208C150.808 21.3411 150.957 21.2433 151.071 21.1245C151.183 21.0058 151.269 20.8915 151.33 20.7787C151.389 20.6674 151.426 20.5577 151.439 20.4524C151.453 20.3472 151.459 20.2615 151.459 20.1953C151.459 20.1291 151.453 20.0434 151.439 19.9382C151.426 19.8329 151.389 19.7217 151.33 19.6029C151.271 19.4841 151.184 19.3698 151.071 19.257C150.957 19.1458 150.808 19.0435 150.622 18.9503C150.476 18.8841 150.32 18.8255 150.153 18.7729C149.986 18.7202 149.81 18.6616 149.625 18.5954C149.293 18.4902 148.948 18.3714 148.589 18.2406C148.231 18.1098 147.871 17.9308 147.513 17.7068C147.047 17.4181 146.656 17.0557 146.337 16.6212C146.019 16.1866 145.789 15.719 145.65 15.2183C145.51 14.7176 145.463 14.2018 145.51 13.668C145.557 13.1342 145.706 12.6245 145.959 12.1373C146.199 11.6892 146.498 11.3013 146.856 10.972C147.214 10.6427 147.613 10.3826 148.052 10.1916C148.49 10.0007 148.962 9.88488 149.467 9.84579C149.972 9.8067 150.484 9.8518 151.001 9.98412C151.505 10.1029 151.961 10.2909 152.371 10.5465C152.78 10.8036 153.134 11.1134 153.431 11.4742C153.729 11.8366 153.956 12.2411 154.114 12.6892C154.272 13.1372 154.352 13.6049 154.352 14.0921H151.002C151.002 13.7898 150.905 13.5793 150.713 13.4605C150.52 13.3417 150.35 13.2636 150.204 13.223C150.177 13.223 150.115 13.2124 150.015 13.1929C149.915 13.1733 149.802 13.1733 149.676 13.1929C149.55 13.2124 149.42 13.259 149.288 13.3312C149.154 13.4034 149.048 13.5192 148.969 13.677C148.863 13.8876 148.843 14.1086 148.91 14.3386C148.977 14.5687 149.109 14.7506 149.309 14.8815C149.494 14.9867 149.701 15.0829 149.927 15.1672C150.153 15.2529 150.391 15.3356 150.644 15.4137C150.87 15.4799 151.099 15.5521 151.332 15.6303C151.564 15.71 151.799 15.8017 152.036 15.9069C152.906 16.3024 153.591 16.8813 154.085 17.6451C154.58 18.409 154.829 19.2585 154.829 20.1923C154.829 21.126 154.581 21.9561 154.085 22.7199C153.591 23.4837 152.906 24.0626 152.036 24.4581C151.693 24.616 151.341 24.7318 150.983 24.8039C150.625 24.8761 150.265 24.9122 149.907 24.9122L149.904 24.9152Z" fill="#FDFFFC"/>
<path d="M164.65 10.0834V13.4214H161.84V24.6385H158.472V13.4214H155.682V10.0834H164.648H164.65Z" fill="#FDFFFC"/>
<path d="M174.453 24.6385L173.875 22.8808H169.272L168.674 24.6385H165.107L170.09 10.1435H173.277L178 24.6385H174.453ZM170.428 19.5427H172.799L171.643 16.0272L170.428 19.5427Z" fill="#FDFFFC"/>
<path d="M43.6637 31.1553C43.8639 30.8034 44.1385 30.5283 44.4845 30.3283C44.8319 30.1298 45.2157 30.0305 45.639 30.0305C46.1366 30.0305 46.5705 30.1493 46.9407 30.3869C47.3109 30.6245 47.5825 30.9613 47.7524 31.3989H47.0393C46.9134 31.1267 46.7314 30.9177 46.4932 30.7703C46.255 30.623 45.9713 30.5493 45.639 30.5493C45.3068 30.5493 45.0352 30.623 44.7818 30.7703C44.5285 30.9177 44.3312 31.1252 44.1871 31.3958C44.043 31.6665 43.9717 31.9823 43.9717 32.3461C43.9717 32.71 44.043 33.0198 44.1871 33.2889C44.3312 33.5596 44.53 33.7671 44.7818 33.9144C45.0352 34.0618 45.3204 34.1355 45.639 34.1355C45.9576 34.1355 46.255 34.0633 46.4932 33.9189C46.7314 33.7746 46.9134 33.5656 47.0393 33.2934H47.7524C47.5825 33.725 47.3124 34.0588 46.9407 34.2949C46.569 34.5309 46.1366 34.6482 45.639 34.6482C45.2157 34.6482 44.8319 34.5505 44.4845 34.3535C44.1385 34.1565 43.8639 33.8844 43.6637 33.534C43.4634 33.1837 43.3633 32.7882 43.3633 32.3476C43.3633 31.9071 43.4634 31.5101 43.6637 31.1583V31.1553Z" fill="#FDFFFC"/>
<path d="M54.5994 33.6032H52.6104L52.2448 34.6076H51.6167L53.2643 30.1148H53.9516L55.5932 34.6076H54.9651L54.5994 33.6032ZM54.4295 33.1235L53.6057 30.8425L52.7819 33.1235H54.4295Z" fill="#FDFFFC"/>
<path d="M63.1665 34.6076H62.5718L60.1777 31.0094V34.6076H59.583V30.0832H60.1777L62.5718 33.6739V30.0832H63.1665V34.6076Z" fill="#FDFFFC"/>
<path d="M67.5299 31.1553C67.7301 30.8034 68.0048 30.5283 68.3507 30.3283C68.6981 30.1298 69.0819 30.0305 69.5052 30.0305C70.0028 30.0305 70.4368 30.1493 70.8069 30.3869C71.1771 30.6245 71.4487 30.9613 71.6186 31.3989H70.9056C70.7796 31.1267 70.5976 30.9177 70.3594 30.7703C70.1212 30.623 69.8375 30.5493 69.5052 30.5493C69.173 30.5493 68.9014 30.623 68.648 30.7703C68.3947 30.9177 68.1974 31.1252 68.0533 31.3958C67.9092 31.6665 67.8379 31.9823 67.8379 32.3461C67.8379 32.71 67.9092 33.0198 68.0533 33.2889C68.1974 33.5596 68.3962 33.7671 68.648 33.9144C68.9014 34.0618 69.1866 34.1355 69.5052 34.1355C69.8238 34.1355 70.1212 34.0633 70.3594 33.9189C70.5976 33.7746 70.7796 33.5656 70.9056 33.2934H71.6186C71.4487 33.725 71.1786 34.0588 70.8069 34.2949C70.4352 34.5309 70.0028 34.6482 69.5052 34.6482C69.0819 34.6482 68.6981 34.5505 68.3507 34.3535C68.0048 34.1565 67.7301 33.8844 67.5299 33.534C67.3296 33.1837 67.2295 32.7882 67.2295 32.3476C67.2295 31.9071 67.3296 31.5101 67.5299 31.1583V31.1553Z" fill="#FDFFFC"/>
<path d="M79.2817 30.0892V34.6076H78.687V32.5597H76.3657V34.6076H75.771V30.0892H76.3657V32.0725H78.687V30.0892H79.2817Z" fill="#FDFFFC"/>
<path d="M86.2606 33.6032H84.2716L83.9059 34.6076H83.2778L84.9255 30.1148H85.6127L87.2543 34.6076H86.6262L86.2606 33.6032ZM86.0906 33.1235L85.2668 30.8425L84.443 33.1235H86.0906Z" fill="#FDFFFC"/>
<path d="M91.8835 34.4949C91.6453 34.3896 91.4602 34.2422 91.3236 34.0543C91.1886 33.8663 91.1188 33.6483 91.1143 33.4032H91.7484C91.7697 33.6152 91.8577 33.7927 92.0139 33.9385C92.1687 34.0829 92.3947 34.155 92.6906 34.155C92.9864 34.155 93.1973 34.0844 93.3612 33.9445C93.525 33.8047 93.6069 33.6243 93.6069 33.4032C93.6069 33.2303 93.5584 33.0905 93.4628 32.9822C93.3672 32.8739 93.2474 32.7927 93.1032 32.7356C92.9591 32.68 92.7649 32.6183 92.5207 32.5537C92.2203 32.4755 91.979 32.3973 91.797 32.3206C91.6164 32.2424 91.4617 32.1206 91.3327 31.9537C91.2038 31.7868 91.14 31.5643 91.14 31.2831C91.14 31.0365 91.2038 30.8185 91.3297 30.629C91.4556 30.4396 91.6346 30.2922 91.8622 30.1885C92.0913 30.0847 92.3538 30.0321 92.6511 30.0321C93.079 30.0321 93.4279 30.1388 93.701 30.3493C93.9726 30.5614 94.1273 30.8425 94.1622 31.1914H93.5083C93.4871 31.0185 93.3945 30.8666 93.2337 30.7343C93.0729 30.602 92.859 30.5373 92.5935 30.5373C92.3447 30.5373 92.1429 30.6004 91.9851 30.7283C91.8273 30.8561 91.7499 31.0335 91.7499 31.2636C91.7499 31.4274 91.797 31.5613 91.891 31.665C91.9851 31.7688 92.1004 31.847 92.237 31.9011C92.375 31.9552 92.5677 32.0169 92.8165 32.086C93.1169 32.1687 93.3596 32.2499 93.5432 32.3296C93.7268 32.4093 93.8831 32.5326 94.0135 32.6995C94.144 32.8664 94.2093 33.092 94.2093 33.3762C94.2093 33.5972 94.1501 33.8047 94.0333 33.9987C93.9149 34.1926 93.7404 34.3505 93.5098 34.4723C93.2792 34.5941 93.0062 34.6542 92.6921 34.6542C92.3781 34.6542 92.1217 34.6016 91.885 34.4949H91.8835Z" fill="#FDFFFC"/>
<path d="M104.008 34.4949C103.77 34.3896 103.585 34.2422 103.449 34.0543C103.314 33.8663 103.244 33.6483 103.239 33.4032H103.873C103.895 33.6152 103.984 33.7927 104.139 33.9385C104.294 34.0829 104.52 34.155 104.816 34.155C105.111 34.155 105.322 34.0844 105.486 33.9445C105.65 33.8047 105.732 33.6243 105.732 33.4032C105.732 33.2303 105.683 33.0905 105.588 32.9822C105.492 32.8739 105.372 32.7927 105.228 32.7356C105.084 32.68 104.89 32.6183 104.646 32.5537C104.345 32.4755 104.104 32.3973 103.923 32.3206C103.743 32.2424 103.588 32.1206 103.459 31.9537C103.33 31.7868 103.267 31.5643 103.267 31.2831C103.267 31.0365 103.33 30.8185 103.456 30.629C103.582 30.4396 103.76 30.2922 103.989 30.1885C104.218 30.0847 104.48 30.0321 104.776 30.0321C105.204 30.0321 105.553 30.1388 105.826 30.3493C106.099 30.5598 106.252 30.8425 106.287 31.1914H105.633C105.612 31.0185 105.52 30.8666 105.359 30.7343C105.198 30.602 104.984 30.5373 104.718 30.5373C104.47 30.5373 104.268 30.6004 104.11 30.7283C103.952 30.8561 103.875 31.0335 103.875 31.2636C103.875 31.4274 103.922 31.5613 104.016 31.665C104.11 31.7688 104.225 31.847 104.363 31.9011C104.5 31.9552 104.694 32.0169 104.942 32.086C105.242 32.1687 105.485 32.2499 105.668 32.3296C105.852 32.4093 106.008 32.5326 106.14 32.6995C106.271 32.8664 106.336 33.092 106.336 33.3762C106.336 33.5972 106.277 33.8047 106.16 33.9987C106.041 34.1926 105.867 34.3505 105.636 34.4723C105.406 34.5941 105.133 34.6542 104.819 34.6542C104.505 34.6542 104.248 34.6016 104.011 34.4949H104.008Z" fill="#FDFFFC"/>
<path d="M111.075 30.0892V34.6076H110.48V30.0892H111.075Z" fill="#FDFFFC"/>
<path d="M118.943 34.6076H118.348L115.954 31.0094V34.6076H115.359V30.0832H115.954L118.348 33.6739V30.0832H118.943V34.6076Z" fill="#FDFFFC"/>
<path d="M126.035 30.0892V30.5689H124.792V34.6076H124.197V30.5689H122.949V30.0892H126.036H126.035Z" fill="#FDFFFC"/>
<path d="M130.631 30.5689V32.0785H132.293V32.5642H130.631V34.1204H132.488V34.6061H130.035V30.0817H132.488V30.5674H130.631V30.5689ZM131.835 29.1103L130.442 29.8486V29.4081L131.835 28.5976V29.1103Z" fill="#FDFFFC"/>
<path d="M139.469 30.0892V30.5689H138.226V34.6076H137.631V30.5689H136.383V30.0892H139.47H139.469Z" fill="#FDFFFC"/>
<path d="M144.066 30.0892V34.6076H143.471V30.0892H144.066Z" fill="#FDFFFC"/>
<path d="M148.428 31.1553C148.628 30.8034 148.901 30.5283 149.249 30.3283C149.596 30.1298 149.98 30.0305 150.403 30.0305C150.901 30.0305 151.335 30.1493 151.705 30.3869C152.075 30.6245 152.345 30.9613 152.517 31.3989H151.804C151.678 31.1267 151.494 30.9177 151.257 30.7703C151.019 30.623 150.735 30.5493 150.403 30.5493C150.071 30.5493 149.799 30.623 149.546 30.7703C149.293 30.9177 149.095 31.1252 148.951 31.3958C148.807 31.6665 148.736 31.9823 148.736 32.3461C148.736 32.71 148.807 33.0198 148.951 33.2889C149.095 33.5596 149.294 33.7671 149.546 33.9144C149.799 34.0618 150.085 34.1355 150.403 34.1355C150.722 34.1355 151.019 34.0633 151.257 33.9189C151.494 33.7746 151.678 33.5656 151.804 33.2934H152.517C152.347 33.725 152.077 34.0588 151.705 34.2949C151.335 34.5309 150.901 34.6482 150.403 34.6482C149.98 34.6482 149.596 34.5505 149.249 34.3535C148.901 34.1565 148.628 33.8844 148.428 33.534C148.228 33.1837 148.127 32.7882 148.127 32.3476C148.127 31.9071 148.228 31.5101 148.428 31.1583V31.1553Z" fill="#FDFFFC"/>
<path d="M159.365 33.6032H157.376L157.01 34.6076H156.382L158.03 30.1148H158.717L160.359 34.6076H159.731L159.365 33.6032ZM159.195 33.1235L158.371 30.8425L157.547 33.1235H159.195Z" fill="#FDFFFC"/>
<path d="M164.986 34.4949C164.748 34.3896 164.563 34.2422 164.426 34.0543C164.291 33.8663 164.221 33.6483 164.217 33.4032H164.851C164.872 33.6152 164.962 33.7927 165.116 33.9385C165.271 34.0829 165.497 34.155 165.793 34.155C166.089 34.155 166.3 34.0844 166.464 33.9445C166.628 33.8047 166.709 33.6243 166.709 33.4032C166.709 33.2303 166.661 33.0905 166.565 32.9822C166.47 32.8739 166.35 32.7927 166.206 32.7356C166.062 32.68 165.867 32.6183 165.623 32.5537C165.323 32.4755 165.082 32.3973 164.901 32.3206C164.72 32.2424 164.566 32.1206 164.437 31.9537C164.308 31.7868 164.244 31.5643 164.244 31.2831C164.244 31.0365 164.308 30.8185 164.434 30.629C164.56 30.4396 164.737 30.2922 164.966 30.1885C165.195 30.0847 165.458 30.0321 165.754 30.0321C166.182 30.0321 166.53 30.1388 166.804 30.3493C167.077 30.5598 167.23 30.8425 167.265 31.1914H166.611C166.59 31.0185 166.497 30.8666 166.336 30.7343C166.175 30.602 165.962 30.5373 165.696 30.5373C165.447 30.5373 165.245 30.6004 165.088 30.7283C164.93 30.8561 164.852 31.0335 164.852 31.2636C164.852 31.4274 164.9 31.5613 164.994 31.665C165.088 31.7688 165.203 31.847 165.341 31.9011C165.478 31.9552 165.672 32.0169 165.919 32.086C166.219 32.1687 166.462 32.2499 166.646 32.3296C166.829 32.4093 166.986 32.5326 167.118 32.6995C167.248 32.8664 167.313 33.092 167.313 33.3762C167.313 33.5972 167.254 33.8047 167.137 33.9987C167.019 34.1926 166.844 34.3505 166.614 34.4723C166.383 34.5941 166.11 34.6542 165.796 34.6542C165.482 34.6542 165.226 34.6016 164.989 34.4949H164.986Z" fill="#FDFFFC"/>
<path d="M36.55 29.2036L37.3662 30.8395L39.1883 31.1027L37.8699 32.3778L38.1809 34.1761L36.55 33.3265L34.919 34.1761L35.2315 32.3778L33.9116 31.1027L35.7352 30.8395L36.55 29.2036Z" fill="#FDFFFC"/>
<path d="M175.36 29.2036L176.176 30.8395L177.998 31.1027L176.68 32.3778L176.991 34.1761L175.36 33.3265L173.731 34.1761L174.042 32.3778L172.723 31.1027L174.545 30.8395L175.36 29.2036Z" fill="#FDFFFC"/>
<path d="M9.76025 26.4549L9.67074 26.3782L5.56836 28.8337C5.84448 29.2697 6.14184 29.6847 6.45589 30.0772L10.3019 26.897C10.1168 26.7556 9.93624 26.6083 9.76025 26.4564V26.4549Z" fill="#F9C41E"/>
<path d="M22.6893 27.8773C22.574 27.9465 16.9059 31.5943 13.9262 33.513L13.8974 33.531C13.6759 33.6648 13.4256 33.7355 13.1692 33.7355C12.582 33.7355 12.0556 33.3641 11.8599 32.8108C11.6687 32.2725 11.828 31.6845 12.265 31.3116L14.8714 28.99C14.7288 28.96 14.5862 28.9269 14.4451 28.8908L14.0264 28.7855L13.2071 29.2983L8.48877 32.1717C11.6414 34.8918 15.1749 36 15.1749 36C24.3992 31.871 27.3849 23.2762 27.3849 23.2762C27.3667 23.2687 27.35 23.2597 27.3318 23.2522C26.2941 25.1768 24.6996 26.7992 22.6893 27.8773Z" fill="#F9C41E"/>
<path d="M16.1821 23.3394L16.5356 23.2973C16.5493 23.2898 17.2426 22.8748 18.0315 22.0929L18.0725 22.0523L18.03 22.0162C17.4277 21.5004 16.8011 20.9471 16.167 20.3712L15.9576 20.1818C15.8666 20.1081 15.7695 20.0269 15.6739 19.9412C14.8303 19.669 14.0596 19.3623 13.3845 19.027L13.3344 19.0014L13.3117 19.0525C12.8929 20.0088 12.7625 20.7637 12.761 20.7712L12.7549 20.8043L12.7837 20.896C13.0052 21.6012 13.3466 22.2778 13.8002 22.9048L13.8093 22.9184L13.8245 22.9244C14.8546 23.2913 15.6162 23.3469 15.9773 23.3469C16.0926 23.3469 16.1609 23.3409 16.1791 23.3394H16.1821Z" fill="#FDFFFC"/>
<path d="M19.7081 14.9657L19.6944 14.9341H19.6595C18.6218 14.8965 17.6523 15.0454 16.7648 15.3747L16.2565 15.5626C15.5253 16.0077 14.8865 16.5881 14.3464 17.2903L14.3252 17.3174L14.3419 17.3474C15.0929 18.7067 16.0138 19.5292 16.0229 19.5367L16.5342 19.9878L16.5418 19.9908C16.8133 20.1111 17.804 20.5186 19.1391 20.7126L19.1725 20.7171L19.1907 20.6885C19.7414 19.8645 20.1192 18.9849 20.3134 18.0722L20.4105 17.6211V17.6121C20.3604 17.2151 20.1951 16.1626 19.7065 14.9642L19.7081 14.9657Z" fill="#FDFFFC"/>
<path d="M13.0325 13.2455L12.9916 13.0696C12.987 13.05 12.9476 12.8786 12.9112 12.611L12.8975 12.5072L12.8216 12.5809C11.834 13.5417 11.1558 14.7537 10.8615 16.0844L10.8569 16.1024L11.0572 16.5114L11.1088 16.4738C11.3728 16.2829 11.6762 16.1054 12.01 15.9475L12.0342 15.9355L12.0403 15.91C12.3453 14.4514 12.8641 13.5417 12.8854 13.5026L13.034 13.244L13.0325 13.2455Z" fill="#FDFFFC"/>
<path d="M11.825 18.1128V18.0872L11.8038 18.0722C11.3835 17.7549 11.121 17.4858 10.9754 17.3143L10.939 17.2722L10.6978 17.5008V17.5925C10.6978 19.1172 11.1817 20.5667 12.0981 21.7831L12.183 21.8959L12.1937 21.7561C12.2301 21.2764 12.2801 20.9411 12.2801 20.9381L12.2862 20.899L12.2574 20.8088C11.9843 19.9367 11.8387 19.03 11.825 18.1128Z" fill="#FDFFFC"/>
<path d="M13.5544 15.3386L13.5665 15.3912L13.6196 15.3777C15.0336 15.0093 16.2792 14.9627 16.3308 14.9597L16.4916 14.9536L16.5068 14.9386C16.6646 14.7792 17.5111 13.9387 18.6399 13.1267L18.6824 13.0952L18.6505 13.0531C18.2697 12.5328 17.8358 12.0772 17.3624 11.6983L16.9756 11.3885H16.9619C16.7131 11.3479 16.3111 11.2968 15.8104 11.2697C15.4812 11.2532 15.1535 11.2487 14.8273 11.2562H14.806L14.7909 11.2712C14.1764 11.8862 13.7364 12.5042 13.4816 13.1102L13.3723 13.3703L13.3678 13.635C13.3587 14.1327 13.4072 14.6409 13.5119 15.1431C13.5256 15.2078 13.5392 15.2724 13.5544 15.3371V15.3386Z" fill="#FDFFFC"/>
<path d="M19.4742 23.2191L19.4514 23.201L19.4241 23.2101C18.5502 23.5048 17.6324 23.6927 16.6963 23.7694L16.3655 23.801L16.3413 23.816C16.1046 23.9529 15.8725 24.0792 15.6509 24.1919L15.5356 24.2506L15.6585 24.2897C16.3397 24.5017 17.0528 24.6085 17.7765 24.6085C18.6231 24.6085 19.4514 24.4626 20.2358 24.1739L20.2555 24.1664L20.3723 23.9258L20.3374 23.9002C20.166 23.7694 19.8762 23.5469 19.4711 23.2206L19.4742 23.2191Z" fill="#FDFFFC"/>
<path d="M21.4408 11.6907L21.5622 11.6592L21.4545 11.5945C20.35 10.9269 19.0786 10.5735 17.7769 10.5735C17.5933 10.5735 17.4067 10.5811 17.2231 10.5946L17.0957 10.6036L17.2535 10.7389C17.3551 10.8262 17.4568 10.9164 17.5554 11.0096L17.8786 11.3118L17.8922 11.3148C18.3064 11.4216 19.1469 11.6742 20.1209 12.1779L20.1452 12.19L20.1695 12.1779C20.573 11.9749 20.9629 11.8201 21.3286 11.7178C21.3665 11.7073 21.4044 11.6968 21.4408 11.6877V11.6907Z" fill="#FDFFFC"/>
<path d="M23.9259 14.1101C23.489 13.3538 22.9216 12.6922 22.2389 12.1433L22.1448 12.0681L22.1524 12.1884C22.1554 12.2366 22.1585 12.2892 22.16 12.3493C22.1721 12.6952 22.1554 13.0786 22.1114 13.4876L22.1084 13.5146L22.1296 13.5327C22.8093 14.1176 23.3965 14.7852 23.8713 15.516L24.0898 15.8513L24.0944 15.8558C24.1399 15.8964 24.2339 15.9806 24.3599 16.0813C24.457 16.158 24.551 16.2287 24.642 16.2903L24.7498 16.3625L24.7255 16.2362C24.5783 15.4904 24.3098 14.7762 23.9259 14.1116V14.1101Z" fill="#FDFFFC"/>
<path d="M24.2976 18.018C24.0549 17.4286 23.8319 16.776 23.6331 16.0783L23.5846 15.9054L23.5345 15.8799C23.5345 15.8799 22.8639 15.537 21.8383 15.2649L21.7867 15.2513L21.7731 15.3025C21.5668 16.1069 21.28 16.9535 20.922 17.8195L20.8203 18.0661L20.8249 18.0827C20.8582 18.2135 21.148 19.3984 21.2542 20.7411L21.2588 20.7937L21.3119 20.7892C21.8323 20.7486 22.3481 20.6629 22.8412 20.5336C22.9034 20.5171 22.9656 20.5005 23.0278 20.4825L23.1598 20.4449L23.2705 20.3276C23.2705 20.3276 23.9077 19.6389 24.3993 18.2872L24.4069 18.2676L24.3993 18.2481C24.3659 18.1714 24.334 18.0932 24.3007 18.0135L24.2976 18.018Z" fill="#FDFFFC"/>
<path d="M23.5632 20.7396L23.3524 20.8374L23.2886 20.905C23.2598 20.9351 22.5771 21.6643 21.289 22.3846L21.2648 22.3981L21.2617 22.4252C21.2223 22.8748 21.1434 23.2747 21.0266 23.6146L21.0068 23.6702L21.2283 23.7183L21.2465 23.7078C21.9945 23.2898 22.6545 22.747 23.2067 22.0929C23.6072 21.6192 23.941 21.0975 24.2004 20.5441L24.2642 20.4088L24.1291 20.475C23.9471 20.5637 23.7574 20.6524 23.5617 20.7396H23.5632Z" fill="#FDFFFC"/>
<path d="M13.4892 32.0484L22.0202 26.5406C25.2851 24.8881 27.5214 21.5245 27.5214 17.6421C27.5214 15.4062 26.6384 13.2786 25.4065 11.6862C25.2851 11.5299 24.5978 10.3751 22.8637 9.24133C21.3086 8.22487 19.4304 7.66702 17.4293 7.66702C15.4281 7.66702 13.5211 8.25945 11.9402 9.27741C11.9175 9.29095 11.8947 9.30448 11.8719 9.31952C11.8689 9.32102 11.8674 9.32252 11.8644 9.32403L11.8188 9.3526C11.8188 9.3526 11.8067 9.36162 11.8006 9.36462L11.7946 9.36914C11.7688 9.38718 11.7445 9.40522 11.7187 9.42327C11.6231 9.48943 11.5275 9.55408 11.435 9.62325C11.3622 9.67738 11.2909 9.73452 11.218 9.79015C11.1741 9.82474 11.1285 9.85932 11.0845 9.8939C11.0618 9.91195 11.039 9.92849 11.0178 9.94653C11.0178 9.94653 11.0193 9.94653 11.0208 9.94804C10.8236 10.1104 10.6309 10.2788 10.4473 10.4548L3.41381 16.558C3.28334 16.6633 3.37892 16.8452 3.51394 16.8452C3.54125 16.8452 3.57159 16.8377 3.60042 16.8196L6.79403 14.916L9.15168 13.3583L7.69825 15.0875C7.4813 15.9039 7.36448 16.7595 7.36448 17.6436C7.36448 17.8271 7.37055 18.0105 7.37965 18.191L0.910508 23.6597C0.784584 23.7664 0.880165 23.9439 1.01367 23.9439C1.04098 23.9439 1.07133 23.9363 1.10015 23.9183L6.56494 20.5908L8.39462 19.3623L7.7999 20.5411C8.03961 21.326 8.37187 22.0718 8.78908 22.762L0.0593848 30.1418C-0.0665389 30.2471 0.0290417 30.426 0.162551 30.426C0.18986 30.426 0.218686 30.4185 0.249029 30.4005L6.19627 26.8414L6.12496 26.8669L11.1225 23.8657L10.8297 25.1738C11.3713 25.6415 11.9615 26.055 12.5971 26.4008L7.00643 31.0245C6.87899 31.1297 6.97457 31.3102 7.10808 31.3102C7.13539 31.3102 7.16573 31.3026 7.19456 31.2846L12.808 27.8668L14.0855 27.0669L14.0703 27.0549C14.0703 27.0549 14.0855 27.0594 14.0931 27.0624L15.3644 26.2655L14.9639 27.3225C15.7574 27.5225 16.5888 27.6308 17.4444 27.6308C17.6265 27.6308 17.807 27.6248 17.9861 27.6157L13.3041 31.7868C13.1737 31.8906 13.2692 32.074 13.4027 32.074C13.4301 32.074 13.4604 32.0665 13.4892 32.0484ZM17.7843 25.7542C16.6525 25.7542 15.5556 25.5302 14.5239 25.0896C13.4756 24.6415 12.5486 23.9935 11.7657 23.1635C10.3351 21.6478 9.54766 19.669 9.54766 17.5925C9.54766 17.5158 9.54766 17.4391 9.5507 17.364C9.56283 16.8948 9.61745 16.4212 9.71303 15.9596C10.0863 14.1402 11.0921 12.4832 12.5456 11.2953C13.6288 10.4097 14.9275 9.8112 16.302 9.5631C16.7875 9.47589 17.2851 9.43079 17.7843 9.43079C19.3773 9.43079 20.9218 9.88188 22.2508 10.7344L22.2644 10.7435C22.445 10.8592 22.624 10.9855 22.8 11.1194C24.566 12.4651 25.7205 14.489 25.9678 16.6723L25.9739 16.7384C25.989 16.8798 25.9997 17.0196 26.0073 17.1534V17.1835C26.0118 17.2452 26.0148 17.3083 26.0164 17.37C26.0179 17.4437 26.0194 17.5188 26.0194 17.5925C26.0194 18.4586 25.8828 19.3112 25.6143 20.1276C24.9574 22.1215 23.5692 23.7709 21.7031 24.7739C21.4057 24.9332 21.0947 25.0761 20.7791 25.1994C19.8249 25.5693 18.8175 25.7557 17.7843 25.7557V25.7542Z" fill="#FDFFFC"/>
<path d="M25.5458 0.869086C25.2485 0.869086 25.0073 1.10816 25.0073 1.40288C25.0073 1.56978 25.0861 1.71864 25.209 1.81638C25.206 1.83592 25.2045 1.85697 25.1999 1.87652C25.0209 2.71104 24.0575 3.29294 23.0987 3.14709C22.1398 2.99974 21.401 2.1562 21.4844 1.30815C21.4859 1.2901 21.4905 1.27206 21.4935 1.25402C21.7378 1.20289 21.9214 0.987873 21.9214 0.730752C21.9214 0.43604 21.6801 0.196962 21.3828 0.196962C21.0854 0.196962 20.8442 0.43604 20.8442 0.730752C20.8442 0.92021 20.9443 1.08411 21.093 1.18034C21.0945 1.23597 21.093 1.2901 21.0884 1.34574C20.9989 2.16522 20.1235 2.79073 19.1389 2.74111C18.1543 2.68848 17.3532 1.97426 17.3502 1.15027C17.3502 1.10816 17.3547 1.06757 17.3593 1.02546C17.555 0.945772 17.6931 0.75481 17.6931 0.530769C17.6931 0.236057 17.4518 -0.00302124 17.1545 -0.00302124C16.8571 -0.00302124 16.6159 0.236057 16.6159 0.530769C16.6159 0.736767 16.7357 0.914195 16.9072 1.00291C16.9072 1.02396 16.9117 1.04652 16.9117 1.06757C16.9057 1.92163 16.0834 2.68247 15.1169 2.72908C14.1626 2.77569 13.2842 2.11409 13.1735 1.28409C13.3237 1.18936 13.4238 1.02396 13.4238 0.834503C13.4238 0.539791 13.1826 0.300713 12.8852 0.300713C12.5878 0.300713 12.3466 0.539791 12.3466 0.834503C12.3466 1.03148 12.4558 1.20139 12.6167 1.29461C12.5848 2.07801 11.937 2.99823 11.0191 3.13957C10.0845 3.28091 9.13935 2.5306 8.90874 1.77878C8.99522 1.68406 9.04984 1.55925 9.04984 1.42092C9.04984 1.12621 8.80861 0.88713 8.51125 0.88713C8.21388 0.88713 7.97266 1.12621 7.97266 1.42092C7.97266 1.69458 8.18051 1.91712 8.44904 1.9487C9.29865 3.73501 10.0982 5.56193 10.8249 7.38884L10.8401 7.42794L10.881 7.42042C14.994 6.70168 19.1632 6.70469 23.2762 7.43245L23.3171 7.43997L23.3323 7.40087C24.0712 5.5499 24.8859 3.70043 25.7507 1.89607C25.9509 1.81788 26.092 1.62541 26.092 1.39987C26.092 1.10516 25.8508 0.866079 25.5534 0.866079L25.5458 0.869086ZM13.844 4.99506C13.7606 5.20256 13.6787 5.41006 13.5998 5.61907C13.4329 5.6341 13.2645 5.65064 13.0976 5.66869C12.9777 5.47923 12.8549 5.29127 12.7335 5.10783C12.6622 4.97701 12.6637 4.94544 12.7426 4.78455C12.8852 4.53344 13.0339 4.27782 13.1856 4.02371C13.3843 4.24174 13.5816 4.46277 13.7697 4.67929C13.8805 4.82515 13.888 4.85522 13.8456 4.99506H13.844ZM17.9692 5.02814C17.7993 5.34691 17.6278 5.67771 17.4609 6.01001C17.3214 6.00851 17.1803 6.007 17.0392 6.007C16.8981 6.007 16.757 6.007 16.6174 6.01001C16.4505 5.67771 16.2791 5.34691 16.1091 5.02964C16.009 4.79507 16.0166 4.73944 16.1744 4.47781C16.4505 4.07934 16.7418 3.67637 17.0392 3.28091C17.335 3.67336 17.6248 4.07634 17.9024 4.4748C18.0617 4.73794 18.0693 4.79507 17.9707 5.02814H17.9692ZM21.3448 5.10482C21.222 5.29127 21.1006 5.47923 20.9792 5.66869C20.8123 5.65064 20.6439 5.6341 20.477 5.61907C20.3966 5.41006 20.3147 5.20106 20.2328 4.99656C20.1903 4.85372 20.1964 4.82364 20.3071 4.6808C20.4983 4.46127 20.694 4.24023 20.8927 4.02221C21.0429 4.27331 21.1901 4.52893 21.3342 4.78004C21.4146 4.94393 21.4162 4.97551 21.3464 5.10482H21.3448Z" fill="#F9C41E"/>
<path d="M29.7561 9.14509C28.8868 8.53011 26.6338 7.95722 24.2701 7.49561C24.2367 7.57981 24.2003 7.66552 24.1654 7.74972L24.1503 7.78881C24.0152 8.12864 23.6891 8.34516 23.3325 8.35719C23.3598 8.37523 23.3871 8.39027 23.4144 8.40831C24.5902 9.17667 25.5506 10.0909 26.2667 11.1284L26.2955 11.169C27.8309 13.1568 28.6775 15.5566 28.6775 17.9203C28.6775 17.9398 28.6775 17.9594 28.6775 17.9804C29.4922 12.1193 29.7561 9.14509 29.7561 9.14509Z" fill="#232C64"/>
<path d="M5.83655 17.9278V17.9218C5.83655 17.597 5.85021 17.2692 5.87903 16.9429L3.88853 18.1293C3.67006 18.2616 3.41973 18.3308 3.16636 18.3308C2.58074 18.3308 2.05429 17.9594 1.85706 17.4076C1.66286 16.8648 1.8252 16.2738 2.26821 15.9009L8.77528 10.1841C9.07112 9.94202 10.0224 9.16464 10.0436 9.1466C10.0436 9.1466 10.124 9.08345 10.1604 9.05488L10.2348 8.99774C10.3046 8.9421 10.3759 8.88797 10.4472 8.83535C10.5579 8.75415 10.6672 8.67746 10.7703 8.60679L10.781 8.59928C10.8067 8.58123 10.8325 8.56168 10.8598 8.54364L10.9448 8.48801C10.9706 8.46996 10.9994 8.45342 11.0282 8.43538C11.1117 8.38275 11.1951 8.33163 11.2786 8.28051C11.1876 8.29554 11.0965 8.30907 11.0055 8.32561L10.9645 8.33313C10.9114 8.34215 10.8583 8.34666 10.8052 8.34666C10.4366 8.34666 10.0967 8.12413 9.95866 7.77378L9.94349 7.73619C9.82363 7.43546 9.69922 7.13173 9.57482 6.8295C2.93879 7.29412 0.297426 9.16314 0.297426 9.16314C-0.0196587 12.6997 1.14855 17.4 2.27579 20.9381L5.83655 17.9278Z" fill="#DA1D2D"/>
<path d="M6.9397 22.7725C6.8335 22.55 6.73337 22.3229 6.64234 22.0944L3.36377 24.0912C3.56859 24.6415 3.74458 25.0911 3.87505 25.4189L6.74702 22.9906C6.81074 22.9199 6.87446 22.8462 6.9397 22.774V22.7725Z" fill="#DA1D2D"/>
</g>
<defs>
<clipPath id="clip0_2_779">
<rect width="178" height="36" fill="white"/>
</clipPath>
</defs>
</svg>
